<?xml version="1.0" standalone="no"?>
<!DOCTYPE svg PUBLIC "-//W3C//DTD SVG 1.1//EN" "http://www.w3.org/Graphics/SVG/1.1/DTD/svg11.dtd" >
<svg xmlns="http://www.w3.org/2000/svg">
<metadata></metadata>
<defs>
<font id="aracne_regular_italicitalic" horiz-adv-x="1013" >
<font-face units-per-em="2048" ascent="1638" descent="-410" />
<missing-glyph horiz-adv-x="507" />
<glyph horiz-adv-x="2048" />
<glyph horiz-adv-x="2048" />
<glyph unicode="&#xd;" horiz-adv-x="507" />
<glyph unicode=" "  horiz-adv-x="507" />
<glyph unicode="&#x09;" horiz-adv-x="507" />
<glyph unicode="&#xa0;" horiz-adv-x="507" />
<glyph unicode="!" horiz-adv-x="331" d="M-68 25l2 12q12 47 52 47q0 2 14 2v-2l6 2q27 0 29 -10q-4 0 -4 -2q4 -2 10 -21v-4q-10 -70 -78 -69q-31 0 -31 45zM-29 213l4 33q8 74 21 223q-2 0 0 2h4q-6 14 0 137v4t2 4l-2 52h4l-2 8l8 59q2 18 6 64h2q-2 10 -6 10q8 12 8 14q14 133 23 187h2l-2 6l10 78q2 8 6 16 q-2 4 -2 12l9 35l-3 6q6 23 11 23q0 4 -2 4q14 47 18 90l12 90q29 49 82 49q14 -10 21 -37q6 -43 2 -102l-21 -63q-2 -4 0 -5q-10 -37 -16 -73l-6 -45q0 -4 -4 -4l4 -7l-4 -26q0 -4 -4 -4l4 -6q-4 -4 -8 -5l4 -8q0 -8 -4 -14q2 -6 0 -14q0 -4 -5 -5l5 -8l-5 -28 q-2 -12 -6 -13l2 -16l-8 -62q-4 -8 0 -14l-4 -6v-23h-4l4 -8l-8 -61q-2 -10 0 -17q-4 -6 -4 -14q-2 -4 2 -4l-4 -14l-2 -82q0 -2 -4 -2q-6 -170 -11 -236h-4q4 -16 -2 -65l-6 -45q-2 -8 -6 -15q4 -2 0 -69q-4 -25 -53 -52l-19 -4q-49 0 -39 70z" />
<glyph unicode="&#x22;" horiz-adv-x="438" d="M-4 1223l4 6q0 2 -2 2q0 2 2 6q0 53 6 98l4 13q-2 4 -2 6q2 2 4 2l-2 10l8 47q0 2 2 2l-2 4l5 21l4 12q-4 4 -2 10v2q2 6 4 11l-2 4l4 4q0 2 -4 2l6 8q-2 20 0 25h2q-4 8 -4 18v6q4 8 47 14v3q41 0 47 -21q-2 -2 2 -2l-4 -14l-8 -43q0 -2 -4 -2l4 -4l-2 -17q0 -4 -4 -8 q2 -4 2 -8q0 -2 -7 -6q0 -4 5 -4l-7 -11l4 -10q-6 -4 -6 -6l4 -10q0 -4 -4 -4l-2 -25v-10q-2 -20 -12 -56q4 -4 2 -10q-4 -4 -4 -6l4 -4q0 -2 -4 -2l2 -41q-18 -41 -43 -41q-18 0 -37 25q-10 0 -10 4zM143 1223l4 6q2 2 -2 2q0 2 5 6q0 53 8 98l4 13q-2 4 -2 6t4 2l-2 10 l6 47q0 2 2 2l-2 4l4 21l4 12q-4 4 -2 10v2q2 6 4 11l-2 4l4 4q0 2 -4 2l6 8q-2 20 0 25h2q-4 8 -4 18v6q4 8 47 14v3q41 0 47 -21q-2 -2 2 -2l-4 -14l-8 -43q0 -2 -4 -2l4 -4l-2 -17q0 -4 -4 -8q2 -4 2 -8q0 -2 -6 -6q0 -4 4 -4l-4 -11l2 -10q-4 -4 -4 -6l2 -10q0 -4 -4 -4 v-25l-2 -10q-2 -20 -10 -56q2 -4 2 -10q-6 -4 -7 -6l5 -4q0 -2 -5 -2l3 -41q-18 -41 -43 -41q-18 0 -37 25q-12 0 -13 4z" />
<glyph unicode="#" horiz-adv-x="1597" d="M-43 299q6 49 59 49q4 4 101 14l8 -2l86 7q4 0 2 -5l20 5h48q10 0 16 4q4 -4 14 -4h15q8 0 14 4q6 -4 14 -4h17q6 0 6 8q-2 8 -2 10h4v41l4 8l-4 6q4 4 6 4q8 141 16 197q-4 6 -2 10h4q-4 8 -4 37h4l-2 8l7 41l-2 19l-21 -4h-10q-4 0 -2 4l-8 -4h-123q-8 0 -15 -4 q-8 4 -14 4l-8 -4q-6 4 -15 4q-8 -4 -12 -4v4l-8 -4h-94l-19 -5v5q-8 -4 -12 -5l-6 5q-6 -4 -16 -5q-37 25 -33 50q2 4 53 45l18 -4h56q20 0 24 -5q23 4 35 5h84q8 0 16 4q6 -4 15 -4l37 4v-4q4 0 4 4l18 -4h31l16 4v-4q6 4 17 4q12 145 14 221h4l-2 8q0 2 4 2q-2 41 10 127 l2 4v23q2 6 5 16l2 8q2 8 -2 15l6 12q0 4 -2 10l6 19l-2 8q4 6 4 14v14q14 0 26 37q-4 0 -4 4l9 4q4 0 2 -4l10 4q41 0 45 -61q-4 -37 -2 -53h-4l2 -8v-2q0 -4 -4 -5l4 -8q-6 -29 -12 -51q-8 -84 -7 -123h-2q-2 -8 0 -45q-2 -2 -6 -2q4 -29 -12 -178q2 -6 2 -10h20q4 0 5 -4 l8 4h8q2 0 2 -4l8 4h19q4 0 4 -4l6 4h22q25 0 74 4v-4l8 4q8 0 15 -4q6 4 16 4h2q4 0 4 -4l6 4q14 0 226 6v6q2 12 0 12l14 60q-2 8 -2 12q0 2 4 2v18v9q2 4 4 4l-2 8l6 49q0 4 4 4l-2 8l2 27q4 8 0 14l4 9q0 2 -2 2q0 4 4 12q10 125 23 199q14 4 31 40l18 5h8 q37 -20 29 -82q4 0 4 -6h-4q2 -12 6 -13q-2 -8 -6 -8q-14 -137 -16 -190l-7 -23l-2 -10v-25q-4 -6 -4 -12l2 -16l-6 -15q0 -14 -2 -26h-2l2 -7v-12q-4 -8 -6 -14q0 -4 2 -4l-4 -19l-2 -14h6q10 0 10 2l21 -2h20l19 2v-2l8 2h6q4 0 4 -2l8 2h23l22 4q6 -4 11 -4q8 4 16 4v-4 l6 4h31l37 4v-4l8 4h43l24 4l7 -4l22 4l-2 -4q20 8 29 8v-4l6 4q31 -8 33 -28v-4q-20 -41 -21 -45q-29 -8 -28 -13l-37 4h-23q-18 0 -55 -4v4l-187 -14l-20 4h-64q-27 -141 -34 -170l4 -8l-8 -18q0 -4 4 -5l-9 -18l-8 -61q0 -4 -4 -5q0 -4 4 -4l-6 -14l2 -22h-4v-9v-6 q0 -4 -4 -4l4 -6l-6 -21v-18l-4 -6q2 -8 2 -12q14 0 14 4q43 -4 64 -4h73q8 0 15 -5q8 4 14 5h49q4 0 2 -5l9 5h45q8 0 8 8q25 -8 45 -8h2l22 4l9 -4q6 4 14 4q33 -12 31 -27q-4 0 -7 -2h9l-2 -16q-10 0 -21 -37l-6 -2l-8 2q0 -6 -8 -6q-4 0 -11 4q-14 -4 -16 -4l-16 4 q-8 -4 -13 -4v4l-8 -4h-6q-4 0 -2 4l-10 -4h-11l-18 4q0 -8 -8 -8l-2 8q-4 0 -4 -4l-19 4h-41q-4 0 -4 2l-6 -2h-59q-4 0 -4 2l-9 -2q-2 0 -2 2l-8 -2h-106l-6 -41q-2 -8 2 -17l-7 -6q4 -8 2 -14q0 -4 -4 -4q2 -8 2 -12q-4 -33 -12 -134q-4 -27 -45 -55q-55 12 -53 31 q-4 6 -2 10q0 4 4 4q2 51 0 64q6 6 6 14l-2 6l4 8q0 29 -2 37l4 8l-2 7q0 4 4 4l2 36l8 54h-8q-8 0 -16 -4q-4 4 -12 4l-27 -4q-14 4 -27 4q-8 -4 -12 -4l2 4l-8 -4h-31q-6 0 -6 6q-12 -6 -23 -6h-59q-4 0 -4 4l-6 -4q-4 0 -4 4l-8 -4h-129l-19 -4v4l-8 -4q-6 4 -10 4v-4 v-13l-4 -6q4 -29 4 -37q0 -4 -4 -4q0 -39 -11 -119v-22h-4q8 -25 4 -47h-4q4 -8 2 -13q-6 -35 -47 -59q-47 12 -47 21q4 0 4 2q-6 0 -8 12l4 45q4 6 0 14q4 6 4 10q-2 8 0 13h2l-2 6l4 18q2 20 4 64h4l-2 6l2 31v18h5l-5 6l9 58h-133q-8 0 -15 -4q-4 0 -4 4l-18 -4h-4 q-2 0 -2 4l-9 -4h-18l-37 -5v5l-41 -9l-4 4q-80 -14 -98 -14q-18 6 -29 39zM467 367h61q8 0 17 4l6 -4l14 4q33 -4 53 -4q4 0 5 4l67 -9q8 4 17 5v-5q8 4 12 5q10 0 16 -5q20 4 35 5h14q4 0 2 -5l11 5h80l2 12q2 10 6 10l-2 19l4 26q4 35 16 96l-2 7q4 8 4 16v2q4 8 0 16 q6 10 8 11v18v4q0 4 5 4q-4 6 0 10l2 9l-2 6q10 31 30 137q-37 -2 -55 -2h-31l-22 -4l-6 4l-144 -12q-6 4 -10 4l-23 -4l-4 8l-18 -8q-4 0 -2 4l-39 -4h-51q-8 0 -17 -4q-6 4 -14 4h-10v-4q-6 -43 -15 -129q-4 0 -4 -5q8 0 4 -10q-10 -78 -20 -241z" />
<glyph unicode="$" d="M-72 297q18 41 41 51q0 8 15 10l8 -4q6 4 8 4q43 -45 37 -102q18 -96 123 -168q57 -20 96 -29q2 0 29 4l14 -4q6 4 16 4v23q8 68 21 229h4l-2 7l8 67l-2 23l4 6v10q0 4 4 4q0 49 2 68h2l-2 8l17 106q0 4 -4 4l6 7q-4 8 -4 12q2 2 6 2l-2 20l2 7q0 14 8 32 q-53 78 -127 156q-39 53 -76 156h4q-10 35 -6 104h4q0 2 -4 2l6 21v4q2 8 -2 12q29 102 127 195q98 78 176 92l13 10q8 63 2 63q4 6 6 11q2 27 16 100q2 0 35 41q25 10 31 10h8q16 0 29 -53v-4l-4 -8l2 -8q-4 -6 -7 -15q4 -8 2 -10h-2l2 -8q-4 -16 -10 -41q-2 -33 -4 -55h47 q4 0 4 -5l9 5l8 -5q4 0 4 5q94 -14 168 -84q68 -100 49 -232v-14l-8 -2l2 -8q-33 -18 -35 -27h-14q-41 4 -37 37q-8 0 -8 8l6 47q20 147 -160 191l-6 -5h-6q-4 0 -4 5l-9 -5q-6 4 -14 5l-4 -9v-8q-4 -12 -2 -51l-4 -14l4 -17q-12 -35 -14 -53l2 -8q-6 -18 -11 -19q0 -4 4 -4 q-39 -168 -53 -215q0 -4 2 -4l-4 -18l-6 -33q0 -4 -4 -4l2 -6q0 -4 -2 -4q0 -4 2 -4l-6 -19l-8 -55q0 -4 -4 -4q4 -6 4 -11q-16 -74 -17 -81q35 -23 158 -150l80 -139l29 -84q4 -47 -7 -117q0 -2 -2 -2v-12q-12 -27 -16 -27l2 -6q-23 -59 -137 -156q-147 -74 -193 -73 l-6 -45q0 -4 -4 -5q2 -6 2 -32h-4l4 -6v-5q-2 -4 -4 -4q4 -18 -2 -78l-2 -8q0 -2 -4 -2q8 -18 6 -30q-33 -18 -33 -25h-10q-4 0 -4 2l-8 -2h-2q-4 0 -5 2l-8 -2h-14q-16 0 -10 61l4 9q-2 6 -2 14l2 8q0 2 4 2q-2 8 0 53h4l-2 33q0 4 2 4v19l4 18h-82q-4 0 0 4q-4 0 -6 -4 q-72 0 -156 68q0 2 -51 57q-53 74 -61 123q-8 31 -17 45l7 6q-8 0 -9 35zM276 1141q-18 -139 84 -256q-2 -6 41 -51l9 59q0 2 4 2q-2 8 -2 12l4 6q0 4 -2 5q12 37 22 118v4q0 2 4 2q0 4 -4 5l8 20q0 6 -2 12q10 41 15 41q0 4 -4 4q6 27 10 27q0 2 -4 2q12 51 16 61q0 2 -4 3 l8 20l2 14q2 8 -2 15l4 8l-4 6q4 4 8 4v64q-141 -59 -170 -127q-8 -8 -41 -80zM403 86q-2 -8 5 -8q127 41 182 96q55 59 63 111q14 98 -82 233q0 27 -106 115h-4v-4l2 -15q0 -4 -4 -4v-18l-4 -37v-27h-4l2 -6q-2 -14 -7 -14l3 -27l-13 -82l2 -18h-4l2 -6l-2 -21q-2 -2 -6 -2 l4 -8l-10 -74q0 -18 -4 -55h-4q0 -31 4 -31q-2 -4 -6 -10q-4 -51 -9 -88z" />
<glyph unicode="%" horiz-adv-x="856" d="M0 950q12 100 86 125q50 21 70 21q111 0 131 -115v-31q-12 -90 -117 -147q-37 -10 -43 -10q-143 33 -127 157zM29 59q16 33 22 33q0 4 -4 4q133 317 168 377q2 4 -2 4q37 84 39 88q-4 0 -4 4q6 0 22 54q8 14 13 14l-4 6q20 49 26 49l-4 6q35 68 107 242q29 51 98 266 q8 0 29 68l53 110q31 17 33 25h24q4 0 4 -2l8 2h5q29 -23 24 -55q-2 -16 -80 -170q-29 -66 -67 -178l-377 -873q-27 -70 -35 -70l2 -20q-20 -43 -53 -43v4l-8 -4h-5q-39 25 -34 59zM61 926q25 -53 72 -54q0 -4 4 -4q70 18 78 86q-8 68 -59 68l-19 2q-63 -12 -69 -63l-2 -19 v-16h-5zM408 453q1 18 28 65q35 72 133 72q127 0 140 -152q0 -8 -17 -43q-72 -96 -162 -96l-26 6q-111 37 -96 148zM481 463l2 -21q-8 -49 58 -67q68 0 94 65q0 2 -4 2q8 47 -41 80l-2 -2l-15 2h-18q-51 0 -74 -59z" />
<glyph unicode="&#x26;" horiz-adv-x="806" d="M-76 131v4q2 8 13 8q0 4 -11 11q2 4 4 4v16l4 35q8 47 66 168q29 61 109 176q18 29 47 59q14 23 51 66l4 6q-57 258 -33 442q2 10 -2 11l8 16v10q14 96 54 152q4 37 75 88q45 20 74 20q68 -8 66 -14q8 4 12 4q61 -29 86 -88q43 -61 27 -178l-3 -19q-18 -125 -219 -407 l-57 -68q31 -231 84 -342q51 -98 63 -104q35 35 66 119h2l-2 6q10 45 29 45q0 6 6 6q51 -16 49 -35q6 -23 6 -26q-6 -27 -18 -39h4q-6 -14 -10 -15l2 -6q-2 -16 -21 -33h6v-2q-20 -37 -35 -43q0 -14 -18 -34v-5l-6 5q-2 -10 -10 -19q-2 -10 67 -86l2 -18v-2q-2 -4 -6 -5 l4 -8q-2 -12 -41 -16l-6 4q-6 -4 -14 -4q-59 51 -76 74q-106 -88 -152 -88h-8q-2 -23 -129 -39q-4 0 -28 4v-6h-7q-66 0 -127 49q-23 35 -41 90h-4l2 14q4 25 -6 25l8 10q-6 2 -10 2zM8 170q-18 -139 131 -139q88 0 242 104v4q0 2 -59 99l-31 73q-51 129 -62 244 q-70 -63 -143 -193q-68 -112 -78 -192zM256 1024q-4 -117 10 -133q-6 -6 -6 -10q8 -37 16 -113h9q4 12 71 102q51 78 103 179q6 0 20 43l-2 6q8 16 12 16l-2 8l5 31q12 94 -54 166q-25 12 -49 12q-72 0 -110 -133q-7 0 -21 -76v-10l2 -18h-4q0 -53 4 -66q-2 -4 -4 -4z" />
<glyph unicode="'" horiz-adv-x="239" d="M-4 1223l4 6q0 2 -2 2q0 2 2 6q0 53 6 98l4 13q-2 4 -2 6q2 2 4 2l-2 10l8 47q0 2 2 2l-2 4l5 21l4 12q-4 4 -2 10v2q2 6 4 11l-2 4l4 4q0 2 -4 2l6 8q-2 20 0 25h2q-4 8 -4 18v6q4 8 47 14v3q41 0 47 -21q-2 -2 2 -2l-4 -14l-8 -43q0 -2 -4 -2l4 -4l-2 -17q0 -4 -4 -8 q2 -4 2 -8q0 -2 -7 -6q0 -4 5 -4l-7 -11l4 -10q-6 -4 -6 -6l4 -10q0 -4 -4 -4l-2 -25v-10q-2 -20 -12 -56q4 -4 2 -10q-4 -4 -4 -6l4 -4q0 -2 -4 -2l2 -41q-18 -41 -43 -41q-18 0 -37 25q-10 0 -10 4z" />
<glyph unicode="(" horiz-adv-x="403" d="M-12 598q4 0 6 4q-2 6 -2 16l8 66v18v5v22l4 6q-4 0 -4 4l4 15q12 98 37 184q-4 0 -4 4l43 141q53 164 209 326q43 47 82 55q26 0 26 -37l-4 -8q4 0 4 -2l-2 -4q-16 -37 -37 -55q-100 -117 -151 -215q-29 -74 -45 -105l2 -16q-8 0 -31 -80q2 0 2 -4q-4 -4 -4 -12l-4 -35 l-6 -6h4l-6 -27l-6 -37q0 -8 -7 -14q4 -6 3 -16l-9 -66l-8 -8q4 0 4 -2l-4 -35l-4 -6q4 0 4 -4l-4 -15l-4 -18q6 0 4 -19v-12l-6 -8h4l-6 -14l2 -19q-4 0 -4 -4q2 0 6 -24h-6q0 -88 8 -134l-6 -8q8 -43 2 -96q31 -170 45 -170q20 -80 37 -86l-8 -16v-4q8 0 8 6l6 -2 q0 -8 -10 -9q0 -4 4 -4q-12 -45 -23 -45h-4q-8 0 -4 8q-4 0 -6 -4q-6 0 -12 4l-9 -4l-6 4l-20 -4q-4 16 -8 17q-16 0 -21 43q-39 113 -49 155q-23 123 -14 410z" />
<glyph unicode=")" horiz-adv-x="438" d="M-66 27l7 2q2 -6 8 -6v4v16q16 6 55 86q14 0 94 170q8 53 29 96l-2 8q20 45 45 134h-8q12 25 14 24q0 4 -4 4l8 19l-4 14h4v8v12q4 18 10 19l-2 18l5 15q0 4 4 4l-4 6l4 35q0 2 4 2v8l8 66q2 10 6 16q-2 6 -2 14l4 37v27h4l-2 6l4 35q0 8 -2 12q0 4 4 4q0 80 -6 80l6 16 q-8 31 -14 105q-25 98 -92 215q-14 18 -23 55v4q0 2 4 2l-2 8q12 37 39 37q33 -8 66 -55q111 -162 116 -326l3 -141q0 -4 -5 -4q0 -86 -14 -184l-2 -15q0 -4 -4 -4l4 -6l-8 -22q0 -4 4 -5l-6 -18l-10 -66q0 -10 -7 -16q-2 -4 2 -4q-72 -287 -131 -410q-18 -43 -90 -155 q-16 -43 -32 -43q-4 0 -13 -17l-16 4l-8 -4l-6 4q-8 -4 -17 -4q2 4 -2 4q-2 -8 -8 -8h-4q-10 0 -8 45q4 0 4 4q-12 0 -11 9z" />
<glyph unicode="*" horiz-adv-x="573" d="M-16 1237q6 31 84 84l47 37q0 8 -66 55q-37 35 -37 45l4 27q31 47 52 47q18 0 77 -55q2 20 7 20l-2 8l2 19q0 4 2 4v8q12 25 43 41q-2 -4 2 -4q0 6 12 10h2q43 -31 35 -78h-2l2 -8l-6 -43q0 -6 6 -6q100 84 125 84h4q14 -31 22 -31l-2 -10q0 -4 -4 -4l4 -6 q-16 -43 -137 -127v-4q57 -68 105 -133q-27 -57 -39 -60q-8 -4 -13 -4q-49 0 -96 86h-6v-2v-57l-16 -11l2 -8v-4q-25 -23 -52 -24q0 4 -28 14q-4 23 -19 41l8 10l9 49q-37 -25 -58 -49q4 0 4 -4l-8 -2h-37q-29 16 -26 29q4 8 4 12q-6 4 -10 4z" />
<glyph unicode="+" horiz-adv-x="700" d="M-14 694v4q4 18 57 64q10 -4 10 -8l8 4l15 -4q4 0 4 4l16 -4h49q4 0 5 -4q6 4 10 4q27 -4 30 -4q4 0 5 4l18 -4h20q6 37 7 88h4q-4 4 0 45h4l-4 8l2 24q2 4 6 5l-4 8v4q4 12 41 51v-8h4q4 22 22 22q31 0 29 -65h-2v-8v-4q0 -4 -2 -5l2 -6l-2 -4q0 -8 -4 -14q4 -8 0 -12 h-2l2 -7l-2 -18q-2 -20 2 -45h-4q2 -8 -2 -55h4l26 4v-4q8 4 13 4q4 0 2 -4q35 6 172 10v-2l53 10q23 -18 29 -37l-6 -8v-18q0 -12 -23 -33l-6 4q-2 0 -23 -4l-16 4l-10 -4q-4 0 -2 4l-21 -4h-24q-14 0 -33 -4q-8 4 -12 4l-23 -4v4q-14 -8 -41 -8h-24q-10 0 -17 -2 q-6 2 -10 2q-8 -2 -12 -2l-13 -201q-2 -6 -26 -35l-8 4h-5l-16 -10q-6 0 -49 33l4 8v14v19h4l-4 8l12 86q8 53 0 70l-43 4q-8 -4 -14 -4v4q-4 0 -4 -4l-19 4h-57q-2 0 -2 2q-18 -2 -18 -6q-59 6 -68 18q0 -4 -2 -4z" />
<glyph unicode="," horiz-adv-x="360" d="M4 4q0 4 4 4q0 4 -4 12q12 68 74 97l8 -4l27 8q70 -41 61 -117l-4 -16q0 -4 -2 -4q0 -4 2 -4q-39 -106 -74 -127q-2 -23 -37 -25q-2 -8 -8 -8q-25 10 -22 14l4 8q-25 0 -23 33q-4 0 -2 4q14 31 37 60l6 18q-27 8 -43 47h-4z" />
<glyph unicode="-" horiz-adv-x="669" d="M0 674q0 16 47 41q2 10 8 10l8 -4q4 0 5 4q4 0 10 -4q92 8 168 8q2 0 20 -4q8 4 13 4q4 0 4 -4l16 4h80q4 0 4 -4l6 4h33l22 -4q6 4 19 4h4q8 0 14 -4l8 4l7 -4q4 0 4 4l14 -4q35 4 41 4v-4q17 6 33 6h10q14 0 16 -43h4q-14 -41 -47 -49q-4 0 -6 -2l-24 2h-74q-4 0 -4 4 l-6 -4h-27q-8 0 -14 4q-6 -4 -17 -4q-4 0 -10 4q-4 0 -4 -4l-18 4l-19 -4q-6 4 -10 4l-14 -4q-8 0 -9 4l-45 -4h-14q-35 0 -96 4q-6 -4 -15 -4q-8 4 -12 4l-6 -4q-4 0 -4 4l-72 -6q-59 10 -51 37z" />
<glyph unicode="." horiz-adv-x="290" d="M2 59q23 78 86 78q0 4 16 4q41 0 56 -61l-6 -31q-23 -35 -68 -59l-18 4h-25q-43 31 -41 65z" />
<glyph unicode="/" horiz-adv-x="559" d="M-88 59q16 33 22 33q0 4 -4 4q131 317 164 377q4 4 0 4q35 84 37 88q-4 0 -4 4q6 0 23 54q8 14 12 14l-2 6q18 49 24 49l-2 6q33 68 105 242q29 51 98 266q8 0 29 68l53 110q33 17 33 25h26q4 0 4 -2l7 2h4q29 -23 24 -55q0 -16 -78 -170q-31 -66 -69 -178l-377 -873 q-27 -70 -33 -70l2 -20q-20 -43 -51 -43v4l-8 -4h-4q-39 25 -35 59z" />
<glyph unicode="0" horiz-adv-x="862" d="M-35 276l4 17q0 4 4 4q-10 78 0 190l4 9q-2 6 -2 14l5 10q0 4 4 4l-4 8l4 37q0 4 4 4q2 4 -2 5l16 100l-2 6q4 6 6 10l-2 17q4 6 6 10q0 4 -4 4q12 41 19 41q0 2 -5 2q31 123 56 186q-4 0 -2 4l6 5l-2 6q20 41 31 78h4q0 4 -4 4l14 41q-2 0 0 4q4 0 14 16l-2 8 q18 20 45 74q82 133 187 188q10 0 59 25q66 6 78 6q8 -10 78 -14l51 -31q0 4 4 4q80 -104 104 -211q10 -45 23 -59l22 -174l-4 -6l2 -9q0 -4 -4 -4l2 -45h-4l2 -6l-8 -51q0 -4 -4 -4q0 -4 4 -4l-4 -15v-22q-18 -84 -25 -84l5 -8q-12 -74 -19 -74q2 -8 2 -12 q-41 -188 -80 -295q-33 -82 -73 -142q-66 -76 -138 -114q-96 -63 -184 -64q-115 0 -221 90q-49 49 -41 111q-2 0 -19 63q4 2 7 3q2 14 -17 40zM59 410q-2 -66 4 -107q23 -156 37 -178q78 -70 168 -70q20 0 125 56q96 72 129 137q59 111 72 203l-4 8q10 8 26 78q-2 6 -2 10 q8 41 15 41l-4 8v2q4 20 14 35q-6 0 -2 6v4q0 4 4 4q-4 6 -2 10l20 78q-4 6 0 17q0 4 9 36l-6 19l6 6q0 4 -4 4l6 19l2 26q4 2 8 2q-6 25 -8 99h4q-8 84 -25 129q-25 80 -53 133q-45 72 -82 82q-4 0 -4 -4q-43 10 -68 10h-12q-102 -55 -110 -84q-10 -4 -39 -45q4 0 2 -4 q-39 -43 -88 -158q0 -4 2 -4q-10 -45 -19 -45l4 -8q-14 -37 -18 -37l4 -6l-27 -64q0 -4 4 -4q-23 -74 -32 -96l4 -6l-2 -9l-8 -12q6 0 6 -6q-10 -12 -11 -23l-4 -28q-12 -82 -18 -82l2 -8l-2 -11q0 -4 -4 -4q0 -4 4 -4l-8 -24l-4 -27v-37h-4l2 -8l-5 -25l3 -22q-6 -8 -7 -12 z" />
<glyph unicode="1" horiz-adv-x="671" d="M-4 782q4 6 6 15q0 8 -4 8l82 113q14 8 98 112q172 193 332 330q4 0 49 14q6 -2 6 -8l8 4q8 -2 29 -33l-4 -8v-2q14 -2 20 -53l-2 -12q0 -4 -4 -5q4 -12 2 -20l-8 -20q8 0 6 -9q-8 -10 -12 -20l-4 -45l-6 -6q2 -8 2 -13h-4q-2 -4 2 -4l-6 -16q-2 -12 -4 -27 q-8 -25 -13 -49l-6 -20q0 -4 -4 -4l2 -9v-6q-2 -12 -6 -10q0 -4 2 -12q-16 -94 -27 -138v-14h-4l4 -8q-2 -10 -14 -29q2 -8 2 -10l-6 -12q2 -20 -2 -23l-10 -33l4 -8l-10 -16q0 -8 2 -17q-8 -18 -9 -20q-14 -80 -12 -94q-6 -6 -6 -10v-23l-8 -6q4 -8 2 -12h-4l4 -9l-2 -10 q-20 -84 -23 -196h-4l-6 -78q-4 -8 -6 -13q-4 -23 -12 -88h-5l5 -26l-7 -6q-4 -20 2 -21q-16 -66 -61 -61v8q-23 -6 -29 -6q-20 2 -12 59q-8 0 -2 27h4q-6 0 31 215q-2 0 6 78h2l-2 8q14 98 25 147l10 45l-2 19h4v8q0 4 4 10q2 31 0 37l8 23l2 8q4 8 0 14l6 6q-4 8 -2 17 q0 4 4 2l-2 8q0 4 4 4l2 18v4q2 4 7 3q0 4 -4 4l32 122q4 33 31 185l4 8q2 2 -2 2l8 18q2 8 0 17q4 6 6 12q2 29 4 31h5l-5 8l7 33q4 8 8 14q-2 8 -2 12q6 6 6 11q-127 -115 -320 -340q-74 -92 -77 -101q2 -8 2 -12q-8 2 -31 -27q-23 -10 -57 -14q-23 0 -29 51z" />
<glyph unicode="2" horiz-adv-x="876" d="M-86 20l8 54l72 133q72 141 186 280q45 66 117 144q336 406 340 444q16 43 22 105l3 6q0 68 -39 133q-35 39 -88 39h-15q-4 0 -4 4l-6 -4h-4q-4 0 -4 4q-4 -4 -51 -10l4 4q-76 -12 -166 -70q-74 -49 -99 -112q-8 -59 -45 -60v4l-8 -4h-12q-33 14 -29 39q6 47 21 61 q-2 6 -2 11q72 127 106 127q10 14 88 57q35 20 137 47q0 -4 5 -4q2 6 8 8h4q2 0 2 -4l8 4q12 0 33 -4q6 4 10 4v-4q4 0 4 4q92 2 131 -26q43 0 101 -144q0 -10 6 -65h-2q2 -8 4 -41h-4v-6l-4 -37q-6 -53 -50 -142q-2 -6 -133 -176q-37 -59 -108 -139q-41 -51 -191 -221 l-75 -96q-55 -96 -84 -136q-66 -119 -66 -131h2q12 2 12 -2q4 0 4 4l19 -4h59q4 0 4 -2l7 2l59 2q4 0 4 -4l6 4h27q4 0 4 -4q6 4 10 4q8 2 8 -2l27 4l88 2q289 -2 285 -20q20 -14 16 -53q-2 -12 -35 -41q2 4 -2 4q0 -8 -8 -8l-6 4q-8 -4 -17 -4q2 8 -6 8h-18q-14 -2 -33 2 q-4 0 -6 -4l-57 6l-9 -2q-33 2 -32 4q-4 0 -4 -2l-19 2h-47q-4 0 -4 4q-6 -4 -10 -4q-86 -4 -90 -4l-7 2q-8 -4 -16 -4h-6q-4 0 -4 4q-4 0 -4 -4l-27 4h-41q-8 -2 -12 -4q-8 2 -16 2h-48q-12 0 -12 -4l-18 4l-64 -2q-8 0 -12 -4q-57 0 -82 30z" />
<glyph unicode="3" d="M-74 178q6 37 60 41q27 0 47 -69q43 -59 137 -89q80 -12 176 -12q70 0 193 45q94 55 120 121q27 31 70 154v4q25 238 -106 299q2 12 -54 22q-33 14 -61 19q-39 -20 -107 -31q-4 0 -2 4l-59 -6q-55 4 -49 53q6 33 74 58l8 -5q145 27 184 52q137 117 145 159q35 51 41 84 q0 4 -4 4q10 41 15 50q-2 6 -2 14q2 4 6 4q0 141 -41 160q-12 29 -187 47q-14 -4 -16 -4q-20 4 -20 8l-76 -8l2 4q-8 0 -66 -14v4q-66 -25 -182 -113q-14 -2 -25 -2q-39 0 -34 51q29 57 176 137q90 37 143 37h17q4 0 4 2q4 0 4 -2l24 2h21q4 0 2 -2q4 0 4 2q217 -16 256 -47 q109 -59 88 -274q-23 -158 -133 -287l-70 -68v-4q102 -39 160 -155q33 -106 22 -181l-4 -26q0 -8 2 -14q-4 -6 -6 -17l2 -6l-2 -6q2 -8 -2 -17q0 -4 -2 -4q0 -4 2 -4q-37 -133 -53 -133l-2 -4q0 -2 2 -2q-70 -133 -164 -178q-70 -47 -88 -47q0 4 -4 4q0 -14 -203 -41l-20 4 q-201 0 -219 37q4 0 4 2h-4l-9 -2l-79 51l-39 59q-20 43 -17 76z" />
<glyph unicode="4" horiz-adv-x="833" d="M-20 535l4 8q-4 8 -2 12q37 47 94 143q27 41 78 107q16 35 122 156q129 143 193 225q89 124 193 233h8l-2 -8l8 4h22q8 0 9 -22h4l8 4l2 -6q-10 -66 -16 -191q0 -4 -5 -4v-25l-28 -202q0 -8 2 -17q-4 -6 -6 -14l-2 -10q-2 -12 2 -19l-6 -22l-3 -8q-2 -8 3 -15 q-6 -6 -7 -14v-4v-27h-4l2 -6q0 -4 -4 -4q2 -39 0 -82q-4 -6 -4 -14l-2 -11q-2 -10 0 -16q-4 -6 -4 -14q-2 -6 0 -43l-2 -8v-9q0 -4 -2 -4v-16v-4l-6 -8q25 0 24 -5l9 5h28l21 4q0 -6 20 -19q8 -25 6 -63l-55 -33q-2 0 0 2l-10 -2h-8q-2 0 0 2l-11 -2h-18l-17 2l-4 -16 q0 -10 2 -17l-4 -8q-2 -66 -8 -113q8 0 4 -45h-4q6 -14 2 -41l-12 -100q-4 -8 0 -14l-4 -6v-25h-4l6 -47l-2 -6q-4 -41 -51 -53q-53 0 -47 40q-2 47 6 91l4 24q0 8 -4 15q6 8 8 16q0 4 -4 10l6 8l-2 6l4 9q0 84 4 137q4 0 4 4q-8 0 -6 6q6 59 2 78q6 6 6 14l-2 19q4 0 6 4 l-8 4h-22q-8 0 -15 -4q-6 4 -14 4q-23 0 -27 -4q-137 14 -205 14v4q-2 0 -2 -4l-45 4h-18q-4 0 -2 4l-8 -4h-31q-88 0 -135 27q0 -4 -2 -4q-8 10 -6 14l2 12q-8 0 -6 7zM106 580h46q12 0 18 -5l18 5l105 -5l-2 -4q4 0 6 4l16 -4h29q4 0 4 -4l8 4h6q4 0 5 -4q4 0 4 4l18 -4 h41q2 0 2 -2l8 2q4 0 4 -2l27 2h61q8 0 11 8v23q4 6 4 10l-2 8q0 4 4 5q-4 33 4 88l4 41q4 8 0 14q4 8 4 12v25h4q-2 8 -2 12q4 23 4 55l8 27l-2 16q6 8 7 13q-2 6 -3 14h5l-2 8l2 23v20l6 8q-4 6 -4 15l10 4q-4 8 -4 10q4 18 10 49v23l6 8q-4 6 -4 10h4l-2 6v4q0 4 4 4 q-6 18 -4 27h4l-2 6v13q0 4 4 4l-2 6l6 8l-4 6l8 17q-4 6 -4 10h-2q-80 -117 -250 -295l-186 -242q-55 -82 -68 -110z" />
<glyph unicode="5" horiz-adv-x="925" d="M-68 195q6 0 23 18q20 6 25 14h6q4 0 2 -4l8 4q4 0 2 -4l8 4q35 0 45 -92q27 -68 66 -67q31 -16 133 -25q117 0 233 82q115 106 170 289l15 43l4 53q23 156 -33 260q-10 0 -12 25q-6 0 -27 32q-10 10 -70 37l-6 -4l-41 14l-8 -4l-8 9h-31q-29 0 -69 4q-135 -23 -232 -68 q0 4 -2 4q-2 -8 -8 -8h-8q-41 29 -35 59q-4 0 -4 4l4 9q-2 6 -2 14h4l-2 8l4 37l6 6l-8 4q23 98 27 113q-2 6 -2 10q8 41 14 41q-4 6 -4 10q4 18 10 37q-2 27 2 41q0 8 16 56l-4 8q8 20 11 20l-2 8q18 59 24 60q4 0 45 22q4 0 4 -4q14 8 25 8l-2 -4q12 8 22 8h113l25 -4 q0 6 63 15q2 4 4 4h25q51 0 92 6l8 -2l59 6l23 -4l27 8q0 -8 6 -8h24q8 0 17 4l6 -4q27 4 41 4h8q23 -6 33 -33v-4h-4v-8q0 -6 -11 -6l7 -10q-33 -41 -84 -41q-4 0 -4 4l-15 -4q-8 0 -14 4q-20 -4 -35 -4h-2q-4 0 -4 4q-8 -4 -35 -8l-20 4l-9 -4l-8 4l-8 -4q-6 0 -6 4 q-80 -4 -186 -21l-15 4q-14 -4 -26 -4v4q-12 -6 -19 -6q0 2 -4 2l-4 -6q-6 4 -10 4t-4 -4l-15 4q-35 -4 -43 -4q-6 4 -10 4q-12 -70 -16 -100l-2 -4q0 -4 -2 -4l2 -7q-2 -12 -7 -18v-18q-12 -53 -16 -54q0 -2 4 -2l-8 -45l-2 -10q0 -4 -4 -4l2 -8v-4q0 -2 -4 -2q0 -4 4 -5 l-17 -45q4 -6 5 -14q188 37 204 37v-4l7 4q12 0 12 -4q2 0 14 4q80 0 223 -51q53 -49 64 -86q16 0 49 -88q0 -12 16 -72l7 -74l-5 -8q0 -57 -2 -65h-4l4 -9l-2 -10q0 -4 -4 -4l2 -6q-12 -63 -16 -96v-4q-10 -12 -47 -119q-12 -8 -60 -111q-47 -66 -122 -131 q-59 -49 -220 -90q-6 0 -59 -4l-37 4q-2 -4 -6 -4v6q-4 0 -4 -2q-84 10 -133 33h-4q-8 -4 -13 -4q0 4 -32 22q0 -4 -4 -4q-55 33 -72 107q-18 82 -19 86z" />
<glyph unicode="6" horiz-adv-x="862" d="M-20 283q-8 80 4 288q35 158 94 287q41 115 168 270q49 61 145 146q12 16 53 37q84 65 195 106q29 -14 33 -28l-6 -29q-25 -35 -103 -72q-164 -92 -321 -293q-82 -133 -136 -280q-6 0 -14 -37q57 63 76 63v7l6 4q0 -4 4 -4q45 49 76 49h14q2 8 41 18l-2 -4q23 10 66 14 q0 4 4 4h14q27 -2 27 -8l6 4h4q6 0 6 -8q4 0 4 4l60 -10l8 4q137 -43 186 -141q-2 -10 10 -29l-4 -8q6 0 21 -43l-6 -8q8 0 8 -31h-4q6 -59 -6 -147h-4q2 -6 2 -11q-10 -55 -17 -55q0 -4 4 -4q-10 -39 -16 -49q-2 -2 2 -2q-49 -152 -133 -232q-4 0 -47 -39q-70 -43 -140 -57 h-2l-8 4q-8 -4 -10 -4l-16 4q-6 -4 -11 -4v4q-4 0 -4 -4q-51 6 -51 12q-4 0 -4 -4q-119 39 -117 60q-94 68 -147 178q0 8 -12 78zM53 471q-8 -164 17 -252q102 -174 213 -174h16q4 0 4 -4l8 4q14 -2 15 -6q92 0 184 98q74 106 90 166q-4 8 -2 16q8 0 8 7q0 4 -4 4l25 73v68 h4q8 66 -33 162q-41 59 -86 74v4l-8 -4q-25 14 -101 26l-8 -4l-24 4q-98 -12 -142 -45q-119 -94 -135 -151q-16 -41 -41 -66z" />
<glyph unicode="7" horiz-adv-x="933" d="M78 1329q4 6 4 10q-4 0 -2 4q41 41 72 52l38 -2q12 0 13 4l16 -4l117 -4q2 0 2 -5l8 5h4q2 0 2 -5l8 5l60 -3l18 3v-3l8 3q39 -2 39 -9l9 4l88 -4l18 4v-4q8 2 41 6v-4l8 4q4 0 4 -4l92 9v-2q25 6 31 6q4 0 2 -4l21 4l6 -2q8 0 14 -4q8 4 12 4v-4q6 4 11 4q4 0 4 -4l18 4 l27 -2l20 -5q6 4 21 5q14 -57 14 -62q-4 -18 -186 -317q-100 -199 -121 -228q-133 -254 -223 -450q-31 -78 -101 -205h-4l2 -6q-14 -20 -49 -115q-14 -33 -41 -33q-23 -2 -30 -2q-14 2 -21 27q-8 0 -6 6l6 27v22q29 37 55 111q78 125 146 307q51 90 57 121q29 49 35 51l-2 8 q119 215 217 410l133 219v2l-18 2q-12 0 -19 -4l-20 4l-29 -2l2 4l-27 -8q-4 0 -4 4q-152 -8 -186 -8q-90 6 -139 6l-8 -2q-4 0 -5 4q-4 0 -10 -4l-248 23z" />
<glyph unicode="8" horiz-adv-x="757" d="M-63 244l8 18l2 27q2 4 4 4q0 4 -2 4q33 119 100 211q37 72 152 190q53 55 63 56l2 12q-78 76 -106 156q-78 150 -76 206h-4q0 4 4 5v18v6q14 100 125 201q137 78 256 78l16 -4h15q162 0 186 -148q4 -47 4 -86q-12 -94 -139 -285q-66 -80 -135 -145v-6q104 -72 166 -205 q35 -76 38 -221q-2 -27 0 -27q-20 -145 -127 -246q-6 0 -32 -26q-41 -29 -142 -55q0 4 -4 4q0 -10 -71 -17q-4 0 -11 4q-20 -4 -32 -4h-27q-68 0 -143 54q-70 70 -74 100q-4 0 -14 102h4q-2 18 -6 19zM41 281q0 -102 25 -129q53 -78 167 -78l19 4v-4q10 2 45 8v-4 q90 18 141 69q25 18 62 89l18 71q-4 6 -4 10h4q-4 86 -31 156q-18 76 -110 174l-51 51q-66 -59 -150 -151l4 -6q-127 -158 -139 -260zM180 1180q-8 -61 51 -166q25 -72 84 -137l43 -37q70 66 140 174q27 51 37 51l-5 8l2 2q45 94 48 109q12 88 -41 129q-25 18 -136 18 q-133 0 -217 -137q-2 -8 -6 -14z" />
<glyph unicode="9" horiz-adv-x="870" d="M45 1001h2l-2 35q25 168 162 277q76 61 201 94q2 4 110 16q0 -4 4 -4q0 8 6 8h23q86 -4 84 -14l8 4q152 -57 143 -108q23 -29 23 -33t-4 -4v-47h-4l4 -8q-2 -8 -6 -15q-2 -4 2 -4q-14 -43 -23 -102l-2 -21q0 -2 -4 -2q0 -4 2 -4l-4 -18v-9q-6 -29 -39 -170 q-6 -76 -12 -124v-13q-2 -8 0 -14l-4 -6v-21h-4l4 -6v-10q-2 -4 -6 -4q0 -4 4 -4q-10 -51 -15 -74l-4 -14q0 -10 4 -17q-6 -6 -6 -10q-2 -12 -10 -109l2 -6q-4 -8 -4 -14l-2 -8q-2 -8 2 -15q-6 -6 -8 -20v-29h-4l4 -8l-13 -80q0 -8 3 -14q-4 -8 -7 -12l2 -19l-4 -8v-20 q0 -4 -4 -5v-8v-4q0 -2 -2 -2l2 -8l-4 -27l-2 -37h-4l4 -6l-2 -8q0 -2 -2 -2l2 -8l-8 -64q-16 -29 -43 -37q0 -8 -8 -8h-15q-8 0 -8 8l-6 -4q-37 12 -35 37h-4l8 19l6 41q2 4 7 4l-5 8l9 61v23q0 4 4 4v18v11q0 4 4 4l-2 8l14 102q0 4 4 4q-4 4 0 45h2l-2 9v2q0 4 4 4 q0 4 -2 4q4 20 6 29v16q0 2 4 2l3 76h4l-2 6q8 33 10 41l-2 27h4l-4 6q4 4 8 4q0 4 -4 4l6 37l14 92l-2 22l6 9q-2 6 -2 14h4q-2 8 0 47h-4q-25 -39 -120 -96q-4 -20 -181 -37v4q-2 0 -2 -4q-68 4 -65 12l-8 -4q-92 0 -168 139q0 12 -17 45q-10 66 -8 129zM145 1014 q-12 -92 50 -189q66 -53 120 -53q16 -4 27 -4q47 0 152 57q-2 0 -2 2q2 0 34 17v4h-8q0 -4 -4 -4v4q2 6 8 6l8 -2q78 61 125 190q10 29 27 105q0 4 -2 4q8 33 10 33v8l4 18v7q8 23 11 30q8 68 -91 76q-27 0 -22 8l-10 -4q-4 0 -2 4q-4 0 -7 -4l-18 4q-64 -4 -70 -8l-8 4 q-88 -8 -172 -55q-82 -45 -127 -133q-27 -80 -28 -80l2 -37z" />
<glyph unicode=":" horiz-adv-x="276" d="M-29 59q18 78 82 78q1 4 17 4q41 0 53 -61l-4 -31q-23 -35 -70 -59l-14 4h-27q-43 31 -37 65zM51 694l2 15q6 41 62 82q8 0 18 4l4 -4q8 4 19 4q51 -49 45 -86l-2 -15q-27 -59 -56 -59q-2 -8 -34 -8v4l-9 -4q-31 0 -49 67z" />
<glyph unicode=";" horiz-adv-x="317" d="M-92 -121q18 31 45 60l6 18q-20 8 -35 47h-4q0 4 4 4q0 4 2 12q18 68 76 97l8 -4l29 8q68 -41 45 -117l-4 -16q-2 -4 -4 -4q-2 -4 0 -4q-51 -106 -86 -127q-8 -23 -39 -25q-2 -8 -10 -8q-25 10 -23 14l4 8q-20 0 -12 33q-4 0 -2 4zM131 676l10 33q17 59 117 73 q41 -33 35 -59q6 0 4 -18l-6 -9q-43 -66 -78 -65q0 -8 -6 -8h-4q-61 0 -72 53z" />
<glyph unicode="&#x3c;" horiz-adv-x="608" d="M-8 641l4 23q2 4 4 4l-2 6l2 4q0 31 55 59q4 0 154 121q6 0 133 76q4 0 4 -4l19 4h26q29 -18 25 -60q-29 -29 -162 -104q-45 -39 -125 -88v-4q72 -33 287 -119q18 -23 18 -29l-6 -8q2 -6 2 -14v-4q-41 -35 -47 -37q-23 0 -156 55q-203 78 -231 115q-4 0 -4 4z" />
<glyph unicode="=" horiz-adv-x="720" d="M-12 582v4q0 8 10 8v6q0 8 43 31q0 4 2 4l8 -4q0 8 8 8h15q4 0 4 -4q6 4 10 4l14 -4q4 0 4 4q4 0 13 -4q47 4 51 6l6 -2l8 2q6 -2 15 -2l10 2q4 -2 8 -2q8 2 12 2v-2l9 2h14q8 0 14 -2l8 2l7 -2l16 2l16 -2l9 2l8 -2l18 2l-2 -2l10 2h15q4 0 2 -2l10 2q19 0 74 4 q37 -2 35 -6l8 2h30q2 0 2 -2l9 2h14q39 0 43 -41q-6 -10 -10 -10q8 -12 6 -19q-45 -25 -45 -30q-39 4 -62 12q-8 -4 -12 -4v4l-6 -4q-27 0 -27 6l-8 -2h-16q-59 0 -80 -8q-4 0 -2 4q-8 0 -8 -4q-37 4 -56 4h-36q-33 0 -211 -14q2 6 -31 20q-10 14 -6 27zM16 764q6 47 54 55 q8 0 26 15l8 -5q13 9 21 9l2 -9l6 5h12q4 0 5 -5l6 5q8 0 14 -5l8 5q8 0 47 -9l8 4q6 -4 11 -4q4 0 4 4l18 -4h15l22 4q6 -4 19 -4q8 4 12 4v-4q6 4 59 9l37 -5q6 4 14 5v-5l9 5h24q8 0 17 4q6 -4 14 -4h24l21 4v-4l6 4q14 -10 39 -15v-12q-20 -74 -49 -74l-6 4 q-8 -4 -13 -4q-10 8 -18 8h-23l-40 -4l4 4l-11 -4h-16q-2 0 0 4l-10 -4h-92q-4 0 0 4q-18 -8 -33 -8v4l-8 -4h-13q-10 0 -10 4l-18 -4h-29q-4 0 -4 4l-8 -4h-19q-8 0 -14 4q-6 -4 -10 -4q-10 0 -31 4l-70 -8q-37 25 -37 31h-4z" />
<glyph unicode="&#x3e;" horiz-adv-x="573" d="M18 465l7 6l-5 8q6 33 86 68q129 68 211 125l25 22q-2 0 0 4l-10 -4q-14 0 -174 82q-35 4 -33 10q-4 0 -4 -4q-104 16 -96 64v8q2 2 6 2l-4 8q20 33 71 33q78 -25 283 -111l27 -10q0 2 4 2q-2 -4 71 -37q0 -8 11 -16l-9 -8q8 0 9 -35q-207 -152 -394 -240q0 -6 -28 -18 q-35 6 -52 31q2 4 -2 10z" />
<glyph unicode="?" horiz-adv-x="841" d="M6 1192v2l6 16q0 2 -4 2q14 96 131 174q137 74 305 74h41l25 4q59 -8 119 -20l8 2q66 -14 125 -96q49 -113 35 -213q-31 -113 -76 -172q-82 -111 -191 -177q-137 -106 -168 -186q-31 -29 -83 -211l2 -8q-14 -47 -17 -66q-2 -8 0 -51q-4 -23 -28 -41h-23q0 -20 -23 -26 l-24 18l4 8h-8l2 19l-10 14q4 8 12 8q0 4 -4 10q8 20 8 33q2 14 0 21q6 33 10 32l-2 9l2 12q27 186 178 375q59 66 136 114q156 129 163 183q12 12 31 65q0 4 -4 4q6 27 10 27l-10 59l4 7q-14 72 -61 106q0 4 -21 16q0 -4 -4 -4q0 8 -96 23h-84q-215 0 -305 -111 q-8 -18 -21 -30q4 0 4 -5q-20 -29 -55 -47q-33 0 -27 33h-4l-2 -6h-6zM129 23h4l-4 6l4 4q8 0 12 22q6 0 21 23l24 10q18 -2 19 -6l6 4q33 -35 29 -57l-4 -23q2 -6 0 -10q-31 -27 -68 -27h-2q-4 0 -2 4l-8 -4q-6 0 -25 17l4 6q-10 18 -10 31z" />
<glyph unicode="@" horiz-adv-x="901" d="M-16 168l2 10h8l4 35h-8l8 16v17l-4 10l2 27h4l4 20h-4v23h6l4 16q-10 0 -6 37v6q0 4 4 4q0 4 -4 4q10 47 14 47l-2 9v4q4 8 11 8q0 -4 4 -4q4 31 8 32q-8 4 -12 5v6h12l2 8h-8l6 41q2 6 8 6q0 -2 2 -2l2 18v2h10l2 13l-8 -4h-4v4q66 195 160 284q16 12 47 48 q121 73 211 73q8 -2 16 -2q4 0 4 2q119 -10 125 -28l9 4h2q94 -68 129 -156q39 -94 41 -248h-4l4 -8l-9 -57q-45 -172 -67 -172q-12 -33 -80 -88q-16 -8 -59 -9h-5q-45 0 -81 78q-61 -94 -121 -94q-82 0 -88 131q2 76 -2 100l8 23v45q33 117 63 160q47 51 82 51h4 q113 0 146 -100q16 0 26 -123q-2 -18 0 -33q-4 -6 -4 -10l-4 -37h-4l-4 4l-2 -8l2 -8q-6 0 -10 -11l4 -8l-4 -6q8 -57 16 -57q41 0 82 108q10 47 14 47l-2 8l4 25q4 33 -18 223l-6 -4l-27 68q-61 106 -172 106q-8 0 -14 4q-8 -4 -17 -4h-6q-4 0 -4 4l-8 -4h-22 q-55 -6 -130 -55q-113 -127 -157 -322q0 -4 2 -4l-23 -77l2 -9q-6 -31 -10 -47q0 -4 2 -10q-4 -8 -6 -16v-37h-4q4 -6 4 -11l-6 -8q2 -6 2 -14q0 -4 -4 -4l4 -6l-8 -49v-15q0 -4 -4 -4q0 -33 4 -82q-4 -6 -4 -10q6 0 6 -74q25 -125 55 -184q55 -90 193 -90q8 4 12 4l-2 -4 q139 31 166 69q78 57 96 195q14 16 37 16q41 0 51 -32l-2 -15q-8 -8 -33 -86q-6 0 -16 -41q-61 -86 -94 -114q-55 -49 -166 -70q-51 -6 -51 -10l-7 4l-8 -4l-8 4l-16 -4q-145 0 -228 110q2 8 -12 33q0 8 -23 37q-4 35 -12 45l6 6q-6 0 -14 41l2 8q-16 96 -14 109h6l2 6 q0 18 -8 18l8 13v6l-6 -4q-2 8 -2 10l6 27q-6 0 -10 12zM-14 86v10h6v-10h-6zM20 463v10h9l-2 -10h-7zM41 535q2 -8 2 -13h2l2 13h-6zM365 494q-20 -145 18 -187q45 29 86 117q18 49 27 65l-2 9q4 10 8 10v6q8 20 16 31q6 35 -45 90l-6 -4l-12 6h-15q-25 0 -59 -82 q-8 -33 -12 -33q0 -4 4 -4z" />
<glyph unicode="A" horiz-adv-x="1046" d="M-92 18l2 19q14 61 47 100l-2 6l35 64v8q66 139 164 344q12 16 65 137q4 0 72 121q0 8 86 174q-4 0 -4 4q10 8 59 115q131 285 164 285q2 0 12 4q56 0 56 -91v-10q33 -209 34 -372l56 -414l30 -127h-4q14 -51 19 -86l24 -82l-6 -6q12 -18 29 -123q2 0 8 -18q0 -2 -4 -2 l2 -9l-2 -22l-4 -6q4 0 4 -4q-23 -23 -62 -27q-8 0 -6 6l-8 -2h-4q-29 21 -29 51v8q-4 0 -4 5q2 2 6 2q-10 23 -51 245q-35 145 -47 250h-41q-10 0 -10 -4l-19 4h-45q-8 0 -14 -4q-6 4 -14 4h-31q-10 0 -18 -4l-23 4h-39q-8 0 -16 -4q-14 4 -15 8l-6 -4q-4 0 -4 4l-8 -4 q-2 0 -2 4l-8 -4h-15q-4 0 -4 4l-8 -4l-49 8q-2 -10 -63 -124l-127 -271q-43 -90 -54 -96l4 -8q-14 -14 -16 -23q2 -6 2 -10q-10 -16 -49 -37h-12q-8 0 -15 2q-8 -2 -12 -2zM299 655h4q4 0 4 4l27 -4q16 0 22 4q25 -4 39 -4h105l18 4v-4l8 4h47q4 0 5 3q37 -2 36 -7 q6 4 15 4q0 25 -11 97h5q-25 113 -27 239q-4 0 -4 4h4q-10 100 -25 179l2 6h-8q-49 -106 -102 -203l2 -8q-74 -133 -166 -318z" />
<glyph unicode="B" horiz-adv-x="911" d="M-92 70l2 43h4l-4 6q10 37 14 43q0 4 -4 4q12 53 17 59q-4 6 -3 17h5l-2 6q12 70 16 94q-4 6 -4 8q8 0 14 19l-4 8q6 6 8 14q0 2 -4 2q8 41 12 41l-2 6l2 19q4 29 15 67q0 4 -2 4l4 19q2 20 8 90q2 6 2 8l-2 8q0 4 4 4v50q8 25 10 32l-2 29l8 23v18v20l7 7q0 4 -4 4l6 14 v18l4 19v31l8 8v59l8 4l-2 19q8 57 19 86v24l6 27q-2 4 0 8q0 4 4 4q-2 20 0 29q2 10 8 27v57q4 0 4 2q-6 0 -6 8l2 17l4 22q0 6 2 18v3q0 8 27 16q5 25 157 45v-2q8 2 13 2q39 0 143 -14l8 4q113 -18 195 -86l47 -68q-2 -27 8 -33l-4 -8q10 -10 6 -51h-4l4 -8l-2 -15 q-2 -8 -6 -14l4 -6q-18 -74 -104 -162q-4 0 -37 -33q-29 -18 -39 -28q86 -16 172 -121q59 -86 61 -205q-2 -18 4 -29q-2 -12 -6 -18l-2 -33q-27 -188 -108 -280q-80 -121 -232 -189q-8 0 -63 -16q-8 4 -13 4q-27 -8 -30 -8v4q-4 0 -4 -4q-49 4 -72 4h-2q-12 0 -18 -4l-23 4 l-55 -4q-4 0 -4 4l-25 -4h-139q-41 0 -41 55q0 11 2 25zM10 96q2 -6 2 -16q4 0 4 4q25 -8 41 -8l19 4l8 -4l6 4q14 -2 14 -8q6 4 35 8v-4l8 4q10 0 25 -4l61 8q23 -4 46 -4q125 18 170 67q104 86 106 115q61 68 70 125q-4 6 -4 10q6 0 16 19q0 4 -4 4l6 16q12 84 16 94 q-8 0 -8 9l6 6q-4 8 -4 10h4q-10 109 -63 176q-49 49 -113 64q-2 0 -2 -2q-45 10 -59 10l-21 -4l2 4q-4 0 -4 -4l-12 4q-54 -8 -74 -8v4q-29 -10 -123 -25h-12l-6 2q0 -8 -53 -16l-17 -101l-2 -36h-2l2 -7v-4q-2 -12 -6 -16l-2 -57l-10 -37q2 -6 0 -10h-2q-2 -33 2 -33 l-6 -19l-7 -28q0 -2 -2 -2q0 -4 2 -4l-4 -19l-4 -33q-2 -4 -6 -4l2 -6v-6q-2 -14 -8 -33l4 -6q-2 -8 -6 -8v-43l-4 -29q-4 -23 -17 -72q8 -2 9 -8q-8 -8 -11 -12q2 -8 2 -12q-8 0 -8 -6q2 -8 2 -13h-4zM121 860q94 20 117 21q4 0 4 -2q57 10 59 20h4l6 -4q88 31 185 96 q51 47 84 94l24 58q1 10 1 19q0 90 -124 134q-8 0 -30 11q-4 0 -5 -4q-23 4 -30 8l-8 -4q-23 10 -89 14q-8 0 -51 -6l2 4q-74 -23 -92 -23v-4q0 -8 2 -14q0 -2 -4 -2l-6 -100q-8 -20 -8 -29q2 -6 2 -14h-4q-2 -4 2 -5q-23 -119 -29 -161l2 -6q-4 -6 -6 -15q0 -8 2 -14 q0 -4 -2 -4l-2 -19z" />
<glyph unicode="C" horiz-adv-x="1095" d="M-10 487q-3 16 -3 46.5t3 74.5l6 8q-4 8 -4 13q4 25 8 24v4l2 19l8 49q33 240 240 506q174 166 319 166q31 4 33 8l19 -4h47q104 -8 182 -31q14 -12 72 -39q23 -25 22 -26l-6 -41q-14 -18 -33 -19v4l-8 -4h-2q-86 59 -246 60q0 4 -14 4q-16 -4 -27 -4v4q-55 0 -159 -41 q-131 -88 -146 -129q-115 -156 -123 -207q-41 -86 -55 -137q-4 0 -4 -4l-4 -33q0 -4 -4 -4l2 -9q-18 -78 -21 -92q-2 -8 2 -14q-8 -20 -10 -35v-2q-2 -20 -2 -38t2 -34h-4q-1 -19 -1 -35q0 -31 3 -49h-4q6 -137 141 -292q129 -96 277 -97q168 0 321 170q10 0 29 17 q10 -4 10 -8l8 4h17l6 -4q0 4 4 4l12 -19q-4 -8 -6 -14q8 0 6 -12l-4 -9q2 -6 0 -10q-104 -111 -166 -137q-72 -39 -102 -39q-16 -12 -94 -20l2 4l-11 -4h-38q-111 12 -121 20l-11 -4q-150 47 -215 117q2 8 -41 41q-116 172 -116 298q0 18 2 35z" />
<glyph unicode="D" horiz-adv-x="1075" d="M-57 72q6 6 6 10l-4 6l6 8l-2 21h8l2 24l-2 19h4q0 14 -8 14l8 10l2 13q2 6 -6 6l4 8l2 10h-6v4h8q4 68 4 82h2q2 39 -6 39l6 6v4h-4v-6q-8 0 -8 6q6 0 14 13v2h-8v8h8l7 35h-13l2 12l8 -4h5l-5 6h5q-2 25 -7 25l2 8l3 8q0 2 -3 39q2 14 13 29q-8 0 -6 10l8 35v24l8 19 q0 4 -4 4l4 16v27v6l4 43l25 166q0 12 8 31l-4 8l6 6l-2 22h4q0 2 -4 2l8 37l4 25q0 4 4 4q2 2 -2 2l23 113q-2 14 0 24l6 15l-4 8q0 2 6 10q0 31 2 49l2 10q0 8 -6 9l6 18l2 6v37q8 49 45 49q2 17 47 25l19 -4q4 0 4 4l24 -4h45q14 0 35 4l6 -4q8 4 17 4v-4l8 4l12 -4l8 4 l7 -4q4 0 6 4q57 -6 57 -11l8 5q4 0 2 -5q4 0 4 5q156 -18 263 -68q186 -125 225 -252q33 -112 33 -183q0 -17 -2 -32q3 0 3 -3q0 -1 -1 -3h-5q2 -23 2 -43q0 -30 -4 -53l-8 -58q-12 -90 -20 -90q0 -4 4 -4l-6 -24q-2 -8 2 -15q-76 -262 -133 -356q-86 -113 -222 -164 q-164 -76 -262 -76l2 4q-20 -4 -20 -8l-19 4q-51 -8 -63 -8h-12l-11 8q0 -8 -8 -8h-14q-8 0 -14 4q-4 0 -7 -4l-24 4h-35q-4 0 -4 4l-8 -4h-19q-8 0 -6 8l-8 -4h-8q-4 0 -2 4q-4 0 -4 -4q-57 4 -58 15l-8 -5q-20 0 -20 58q0 16 2 37zM37 63q-2 -10 188 -20q84 6 90 6l7 -4 q8 4 16 4q4 0 2 -4q49 0 242 82q113 68 149 156q37 100 43 100l-4 6l64 205l-3 6q0 16 21 96l-2 9l6 20q6 39 6 81q0 108 -37 236q-18 47 -59 95q-111 119 -203 129q-41 18 -102 30q-4 0 -6 -4q-59 12 -136 13h-67q-4 0 -2 4l-8 -4h-27l-25 4v-27l-6 -33q0 -8 2 -12 q-2 -8 -4 -12l2 -6q0 -4 -4 -5l2 -14l-8 -35q0 -4 2 -4l-4 -18l-6 -35q0 -4 -4 -4l4 -6l-8 -51q0 -4 -4 -5q2 -20 2 -26q-6 -2 -9 -8v-9q-2 -8 3 -14l-13 -31v-22q0 -4 -4 -10q0 -4 2 -11q-14 -55 -24 -125l2 -8q-4 -6 -7 -14l-6 -43q0 -8 -6 -14q0 -31 4 -31l-6 -19l-2 -20 q-2 -8 0 -16l-8 -19l6 -2l-4 -6q-2 -12 2 -12l-6 -19l-2 -12v-37h-4q0 -4 4 -4l-8 -16v-56h-4l2 -6q-14 -135 -17 -158h-2q6 -18 4 -28h-4l2 -6q-8 -113 -12 -148l4 -14h-4l2 -6z" />
<glyph unicode="E" horiz-adv-x="989" d="M-70 45q4 8 4 12q-2 6 0 11h5q0 4 -5 4l7 24l22 164q2 8 6 14q-6 18 -2 33h4l-4 41q8 6 8 19v22l5 19v22q2 4 6 4l-2 43l6 17l-2 20h4l-4 8l4 4q6 66 8 133h2l-2 9q0 4 4 4l-4 6l6 37q0 4 4 4l-2 6q0 4 4 4q-6 16 -6 23l6 8q-2 6 -2 14t4 8q0 51 2 70q6 6 7 10 q-2 12 -5 12l7 25l8 57q0 8 -2 15q4 6 6 14t-2 14q0 4 4 5v36l4 23q2 8 0 14q2 6 4 17l2 10q2 8 -2 14q4 6 6 15q2 16 2 41l6 20q-2 6 -2 10h4q0 2 -4 2q10 45 15 45q0 4 -4 4l8 25l4 25q0 6 -8 6l8 18l-2 14q31 45 39 46l43 14q31 -14 31 -19l26 5q125 4 146 4v-4l6 4 q4 0 4 -4l8 4l6 -4q8 4 12 4v-4q2 0 2 4q8 0 9 -4l22 4q88 -4 139 -4h21l20 4q16 -8 41 -9h54l16 5v-5q8 4 12 5l8 -5q6 4 15 5l8 -5l6 5l8 -5l23 5q33 -12 31 -37q10 0 10 -9q-14 -8 -29 -38q-10 0 -12 -9h-27l-8 -4l-2 8l-8 -4h-37q-2 0 -2 4l-8 -4l-19 4l-8 -4l-6 4 l-23 -4q-4 0 -4 4l-18 -8q-33 4 -107 8l-8 -4q-4 0 -4 4l-18 -4q-4 0 -11 4q-4 0 -4 -4l-88 9q-45 -4 -90 -5q-4 0 -10 -4q-6 4 -14 4q-4 0 -5 -4l-18 4h-6q-10 0 -16 -4l-9 4q-6 0 -24 -8q-8 4 -17 4h-4q-6 0 -14 -36l2 -9q0 -4 -4 -4q0 -4 4 -4l-6 -16l-6 -33l-6 -25 q0 -2 4 -2l-9 -18l-2 -12q0 -8 2 -15l-4 -8q4 -6 2 -14q-2 -4 -6 -4l4 -6l-4 -37q-4 -12 0 -21l-6 -12q-10 -100 -18 -160v-8q-2 -8 0 -14q-4 -6 -4 -15q-2 -23 4 -22l-9 -19l-6 -53h82q8 0 15 -4q16 8 41 8h22q4 0 2 -4l10 4h37q2 0 2 -4q23 8 97 8h16q8 0 14 4l23 -8l20 4 q4 0 4 -4l21 4h2q20 0 35 -4q49 4 57 8q6 -4 16 -4l19 4q27 -14 37 -41v-4q-4 -4 -19 -10l2 -8q-2 -8 -28 -27q-4 0 -11 4q-37 -2 -38 -6l-19 2h-10q-14 0 -41 -2q-6 2 -10 2q-8 -2 -21 -2l2 2l-10 -2h-20q-4 0 -3 2q-8 -2 -47 -6l-6 4l-18 -4q-4 0 -13 4q-92 -10 -157 -10 q-8 0 -15 -4l-8 4q-8 -4 -12 -4v4l-6 -4q-4 0 -4 4q-51 -8 -70 -8l-2 -4q-5 -60 -5 -89.5t5 -29.5v-4h-8l-12 -88v-27h-5l5 -6l-5 -31v-18h-4l4 -6q-2 -4 -6 -4l2 -19v-4q0 -4 -4 -4l2 -6q0 -4 -4 -4l2 -8l-2 -15q-2 -16 -2 -41q-4 -8 -4 -10l2 -18l-6 -9q0 -4 2 -12 q-6 -18 -8 -33v-10q-4 -8 0 -14q-4 -8 -6 -17v-6q0 -8 6 -8l6 4l8 -4q6 4 10 4v-4l9 4q4 0 4 -4l8 4q10 0 10 -4q41 8 86 8q47 0 78 -8q25 4 39 4h37q10 0 14 -4l8 4q8 0 41 -4l33 4l8 -4q4 0 4 4q37 -4 37 -6q20 6 62 6v-4l8 4h41q4 0 4 -4l6 4h23q4 0 4 -4l8 4q6 -4 10 -4 t4 4l19 -4h8q12 0 33 4q12 0 32 -31q-4 -25 -22 -32q-4 -27 -35 -27l-6 4l-21 -6q-23 2 -39 2h-32q-4 0 -4 4l-9 -4q-20 0 -51 4q-66 -4 -106 -4q-4 0 -13 -2q-37 2 -36 6l-25 -4h-127q-4 0 -4 4l-6 -4h-68q-18 0 -55 -2v2q-20 -6 -27 -6v4l-8 -4h-2q-10 0 -16 4 q-6 -4 -35 -8v4l-6 -4q-25 4 -56 55z" />
<glyph unicode="F" horiz-adv-x="925" d="M-49 53l8 74q2 8 0 16q4 6 6 15q0 4 -4 12l6 6l-2 19l6 8q-4 6 -2 14v6q2 4 6 4l-4 9l6 40q2 23 7 74h4l-4 6q17 182 17 213q0 6 -1 6l2 9q-2 6 -2 10h2v10q4 39 8 150h4l-2 8l8 61q2 8 7 15q2 4 -2 4l6 18v12v19h4q0 4 -4 4l6 16l6 45q0 8 -2 17q6 10 10 10q-4 18 -4 29 l8 26l-4 15l8 8q-4 6 -4 14h4l-2 8l15 93l-2 20l4 8q4 43 16 164q23 55 29 55q4 0 4 -4l18 4h13q8 0 14 -4q6 4 14 4v-4l8 4q55 0 129 7v-3q23 6 97 11q2 0 2 -4l18 4q39 0 203 12h70q4 0 2 -4q4 0 4 4q31 -8 82 -8h28q64 0 64 -38v-7l6 -11v-4q-10 -37 -41 -36 q-193 8 -225 8q-4 0 -13 -4q-6 4 -14 4l-18 -4v4q-43 -12 -144 -13h-63q-8 0 -15 -4q-4 0 -4 4q-6 0 -28 -8q-4 0 -4 4q-82 -6 -146 -6v-4q-2 -8 2 -14q-6 -6 -6 -17v-10q-4 -6 -4 -14v-31h-2q2 -6 2 -10l-6 -8q4 -18 4 -27l-4 -6l2 -6q-4 -8 -6 -17q4 -6 2 -10h-4l4 -8 l-4 -33q-2 -4 -6 -4l4 -6l-8 -49q0 -10 2 -10l-7 -21l-12 -84q0 -8 2 -14q-4 -6 -6 -17v-6q-2 -10 2 -10l-6 -21l-8 -55l8 4h106q4 0 5 -4l6 4h4q4 0 4 -4l6 4q8 -4 12 -4q6 4 11 4v-4l8 4q4 0 4 -4l8 4l25 -4q4 0 4 4q31 -8 80 -8h4q4 0 4 -2l8 2q2 0 2 -2q4 0 4 2l27 -2 h47q10 0 10 2l21 -2h43q20 0 53 2l6 -2l8 2q51 0 51 -61q-27 -37 -63 -37q0 8 -8 8h-7q-12 0 -12 -4q-4 0 -10 4q-104 -4 -137 -8q-47 4 -56 8q-4 0 -4 -4q-39 6 -106 6v4q-2 0 -2 -4q-37 4 -58 4h-28l-23 -4q-6 4 -18 4h-4q-8 0 -15 -4q-6 4 -14 4l-14 -4q0 4 -4 4 q-2 -6 -9 -6q-10 -240 -24 -360q0 -4 2 -11q0 -4 -4 -4v-18l-6 -41l2 -23q-4 -8 -4 -10v-8l-4 -6v-31h-5l5 -6l-17 -121v-16h-4l2 -9v-4q0 -4 -4 -4l2 -6l-2 -27q-4 -29 -39 -36l-2 -4h-2q0 8 -2 8q-6 -4 -10 -4q0 8 -8 8q0 -6 -13 -12q-19 0 -19 37q0 15 3 36z" />
<glyph unicode="G" horiz-adv-x="1064" d="M-29 475q0 4 4 4v8l5 7l-3 16l5 6q-6 12 -7 19h5v8q0 4 4 4q0 8 -4 8l12 43l8 70v4v8v2q4 41 12 82v18q6 25 11 49l2 11q0 4 4 4l-4 8q10 33 14 33q0 4 -4 4q10 37 14 37l-2 8q4 14 12 29q-4 0 -4 4q6 0 33 80q47 100 102 159q57 90 156 138q88 55 121 55q0 18 184 41v-4 l8 4q156 0 246 -60q0 -6 19 -32q-4 -31 -39 -50l-23 5l-10 -5q2 20 -98 50q-57 10 -76 10q-8 0 -8 -4l-23 4q-41 0 -119 -10v4q-162 -55 -206 -113q-139 -152 -154 -217q-12 0 -57 -182l-11 -64q0 -2 -4 -2l2 -8q-4 -6 -4 -10q2 -8 2 -13q-8 0 -10 -6q4 -8 4 -12q-4 0 -4 -2 q8 0 6 -12l-6 -8q0 -2 4 -3q-8 -33 -12 -40q0 -20 -2 -33l-6 -35l-7 -23q2 -14 7 -14l-9 -18l-2 -29q-1 -7 -1 -26t1 -50l-4 -6q10 -127 51 -229q31 -72 84 -97q14 -10 70 -26q0 -6 37 -6h55q8 0 17 4q4 0 2 -4l53 10v-4q106 27 147 78q4 0 39 36q55 53 90 119l23 56v8 l22 73l5 29q0 4 4 4l-2 8l2 15q0 4 4 4v37q0 4 2 4l2 37l4 28l-2 9q-41 -8 -49 -9l-23 4l-8 -4q-2 0 -2 4l-20 -4h-52q-8 0 -14 4q-6 -4 -14 -4h-23q-4 0 -4 4q-4 0 -4 -4l-19 4h-59q-4 0 -2 5l-8 -5l-23 5q-8 -4 -12 -5l2 5l-8 -5h-51q-31 14 -49 46l6 20l2 16q4 0 32 15 q4 0 27 -4l10 4q4 -4 9 -4q4 8 10 8h18q8 -2 4 -8q8 0 11 4l63 -8l8 8q8 -4 8 -8l7 4q4 0 4 -4q14 8 20 8q0 -8 6 -8q6 4 11 4h12l2 4h10q8 -2 6 -8l31 8q4 -4 8 -4q43 8 45 8q8 -8 19 -8h4l18 12h23q43 0 57 -8l8 4q41 -6 37 -15l-4 -8q10 0 16 -14h-4l11 -23 q-10 -14 -13 -28q2 -8 2 -13h-4l4 -8l-2 -4l-6 -16q6 -2 6 -8q0 -4 -4 -5q0 -4 2 -4q0 -6 -4 -6q-2 -74 -6 -96l-18 -45l4 -6q-6 -20 -11 -21l4 -6q-14 -35 -16 -35q-2 -2 2 -2q-10 -98 -182 -270q-113 -88 -189 -88q-2 -10 -139 -16v4q-4 0 -4 -4q-33 4 -33 8l-8 -4 q-127 27 -186 90q-45 57 -62 112q-6 0 -14 35q4 0 4 2q-4 2 -20 82q-4 0 -4 4q4 4 8 4q-13 42 -13 143v15q-4 0 -4 4z" />
<glyph unicode="H" horiz-adv-x="1040" d="M-43 37l6 6q-4 6 -4 14h4q2 4 -2 4l6 19l-2 6q4 8 4 16l-2 15q4 4 6 4l-2 18l9 56q0 8 -3 14q0 4 5 4l-2 18l8 56v18h4l-4 8l4 27v20q4 8 6 17q-2 18 0 29h2l-2 8l2 6q0 18 2 55h4q-2 10 0 45h2l-2 8v7q0 4 4 4l-2 8q10 98 19 155l-4 7q6 6 8 18v23q4 14 6 28l-2 17h4 l-4 6l8 41q0 8 4 14q-2 8 -2 12h4l-2 6v17l4 45h4l-2 6v6q0 4 4 4l-2 9q8 57 8 129h5v36l4 9v18q0 4 4 4v51q4 6 4 15v26h4l-2 8l4 33q2 29 6 78q4 27 49 33h27q23 -12 14 -55l-4 -33v-19q-2 0 -4 -4l8 -4l-6 -6q-9 -94 -9 -121q0 -9 1 -10q-2 -2 -6 -2l-6 -135q-2 -2 -6 -2 q-1 -28 -1 -45t1 -23q-6 -6 -7 -14v-4v-19h-4q0 -23 4 -22l-4 -19l-4 -10q0 -12 2 -18l-6 -21q-4 -59 -10 -90l8 2h90q8 0 12 -2q10 2 15 2q125 4 157 4q2 0 15 4q8 -4 18 -4h13q12 0 32 4l8 -4l7 4q20 -4 32 -4t13 4l24 -4h64q4 0 4 -4l6 4h16q4 0 4 -4l7 4h12l22 -4l7 4 l16 -4q18 4 29 4q0 4 -4 4l20 88q-2 6 0 19l2 8q2 4 -2 4l6 18l4 33q6 33 19 101q4 0 6 4l-8 2q6 18 10 18l-2 8v4q2 10 6 11l-2 18l2 19q2 4 6 4l-4 8l8 65q6 42 6 65q0 14 -2 21q8 20 11 33l2 31q4 6 0 14q4 6 6 15l6 36q8 18 39 19h8q37 0 37 -52q0 -13 -2 -30 q0 -2 -4 -2l2 -21q-2 -16 -17 -161h-4l4 -9l-12 -77q-12 -94 -31 -170q0 -4 2 -11q-6 -20 -8 -32v-5q-2 -12 0 -18q-6 -12 -20 -104h-4l4 -7l-4 -16q0 -4 -4 -4q-2 -2 2 -2l-7 -18l-6 -50q-2 -8 2 -14l-4 -6q-20 -123 -30 -191l-11 -65q-2 -23 -4 -60q-4 -6 -6 -26l2 -6 l-4 -8q-4 -76 -5 -143q0 -22 1 -44q-31 -29 -49 -29h-15q-4 0 -4 5l-8 -5h-6q-4 0 -14 19v4l2 6q-6 0 -11 53q0 4 5 4q0 55 2 66h4q-2 7 -2 20q0 18 4 48l45 315q0 2 4 2q0 4 -4 4l8 37l4 33q2 8 -4 8q-10 0 -10 -4l-21 4h-65q-4 0 -4 2q-4 0 -4 -2l-43 2h-41l-23 4 q-2 0 -4 -4l-16 4l-27 -4v4l-8 -4h-13q-12 0 -30 4q-8 -4 -17 -4v4l-8 -4l-12 4q-8 -4 -12 -4v4q-41 -4 -41 -6q-8 2 -13 2q-45 -2 -47 -2v2l-8 -2h-106q-4 0 -5 2q-4 0 -4 -2l-18 2h-6l-8 -2l-5 -72l-4 -6q4 -6 2 -10h-4q4 -8 2 -12q-25 -215 -25 -271q0 -10 1 -14 q0 -4 -4 -4v-19l-13 -96q0 -8 2 -14q-2 -4 -6 -4q-2 -43 -4 -64l-8 -51q-10 -12 -31 -18q-6 4 -14 4q0 -8 -6 -8q-29 23 -37 57z" />
<glyph unicode="I" horiz-adv-x="262" d="M-90 35l4 24q2 8 0 15l4 6l12 108q0 4 4 5q0 39 15 108q4 -2 4 2q-8 0 -6 8l4 6q-2 8 0 13l4 6q-4 6 -2 10l4 8v15h4l-4 6l14 69q4 14 4 27q4 14 9 31l2 20q4 8 2 15l4 8q0 4 -4 4l8 16l-2 19h4v6q0 4 2 4l-2 6l2 23q0 4 4 4q-2 6 -2 10q20 135 25 162l2 18l4 6 q2 45 2 51q2 4 4 3q4 51 10 73l21 101v20q6 6 6 19l2 18h2l-2 6q0 4 4 4l-2 8l2 11q5 26 5 45q0 15 -3 26q6 6 8 15l-2 14h4q-4 14 0 41l2 10q2 6 6 12q0 10 4 56l7 6l-2 22l45 17l22 -2q17 0 17 -70v-8l-5 -25l7 -10v-4q-2 -8 -9 -14l2 -8q0 -2 -4 -3l-10 -155l-6 -6v-23 v-6q-2 -4 -6 -4l4 -6l-8 -37q0 -4 -4 -4l2 -6l-2 -11q0 -4 -4 -4l2 -8l-9 -35q-18 -98 -34 -233h-2l2 -6l-2 -8q0 -4 -3 -5v-8l-6 -30l-2 -25h-4l2 -8q0 -4 -4 -4l2 -7q0 -4 -4 -4l2 -8l-41 -207l-2 -43h-4v-8l-6 -47q-4 -10 -4 -31l-6 -8q-16 -135 -19 -213q-4 -6 -6 -8 l2 -8q-10 -25 -31 -35l-28 2q-2 0 -2 4l-8 -4q-14 0 -27 35z" />
<glyph unicode="J" horiz-adv-x="1095" d="M-43 432q4 6 6 17q-6 0 -6 6l12 94q35 102 62 102l8 -4q6 4 10 4q27 -23 29 -63l-6 -2l2 -8v-13l-11 -10q4 -6 3 -10h-5q4 -8 2 -13l-8 -32q4 -8 4 -13h-4l4 -14l-4 -6q10 -215 31 -215h-4q27 -92 102 -123q35 -20 174 -37q4 0 4 4q8 0 15 -4q135 0 237 68q74 39 123 133 l41 74q-4 6 -2 14q16 23 33 78q-2 8 -2 10q4 31 10 31q0 4 -2 4q10 23 33 133q0 18 2 37q0 2 6 22q0 2 -2 2l6 21v29q4 8 4 12h-4l8 6l-8 10q8 8 17 41q0 20 2 35l6 33q0 4 4 4q-4 6 -4 10q2 4 6 10q2 23 -10 23l4 8l8 -4v8q-4 10 -8 10l6 9l2 14v14l2 8q0 14 -6 25 q4 8 4 12q-8 0 -6 6t12 13q0 4 -4 4q2 4 6 10q0 57 12 129q-5 0 -5 31q0 37 7 119q-6 0 -4 32q27 29 64 29q18 -16 20 -33q10 0 13 -37q2 0 2 -4l-11 -37l2 -14l-4 -6q4 -16 4 -67q0 -34 -2 -83l-8 -22q-2 -18 -2 -70h-4l4 -30q-4 -6 -4 -15v-37l-8 -61q0 -4 -4 -4l4 -27 q-8 -41 -12 -41v-8q0 -2 -4 -2q0 -41 4 -41l-9 -18l-8 -68q-2 -8 0 -14q-4 -6 -4 -15l-6 -41q-10 -74 -16 -73v-9l-4 -8q0 -6 2 -6q0 -8 -23 -86l4 -6q-45 -137 -113 -242q-111 -113 -200 -141q-2 -14 -172 -43h-33q-4 0 -4 4q-4 0 -4 -4q-254 33 -250 55q-92 31 -137 150 q-23 72 -31 227z" />
<glyph unicode="K" horiz-adv-x="1075" d="M-98 33l2 10q0 4 4 4l-4 8l12 88v25q4 4 6 12l-2 8q4 6 4 17v12h2q0 4 -2 4l6 21q37 217 45 270v2q0 4 5 4v6v8l6 27l-6 2l4 8v4q12 86 12 116v7q4 6 4 15v4q0 8 -2 14q2 6 2 10v13v8q4 6 4 10q-2 0 -2 2h2l-2 8l2 23q0 4 4 4v6q0 4 4 4q-2 18 -6 19l6 26l8 56q0 4 5 4v8 l4 51l2 23l4 6q-2 8 -2 12h4l-2 6v8q2 12 6 19v22v2q4 20 8 35q6 62 6 138v38h4l-6 21q2 4 6 4v24v15q4 0 23 22q4 0 16 13l8 -5l5 7q29 -2 57 -39l-2 -4q0 -4 -2 -5q2 -12 6 -12l-8 -16l2 -17l-4 -8l4 -51q-2 -2 -4 -2v-49h-4q2 -8 2 -21q0 -26 -8 -75l-9 -64q-2 -8 -6 -14 q2 -6 2 -15l-12 -81q0 -8 2 -15q-4 -8 -6 -14l-8 -72q0 -4 -4 -4v-6l-9 -72q0 -6 6 -6q0 6 58 41q123 94 235 170q168 119 398 311q6 0 55 47q14 12 20 13q4 35 91 41q16 0 22 -45q-4 -33 -70 -74q-313 -262 -360 -297q-43 -35 -131 -88l-231 -170v-4q78 -59 344 -299 q8 0 163 -160q121 -86 162 -141v-19q-4 -23 -45 -49h-24q-27 0 -86 64q-76 57 -193 182l-195 176q-102 88 -141 131l-74 51q-8 -4 -12 -4q2 4 -2 4l-4 -24v-21h-2q0 -4 2 -4l-6 -16v-4q0 -8 4 -17q-8 -6 -8 -12l-2 -12q-2 -12 2 -13l-4 -18q-18 -92 -21 -111l-4 -6 q-2 -4 2 -4l-6 -14q0 -8 2 -17q-4 -18 -8 -32v-11v-18h-4q0 -4 4 -4l-8 -27l-13 -96q-4 -8 0 -14q-4 -6 -6 -15l-2 -12l4 -18h-4v-7q-10 -53 -24 -53q0 4 -4 4q-2 -10 -11 -10v2q-12 -6 -20 -6q-33 12 -43 33h-4z" />
<glyph unicode="L" horiz-adv-x="940" d="M-70 76q8 53 17 162h4q-4 8 -4 12q10 78 47 350l-2 27q8 8 8 12q0 2 -4 2l4 18l8 86q4 8 0 15q4 6 6 14l2 23v14l4 8l-4 6q8 23 9 31q0 4 -5 4l9 19q31 190 30 194l4 8q-4 8 0 13q0 2 5 2l-2 18l6 45q0 8 -2 15l14 32l-2 25q0 4 10 49l-4 8q14 96 49 96q19 1 19 9 q35 0 51 -64q-18 -68 -23 -96l4 -6q-4 -8 -6 -13q-4 -59 -6 -65l-6 -16q4 -10 6 -11l-6 -26l-4 -33v-19l-6 -4q-25 -133 -33 -202l-12 -86v-27h-4q0 -2 4 -2q-10 -37 -13 -55l-16 -113l2 -16h-4l2 -9q-16 -147 -18 -170q0 -4 2 -12l-7 -20l-4 -17q-8 -55 -8 -82q0 -14 2 -20 l-6 -8l4 -6l-6 -9l4 -63l-6 -6q4 -8 2 -17h27q12 0 12 -4l16 4h90q4 0 5 -4l6 4h14q4 0 4 -4q4 0 4 4q74 4 111 4h31q2 0 2 -4q4 0 4 4l125 -10l22 2q37 -2 60 -2q27 0 100 6v-4l8 4h14l21 -16q6 2 10 2q14 -27 23 -27q-14 -45 -29 -59l-4 4l-12 -6h-4q-4 0 -5 2 q-43 -4 -108 -10l-21 4h-73q-4 0 -4 4l-9 -4h-8q-2 0 -2 4l-8 -4q-20 0 -66 6q-4 0 -4 -2l-18 2h-45q-8 0 -12 4l-11 -4l-12 4q-8 -4 -12 -4t-2 4l-21 -4h-209q-29 0 -73 -2q-27 0 -37 51q-6 0 -15 27z" />
<glyph unicode="M" horiz-adv-x="1153" d="M-109 47v6q4 4 9 4l-4 9q6 20 8 28q0 4 -4 12q8 10 10 11q0 4 -2 4q6 39 10 49v6q12 14 25 92v4q0 8 6 15q-2 8 -2 14l4 27q0 4 4 4l-4 8q31 84 55 207l2 8v16h4q0 4 -4 4q12 29 17 70l4 27q0 8 8 14q-4 8 -4 12q2 10 10 29q0 4 -2 4l6 19l16 114q2 25 9 47q0 14 4 41v13 q4 8 8 14q0 4 -4 4l6 27v6v22q6 14 10 15q2 33 -2 32q6 18 29 132v18q0 2 4 2v27l4 41l8 22q0 4 -4 4l6 19l2 18q9 0 52 23h4q41 -37 43 -37q8 -39 86 -160q6 -2 43 -82q43 -59 184 -244q168 162 307 344q0 6 41 52q35 59 103 104q16 10 28 10q39 -19 39 -72q0 -11 -2 -24 q4 0 4 -55h-4q3 -5 3 -25q0 -27 -5 -80h-4l2 -32l-4 -7q2 -8 2 -12h-4l4 -6l-4 -35q-4 -8 0 -14q-4 -6 -6 -15q0 -8 4 -8l-6 -18l-4 -23v-16h-5l5 -8q0 -4 -5 -4l5 -9l-5 -10q-2 -23 -10 -155h-4l4 -29q-8 -35 -10 -35q-4 -4 0 -4q0 -2 -4 -10v-51h-4l4 -9l-4 -24 q0 -10 4 -17q-4 -4 -8 -4l4 -16q-12 -82 -31 -381q-4 0 -4 -4q9 0 9 -79q0 -26 -1 -62q-39 -41 -51 -41l-18 -4q-37 23 -37 51v6l16 418q4 2 6 2l-2 18l6 27q-2 8 -2 10q4 4 6 4l-2 19l2 4q2 20 7 106q0 4 6 12q-2 6 -2 11h4l-4 8l4 18q0 4 4 4q-4 4 2 60h2q-2 8 -2 41h4 l-2 6l2 14q0 4 4 4q-6 12 -6 19q16 131 20 178q-2 6 0 10h5l-5 8q2 4 5 4l-3 7q8 75 8 93q0 5 -1 5l4 6q-4 16 -2 33h-9q-2 -10 -77 -107l-103 -118q-63 -57 -112 -119q-8 0 -29 -33q-70 -68 -109 -68q-27 0 -110 142q-66 80 -133 174q-55 106 -70 127l-8 -37l-6 -41 q-2 -16 2 -16l-8 -25l-25 -168q0 -8 -4 -14q2 -6 2 -15h-4l4 -8l-12 -45q0 -2 4 -2l-8 -14q-14 -84 -21 -127l-4 -15q0 -4 2 -4q-16 -66 -25 -118h-4l4 -7l-4 -18q0 -4 -4 -4q0 -4 4 -4q-12 -68 -41 -166l2 -8l-8 -33q-2 -12 0 -27q-8 -33 -10 -55l-4 -27q0 -2 -4 -2l4 -8 q-6 -14 -12 -14q0 -4 4 -4q-12 -55 -21 -64q8 0 6 -10l-6 -8l4 -6q-20 -57 -24 -58q-29 -6 -35 -6h-35q-16 12 -29 41z" />
<glyph unicode="N" horiz-adv-x="933" d="M-111 47q25 113 64 215l10 86q2 8 6 14q-2 6 -2 15l2 4q8 8 19 47q0 4 -4 4l6 19v4q0 8 -2 14l12 23q25 141 35 163q-2 20 0 29h4l-4 8v4q2 2 6 2l-4 9l2 4q0 4 4 4l-2 8v2q2 8 8 8q0 2 -4 2q23 109 35 201l10 74q2 8 6 14l-2 8q4 6 4 15v8q14 37 27 119q0 4 4 4 q0 2 -2 2q10 41 18 86l9 51q0 4 4 4l-4 6l4 16q0 16 37 41h8q4 0 2 -4l8 4q98 -20 92 -49q6 0 80 -98q57 -96 137 -215q53 -111 156 -242v4q0 4 -4 4l6 19l-2 14h4v8q20 236 37 351l6 18q-4 6 -2 19l6 45q0 8 -2 16l6 6q0 2 -2 23q2 4 6 10q-2 20 2 35v6q29 59 56 59 q54 -9 54 -44q0 -4 -1 -7l-6 -8q0 -23 4 -23l-4 -18l-4 -23v-37h-4l2 -6l-7 -18q0 -4 5 -4l-9 -27l-4 -24v-17q-4 -6 -4 -14q-2 -8 2 -14l-6 -9q0 -4 4 -4l-8 -24q-12 -174 -16 -197q4 -6 4 -10h-4l4 -8q-4 -4 -9 -4l5 -19l-9 -55v-37h-4q1 -12 1 -34q0 -46 -3 -136 q-4 -4 -8 -4l4 -19l-6 -41v-36h-4l2 -9q0 -2 -4 -2l2 -8q0 -4 -4 -4l-4 -135l-6 -8l-5 -88h-4q0 -4 4 -4l-6 -21q2 -6 2 -10h-4q4 -6 4 -10q-6 -61 -8 -68h-4q2 -6 4 -33h-4q6 -14 4 -22h-4l2 -6l-8 -13l2 -8q-14 -47 -27 -47h-82q-8 2 -14 18q12 27 16 52v8q12 85 12 123 q0 12 -1 20l8 4q0 4 -2 4l4 19v14h2q-2 10 -2 45l6 8q-4 29 0 62h4l-2 63l6 19q11 68 11 104q0 43 -15 43q-61 119 -61 123q-49 51 -88 129l-193 299q-55 100 -65 100q-29 -131 -47 -194q0 -4 4 -4l-11 -37l-6 -45q0 -4 -4 -4l2 -6l-8 -64q0 -8 2 -14q-23 -84 -35 -160 q0 -4 -4 -10q4 -8 0 -17l-2 -20q0 -4 -4 -4l2 -8v-11q-16 -119 -39 -178q-4 -4 0 -4l-4 -18l2 -8q-4 -8 -24 -80l8 -4l-8 -19l-9 -51l-8 -45q4 0 0 -4q-6 0 -43 -133q2 -14 0 -27l-4 -6l2 -8l-4 -6q2 -8 2 -13q-35 -45 -63 -45l2 4l-11 -4h-6q-31 20 -35 37z" />
<glyph unicode="O" horiz-adv-x="1110" d="M-8 596h2l-2 6l8 49q0 12 -4 19l4 22q16 106 33 180q0 4 -4 5l8 18l2 27q2 4 4 4q0 2 -2 2q45 164 100 246l-2 6q49 109 127 163q59 63 101 66q2 0 22 8v-4q29 14 100 14q6 -4 11 -4q0 6 14 17q4 0 4 -4q15 2 17 8q4 0 10 -4q61 4 96 4h23q59 0 92 -31l2 4 q53 -10 102 -51q61 -33 113 -178q20 -70 18 -76q-6 -6 -6 -10q6 0 10 -60h-4q6 -28 6 -58v-15h-4l2 -6v-9q0 -4 -4 -4l2 -8v-6q-2 -4 -6 -4q4 -4 4 -41h-4l2 -6v-4l-6 -9q6 0 6 -8l-2 -10h-6l2 -18q-2 -4 -4 -5l2 -6l-2 -12q0 -2 -4 -2l4 -8v-4q-2 -4 -6 -4l4 -7l-2 -4 q0 -12 -4 -12v-18l-8 -56h-9q0 -12 2 -18q-37 -137 -59 -197q0 -2 2 -2q-12 -41 -16 -41q0 -4 4 -4q-59 -150 -92 -207q-59 -84 -86 -106q-123 -109 -232 -137q-29 -12 -78 -17q-16 4 -14 8q-2 0 -4 -4q-211 33 -207 56q-141 115 -166 270q-17 168 -17 262q0 19 1 35z M80 598q8 -233 35 -350q20 -59 71 -115q54 -67 138 -67h2q0 -4 69 -11q80 0 219 107q76 76 105 137l6 4v10q18 45 23 49v9q12 0 47 133q14 0 63 235l10 52q0 4 -2 12q8 25 8 41l9 41q0 4 4 4l-4 29l4 8q2 33 0 39l4 8v22q4 0 4 4q-8 0 -6 7v16l6 6q-6 0 -16 105 q-2 0 -43 102q-10 2 -17 22q-41 49 -160 78q-8 0 -6 8l-6 -4q-23 2 -22 7q-4 0 -4 -3l-46 3h-24q-21 -11 -33 -11l-4 4q-170 -43 -172 -55q-12 0 -82 -72q-68 -125 -121 -276v-8q-6 -27 -10 -27q0 -2 2 -2q-6 -41 -10 -41q-2 -4 2 -4l-6 -18l-8 -60q0 -8 -9 -14q4 -6 4 -10 l-8 -27q0 -4 4 -4l-8 -19l-10 -84l2 -20h-4z" />
<glyph unicode="P" horiz-adv-x="925" d="M-63 49q2 4 4 4l-2 8l2 15q0 2 4 2v8l8 80q2 6 0 12q0 4 4 4l-2 19l2 4q0 4 2 4l-2 6q10 131 18 182l7 39v23q0 4 2 4l2 24l4 39v19h4q0 4 -4 4l6 16q0 8 -2 15l6 22q0 2 -2 2l2 19l2 8q0 10 -2 10l6 18l4 31q0 8 -2 17q4 6 6 14v2q2 8 -2 14l6 8q-4 6 -4 15q2 4 6 4 l-4 6l4 29q6 40 6 67q0 10 -1 19l6 8q-2 4 -2 12q4 0 4 4l-6 4q10 33 12 33q-2 6 -2 10l6 19q-2 12 0 29h4l-4 6l12 80l-2 20q6 6 6 10l-2 23h4q2 4 -2 4q0 4 4 10l3 33l6 12l-4 8q4 6 6 15q0 4 -2 12l6 20q2 8 -2 15q6 6 6 14q2 8 0 14q0 4 4 5l-2 18l4 31q2 18 21 22 q6 31 65 35q0 10 82 14q4 0 2 -4l41 9q6 -4 10 -5l23 5v-5l6 5h18q51 0 88 -9l9 4l53 -10l6 2q160 -25 211 -82q70 -51 102 -139q10 0 11 -96h-2l2 -6l-7 -47q-18 -131 -176 -267q-74 -55 -159 -82q-88 -39 -269 -39l-8 5q-6 -4 -10 -5v5q-4 0 -4 -5l-97 11q0 -4 -4 -4l4 -7 l-4 -14q-2 -10 -4 -10v-19l-6 -38q0 -4 -2 -5l2 -8q-2 -14 -18 -159q-2 -18 6 -19l-8 -18q-15 -124 -15 -157q0 -11 2 -11q-2 -4 -6 -11q2 -25 0 -40q0 -2 -4 -3v-8l-2 -24q-2 -25 4 -25l-6 -18l-4 -31q-16 -25 -76 -41q-31 12 -24 45q-4 0 -4 4zM117 764q-2 -10 119 -19 q240 16 241 35q135 49 141 90q47 37 105 154l2 29q4 8 6 14q-2 8 -2 12h4q-2 88 -35 140q-4 0 -22 24q-43 55 -187 82q-74 4 -116 14l-66 -8v4l-8 -4l-6 4q-6 -4 -14 -4v4l-9 -4h-53l-18 -2v2q-14 -2 -17 -20q0 -6 2 -6l-6 -19l-4 -33q0 -8 2 -14q-4 -6 -6 -14q0 -8 2 -15 q-2 -8 -4 -8q-2 -35 -4 -51l-6 -43q0 -4 -4 -4l2 -8v-6q-2 -4 -4 -5l2 -6l-4 -30q-2 -6 2 -15q-6 -6 -7 -10q0 -10 2 -16q-8 -27 -10 -41v-11q-2 -8 -2 -14l-2 -6l2 -14q-2 -4 -4 -4q0 -37 -8 -115z" />
<glyph unicode="Q" horiz-adv-x="1173" d="M0 573q0 4 2 5l2 67h4l-2 6q6 78 10 109q12 25 27 78h-4q14 47 18 47l-2 8q8 14 66 143l-4 8q104 223 149 244q76 92 164 123q0 8 72 27q4 0 2 -4l8 4h27q8 0 14 2q6 -2 10 -2q2 10 60 16h4l20 -4l8 4q6 -4 11 -4l6 8l96 -20q18 -2 84 -62q88 -82 121 -162 q41 -86 55 -202q12 -102 12 -182q0 -56 -6 -101l-6 -41q-2 -6 2 -14q0 -2 -4 -2v-21l-4 -41q-27 -184 -47 -184v-18q-4 0 -21 -37l2 -6q-100 -201 -174 -256l-14 -17v-6q84 -147 98 -164q0 -6 23 -47q2 -6 2 -10h-4q8 -25 8 -35l-29 -29q-14 -12 -22 -12v4q-8 -4 -13 -4 q-43 25 -79 105l-68 124q-6 4 -14 5q-4 -10 -142 -56l-8 4q-14 -8 -41 -8h-49q-84 0 -96 12l-8 -4q-129 53 -195 121q-6 0 -63 94q-49 102 -52 189q-8 59 -12 184q-4 0 -4 14zM92 571q6 -59 8 -174q8 0 11 -86q57 -176 149 -221q96 -37 160 -37q6 2 10 2l14 -2 q178 33 183 60q8 0 8 4q-37 96 -111 190q-33 55 -32 64l2 4q29 45 61 45h14q23 -18 58 -86q70 -78 92 -148q51 45 104 148q68 121 76 192q0 4 -4 4l6 19l6 33q0 4 4 4l-4 8q6 14 11 14l-3 6l5 23q0 4 2 4q-4 20 0 41h4l-4 6l10 72v24h4v31q0 154 -18 244q-51 160 -111 215 q-81 65 -126 65h-1q0 4 -10 4h-95q-162 -27 -217 -83q-94 -94 -137 -205l-90 -217l2 -9q-16 -51 -33 -114l2 -6q-4 -8 -4 -13v-11q0 -28 -6 -114z" />
<glyph unicode="R" horiz-adv-x="827" d="M-84 47l2 27q4 12 0 12l6 18l6 54v18h4l-2 8l9 58q0 4 2 4v10q0 4 4 4v19l6 40q0 4 2 5q0 4 -2 4q8 43 12 43q0 4 -4 4l6 18q2 4 -2 4l6 19l13 88q2 12 0 33q6 4 8 18l-4 6l6 8q0 2 -4 2l8 27v8q0 8 -2 15q4 8 4 12l-2 16l6 19q0 4 -4 4l8 24l15 111q2 14 2 31q4 12 6 26 l8 58v24h4l-2 6q23 219 35 305l6 15q0 4 -4 4l8 18v4q0 10 -4 11q14 98 51 98q12 12 131 18l6 -2q4 0 4 2q195 -18 312 -61q86 -41 112 -162l11 -88q-6 -6 -7 -14l3 -6q-68 -188 -160 -265q-113 -92 -271 -129l-6 5q-41 -12 -55 -13v4q-6 -4 -18 -4l110 -123 q141 -211 189 -305q115 -186 112 -209l-2 -16q-14 -31 -39 -39h-10q-2 0 -2 4q-14 -6 -25 -6q-10 2 -106 174q-133 233 -207 328q-74 88 -125 135v4h-6l-16 -125v-18h-5l5 -9q0 -2 -5 -2v-8l-4 -37q0 -4 -4 -4l4 -6l-4 -27l-12 -43h4q-6 -25 -8 -24q0 -4 2 -4l-8 -27v-4 q0 -10 2 -10l-6 -19l-13 -79q0 -10 2 -17l-4 -6q-2 -24 -2 -39q0 -25 6 -25q-2 -4 -6 -10l-2 -37q-20 -69 -56 -69h-1q-14 4 -21 18q-14 0 -14 8l8 7q-8 0 -8 8q4 8 4 10q-8 0 -6 6zM104 780q4 0 11 -2q156 0 264 56q115 45 182 159q2 4 -2 4q27 37 45 88q3 19 3 37 q0 78 -50 127q-121 59 -209 60q-55 14 -106 14l-9 -2q-6 2 -14 2h-14l-27 -2q0 2 -2 2q-10 -18 -18 -78v-8q-2 -4 -6 -4l4 -8l-2 -6q0 -4 -4 -5l2 -8v-4q0 -4 -5 -4l3 -6l-11 -78v-20q0 -4 -4 -4v-56l-4 -8q-4 -61 -4 -70q0 -4 -2 -4l-2 -34z" />
<glyph unicode="S" horiz-adv-x="897" d="M-53 305l2 19l2 36q29 29 43 29q51 -9 51 -51v-6h-2q35 -182 119 -226q33 -16 176 -36q109 0 184 57q92 63 107 162q5 36 5 68q0 113 -61 192q-10 33 -92 90q-10 12 -123 84q-135 125 -161 209q-43 59 -52 180q4 0 7 4q-8 0 -9 6l4 29q2 8 0 16q0 10 13 11l-6 10 q12 94 116 168q18 31 189 100q89 14 112 14l-4 -4l11 4q109 -10 143 -32q94 -59 129 -166q-1 -12 -1 -23q0 -22 3 -43q-6 -6 -6 -14q4 0 4 -4q-29 -33 -49 -33q-40 0 -40 37q0 6 1 14q-14 74 -51 90q-29 47 -95 70q-10 0 -67 2q-111 0 -260 -119q-35 -49 -49 -100 q0 -43 4 -66h-2q14 -70 82 -178q55 -70 125 -114q33 -25 86 -60l100 -90q66 -88 90 -180q6 -64 6 -106q0 -25 -2 -42l-4 -22q0 -8 2 -15q-37 -121 -90 -165q-98 -96 -227 -123q-8 0 -50 -8l2 4l-10 -4h-24q-119 10 -138 22l-8 -4q-31 8 -86 33q-2 -4 -4 -4q-55 39 -53 47 q-68 78 -68 139q-6 0 -24 92z" />
<glyph unicode="T" horiz-adv-x="1060" d="M96 1389q22 22 51 24q10 0 15 -4q4 0 6 4l16 -4h31q8 0 16 4l7 -4q4 0 14 4l20 -4l21 4l-2 -4q4 0 6 4q4 0 88 -10q8 4 12 4l19 -4q8 4 12 4l-2 -4l8 4q68 2 84 2q82 -6 109 -6v-4q4 0 4 4l26 -4h17q2 0 31 8h71l23 2l37 -6l8 4q18 -4 22 -4l72 6q49 0 47 -43q4 0 4 -2 v-4q-2 -8 -12 -8l2 -6l-8 -17q4 0 2 -4q-20 -2 -33 -12q-4 0 -2 4l-8 -4h-29q-14 0 -55 -23q-6 -4 -10 -4q-96 8 -136 8v2l-8 -2l-8 2q-2 0 -2 -2q-37 4 -45 6q-4 0 -6 -4l-19 4h-18q0 -4 -4 -10q8 -46 8 -66v-7q-10 -23 -12 -29q5 -5 5 -27q0 -17 -3 -43h-4q6 -12 2 -39 q0 -4 -4 -4l2 -8q0 -2 -4 -2l4 -8q-2 -8 -6 -15q0 -25 -3 -38q-2 -14 -6 -21q-2 -68 -14 -147l-4 -15q0 -4 4 -4q-18 -49 -39 -178l-4 -51q-4 -8 0 -15q-4 -6 -6 -14l-6 -37q0 -4 -4 -4l4 -6l-2 -12l-6 -21q4 -8 2 -10l-7 -20q2 -6 2 -11h-4l2 -8q0 -6 -4 -12q-2 -37 -4 -60 l-8 -47q0 -4 -4 -4l4 -8q-6 -6 -6 -10l2 -6q-4 -8 -4 -13l2 -16h-4l2 -8l-2 -8q0 -2 -4 -2l2 -9l-4 -37l-4 -43h-2l2 -8q-6 -39 -6 -71q0 -12 1 -23q-6 -6 -8 -14h4q-4 -31 -69 -47q2 8 -6 8q-2 -12 -11 -12h-4q-10 0 -10 83h2v9l12 100v18h4l-4 9l4 24q0 8 -4 15l9 8 q-2 25 0 41l4 10q0 2 4 2q0 4 -4 4l8 37l4 14q2 25 0 47q6 16 8 27l-4 6l6 8q-4 6 -2 15q0 4 4 4l-2 8l4 39q6 35 13 61q0 18 4 52h4l-4 8l2 6q0 4 4 4l-2 6l10 84q2 4 6 4l-4 8v2q0 4 4 5q0 4 -4 4q8 20 12 20l-2 8q0 2 6 23q0 4 -4 4q14 37 21 80q-4 0 -4 4h4v8 q0 65 26 344q-4 66 -10 66h-28q-10 0 -17 -4q-4 0 -4 4l-22 -4q-8 0 -154 8h-12q-4 0 -2 4l-11 -4q-4 0 -2 4l-8 -4h-43q-8 0 -12 4q-8 -4 -17 -4q-43 23 -41 33q4 6 7 10l-11 -4q-4 12 -4 37z" />
<glyph unicode="U" horiz-adv-x="1103" d="M-23 371q2 16 2 35.5t-2 44.5h5l-5 8l7 28q2 20 -4 21q0 6 2 6q4 43 6 64l4 24v23q4 8 4 12v10h4q0 4 -4 4l4 19v14v14q4 8 4 17l2 18q2 8 -2 15q4 6 8 14l2 22l-2 27q8 0 11 6l-3 12h5q0 4 -5 5l7 24l8 45q0 8 -2 15q2 10 14 51q-4 8 -4 12l8 2l-4 21q10 16 12 32 q-4 6 0 11q2 0 13 12l-6 14q8 16 18 47l-4 8q2 4 6 5q0 4 -4 10q10 41 12 71h4v11q14 70 21 69q0 4 -4 4q8 49 65 74h4q33 0 45 -41l-8 -6l2 -18q-10 -29 -12 -33q0 -4 2 -4q-12 -68 -18 -68l4 -8l-2 -10q-6 -47 -19 -68q4 -10 8 -10q-12 -43 -18 -43q0 -4 2 -4l-6 -19 q-2 -18 -21 -114h-4l4 -8q0 -4 -4 -5l4 -6q-2 -4 -6 -4l2 -8q0 -4 -4 -10v-33l-4 -23q0 -4 -4 -4l4 -8q-4 -4 -6 -4q0 -2 2 -2l-4 -14q0 -4 2 -13q-6 -20 -8 -32l2 -19h-4l2 -8q0 -2 -4 -2v-27l-2 -8l-7 -22q0 -4 5 -4q0 -4 -7 -11q-2 -51 -4 -69l-4 -9q-6 -74 -8 -159h-2 l8 -47l-4 -9q6 -88 33 -141q70 -113 153 -113q-2 -6 43 -8q4 0 5 4l18 -4h37q102 10 145 37q18 0 127 92q20 18 41 54q-4 0 -4 2q41 55 47 77l-4 9q4 14 8 14l-2 8q18 25 37 107q6 0 19 41q0 4 -5 4q20 57 37 129q-4 8 -2 12h4l-4 25l4 8q-4 6 -2 14h4q0 4 -4 4q6 25 15 33 l-9 4q12 41 17 51l-4 8q0 4 4 5v18l10 84q2 14 2 41q4 6 6 10l-6 17q0 4 4 10v28q4 4 6 13l6 133l5 6q-4 8 -2 16q0 4 2 4q-3 31 -3 59q0 37 5 70l2 19q12 0 24 27q23 6 29 6q0 -4 4 -4q0 12 4 12q27 -16 43 -35v-2l-6 -8q8 0 6 -6v-4q0 -4 -4 -5q0 -66 6 -65l-6 -8l-2 -27 q0 -8 2 -14l-4 -8v-15q-2 0 -4 -4q6 0 8 -28l-8 -21q-6 -111 -6 -151v-15h-4q2 -6 2 -10q-6 -6 -6 -10l6 -4l-4 -9v-10l-2 -22q-4 -8 -5 -13l2 -6q-4 -8 -4 -14l7 -4q-20 -74 -27 -78q8 -2 6 -8l-2 -37q-4 -25 -4 -47l-16 -60l4 -8l-27 -74q0 -4 2 -4q-27 -96 -49 -151 q2 -6 2 -10q-6 -39 -62 -138q-6 -47 -129 -159q-152 -100 -239 -101q-4 0 -12 -4q-4 0 -5 4q-29 -4 -55 -10l-6 4q-8 -4 -12 -4t-2 4l-21 -4l-16 4q-10 -4 -15 -4l3 4q-4 0 -5 -4q-102 0 -198 78q-90 94 -99 293z" />
<glyph unicode="V" horiz-adv-x="1107" d="M86 1319q2 4 6 4l-4 6v12q8 43 51 43q3 5 15 5q6 -2 6 -9l6 4h4q20 0 33 -61q-2 -4 -6 -4q8 -16 18 -86q29 -113 53 -270q16 -25 54 -328h-5q25 -115 29 -242q2 0 2 -4h-4q10 -100 25 -176v-8h6q49 106 102 203l-2 8q74 127 197 385q80 133 84 166q8 0 18 37l121 239 q25 63 35 64l-4 8q12 14 14 22q-2 6 -2 11q12 18 53 36h13q8 0 14 -4q6 4 10 4l8 -14l-2 -18q-16 -63 -47 -101l2 -8l-37 -61l2 -8q-70 -139 -166 -345q-14 -16 -65 -137q-6 0 -72 -121q0 -8 -88 -174q4 0 4 -4q-10 -8 -59 -114q-94 -203 -133 -259q-35 -31 -41 -30 q-56 0 -56 83q0 8 1 17q-35 209 -37 375l-54 414l-30 125h2q-14 51 -19 86l-22 79l4 9q-12 18 -29 122q-2 0 -8 19z" />
<glyph unicode="W" horiz-adv-x="1314" d="M88 1352q8 14 18 14h11q3 23 28 43l19 -2q6 2 8 2q14 -4 14 -10q-4 0 -4 -4q4 -8 17 -76l-4 -8q6 -12 6 -19h-4q0 -4 6 -84h-4q4 -14 2 -28h-2q6 -29 10 -123l-4 -8q10 -61 12 -119q10 -41 14 -129q4 0 5 -2q0 -4 -5 -4q12 -109 19 -285h-2q-1 -12 -1 -24q0 -34 9 -62 l-4 -8q2 -6 0 -17h-4q8 -79 8 -127q0 -24 -2 -39h2q45 121 88 207q20 33 37 84h2v8q16 43 27 43v5l-4 10q6 4 10 4v4q2 8 -2 14q6 6 6 15l-2 8q4 0 12 8q0 4 -4 4q41 86 55 148q27 39 45 112q2 0 19 27h12l-2 6v10h6v-10h2q2 10 10 10q2 0 2 -4q29 4 29 12q25 0 33 -96 q6 0 6 -28q-4 0 -4 -5q6 -2 31 -104l55 -186q2 -27 2 -31h-4q29 -100 43 -195h4q41 141 47 142h2q0 4 -2 4q8 25 12 33q-4 6 -2 16v8q2 4 7 4l-5 8q16 31 21 33l-4 8q12 23 12 29q-4 6 -4 10q14 23 41 117h4q0 2 -4 2q16 55 27 74l-4 8q8 29 14 29q-2 8 -2 12l6 12l-4 8 q18 37 20 37q0 2 -2 2q12 33 13 41q-4 6 -2 11q12 4 12 8v22q8 12 8 21q2 4 -2 4q4 8 12 49l2 2h-4v-6h-8l2 8q2 8 8 8q0 -4 2 -4l2 8l-6 11q4 0 15 26v10h4l4 23q0 2 -4 2q16 51 28 78v4h-4v-8h-2v10l10 12l-4 19q8 0 15 10l-2 8v6q8 41 28 64v4q-6 0 -4 6l6 4q4 0 4 -4 q35 14 47 14q0 -8 7 -8q0 4 4 4q2 -6 2 -10h8v6h8q0 -6 6 -16q-8 -2 -8 -8q0 -4 4 -5q-6 -6 -6 -10l2 -8q-6 -6 -6 -10l4 -6l-25 -54l5 -6l-2 -4q-23 -90 -27 -98l2 -6q-8 0 -25 -84h-4q-2 -4 2 -4q-12 -55 -47 -158q0 -2 4 -2q-35 -137 -65 -215q0 -4 4 -4l-6 -19 q0 -8 2 -8q-10 -37 -17 -43q0 -4 2 -4q-12 -43 -16 -43q0 -2 4 -2l-51 -158q-2 -16 -8 -24q-2 -4 2 -4q-6 -27 -12 -27q0 -2 4 -2q-23 -98 -25 -98q0 -4 2 -4q-14 -66 -33 -95q0 -4 4 -4q-10 -39 -16 -45l4 -8q-10 -31 -24 -31q-4 -31 -50 -43q0 -8 -12 -8q-39 10 -35 39 q-8 0 -18 74h4q-23 207 -59 317q-20 125 -70 291h-4q-8 -35 -23 -57q2 -8 2 -13q-6 -2 -34 -75l2 -9q-35 -70 -66 -168q-8 0 -53 -112q-6 0 -23 -53q2 0 2 -5q-6 -2 -37 -75q-31 -47 -77 -140q-12 -14 -45 -24h-13l-10 6h-2l-8 -2q0 2 -10 16q0 4 4 4q-4 31 -8 91h4 q-2 78 -11 100l7 6q-8 27 -5 29l5 8l-7 211l2 6q-5 74 -5 96q0 8 1 10q4 6 4 11q-8 0 -6 49q2 0 2 4q-8 0 -8 82q-6 20 -10 78h4q-12 84 -14 123h4q-16 72 -19 211h2l-8 67h4q-4 6 -2 37h2q-2 14 -8 115z" />
<glyph unicode="X" horiz-adv-x="1081" d="M-109 49q0 4 5 4l-5 6l5 4q45 53 165 234q63 72 66 88q131 164 252 330q-47 84 -195 393q-82 178 -80 197h5l-3 6l3 8q-8 0 -7 14l4 8q-4 6 -2 11q25 20 27 28h31l8 4v-6l10 2q8 -20 15 -20q20 0 79 -146q80 -180 111 -235q-2 -8 25 -59q23 -57 51 -97h2q150 209 219 287 q12 12 78 100q6 0 92 95q55 80 102 88h19q47 -35 47 -52h-4l4 -8v-4q-39 -27 -107 -115q-27 -18 -155 -170q4 0 4 -4q-14 -10 -250 -321q111 -170 289 -582q6 0 43 -80q-4 -8 -4 -14q6 -2 6 -8l-8 -4q-6 4 -15 4l6 -12v-3q-6 -10 -55 -30q-49 0 -133 223q-10 0 -86 180 q-14 16 -84 166q-12 10 -29 53h-8q-16 -14 -59 -73q-41 -47 -103 -131l-204 -267q-66 -109 -111 -141l-4 4q-31 -6 -33 -6q-14 0 -20 33h4z" />
<glyph unicode="Y" horiz-adv-x="1107" d="M92 1399q10 27 19 26h4q4 0 4 -4q6 4 10 4l14 -4q8 4 13 4l4 -12l8 4q27 -29 113 -207q23 -31 100 -196q39 -70 108 -221q6 0 62 77q115 137 227 304q31 25 152 202q6 0 49 64q14 22 20 22h5q4 0 4 -4l6 4h14q24 -27 24 -49q0 -3 -1 -6q0 -8 -41 -64q-2 -8 -60 -81 q-131 -186 -241 -318q-45 -74 -158 -205q-29 -43 -35 -77q-2 -25 -6 -44v-8q-4 -14 -6 -24q-2 -4 2 -4l-4 -21l-6 -29q0 -4 -4 -4l2 -6v-14q0 -4 -5 -4q-2 -4 0 -4l-4 -19l-10 -73q0 -4 -4 -5l2 -8l-20 -151q-2 -8 2 -15q-4 -6 -9 -14v-10v-27h-4l2 -8q-6 -70 -8 -96h-4 l2 -6q-8 -63 -51 -64q0 -4 -4 -4q-34 0 -34 53q0 8 1 17h4l-4 8l2 4q0 8 4 14v15v4q0 4 4 4q-2 8 -2 10q18 176 23 209l16 113q0 4 4 4q-4 8 -4 12q2 6 13 41l-5 6l9 23v4q0 8 -4 14l8 6l-2 25v2q0 4 4 4l-2 6q0 4 4 4l-4 8l8 41q0 16 8 41q-100 217 -172 340q2 12 -39 88 l-94 174q-34 39 -34 86q0 10 1 19z" />
<glyph unicode="Z" horiz-adv-x="1089" d="M-88 66q25 39 63 84q20 39 78 110q4 12 121 150q51 68 174 198q84 96 121 150q18 12 88 110q47 45 211 252q96 100 104 129q45 45 60 68q-4 0 -4 2l-8 -2h-48q-12 0 -12 -4l-16 4h-109q-4 0 -4 2l-6 -2q-27 2 -31 2q-8 0 -8 -2l-37 2h-20q-72 0 -107 8q-37 -4 -67 -4h-23 l-26 -4v4q-8 -4 -41 -6v2l-7 -2q-4 0 -4 2q-4 0 -4 -2l-24 2h-27q-8 0 -14 -2q-70 0 -78 61l2 4q4 36 76 52v-4l8 4q29 -6 43 -7q66 2 80 3q6 -2 10 -3q6 2 10 3q4 0 2 -3l70 7v-4q4 0 4 4q2 0 10 -4q14 0 66 4q14 0 82 -7q2 0 14 3l18 -3l9 3q23 -2 20 -7l8 4h19q20 0 53 3 q12 -6 29 -7h133q8 0 14 4q6 -4 10 -4l9 4q23 -4 43 -22q14 -5 14 -16q0 -6 -12 -39q6 -12 4 -23l-8 -4q0 -4 4 -4q-4 -25 -84 -111q-2 -16 -113 -133q-2 -6 -78 -92q0 -8 -57 -78q-53 -76 -107 -129q-2 -10 -188 -233q-29 -20 -98 -115q-33 -33 -101 -115q4 0 4 -4 q-23 -14 -59 -65q-33 -29 -72 -105q-12 0 -24 -33q6 -4 10 -4q8 4 12 4l-2 -4q4 0 6 4q6 0 6 -4q2 0 50 4q88 -4 102 -4l8 4l6 -4l9 4l8 -4l8 4q12 -4 12 -8q10 2 45 8l8 -4q2 0 5 4q41 -8 79 -8l33 4v-4l8 4h15q8 -2 8 -8l6 4q86 4 86 8q14 -4 14 -8l9 4h24q4 0 4 -4l9 4 h88l47 4l-2 -4q4 0 4 4l24 -4h27q35 -20 35 -36v-5q-14 -55 -37 -55q0 -4 -4 -10l-19 4h-8l-18 -4v4l-8 -4q-4 0 -3 4l-8 -4q-18 4 -22 4q-6 0 -8 -4l-25 4h-43q-10 0 -16 -4l-7 4l-20 -4l-6 4q-8 -4 -12 -4l-7 4q-8 -4 -16 -4h-2q-4 0 -4 4l-8 -4h-4q-4 0 -2 4l-9 -4h-59 l-21 -4l3 4l-9 -4h-30q-8 0 -15 -4q-12 4 -10 8q-8 -4 -12 -4q-47 0 -144 4l-8 -4l-6 4q-6 0 -8 -4l-139 8q-27 -6 -27 -12q-8 4 -12 4q-6 -4 -11 -4v4q-20 -6 -20 -12q-12 8 -39 8q-2 0 -10 -4q-6 4 -15 4q-4 0 -12 -4q-4 0 -31 26q-10 0 -22 56z" />
<glyph unicode="[" horiz-adv-x="628" d="M-84 -2q6 6 14 29q-4 0 -4 10l6 4q2 4 -2 4l7 27l12 84v18q4 0 4 8q2 12 2 33l2 6v8q0 4 4 13l16 170q4 6 5 14v10l4 8q-2 0 -2 5l2 14l2 6h-2q0 4 4 12v15l8 67v19q2 0 2 10l2 14l-2 23q6 8 6 10l2 39l6 24q2 6 -2 41l8 21q0 31 3 53l2 8l6 9q-4 0 -6 24q6 8 6 12l-2 7 l4 8q-2 6 -2 14l2 4l4 8h-4q8 45 8 93q2 0 2 4q-2 6 -2 14l10 70l8 26q-4 0 -2 15l2 14l4 8h-4l7 19l20 147l2 27q4 0 4 4h-4q0 4 4 10v22l12 89q25 27 56 26h49l16 4q0 -4 4 -4q0 4 4 4h19l8 -4q0 4 2 4h68l8 -4q0 4 4 4h29l8 -4v4q114 -8 147 -8q39 0 49 -37l-4 -8 q18 0 17 -10l-2 -15l-4 -8l-70 -22h-12l-19 4q0 -4 -4 -4l-8 4q-6 0 -12 -4q-86 6 -103 12q-2 -4 -20 -8q-25 4 -39 4h-41q-23 0 -57 -8l-9 4l5 -19l-5 -32l-2 -27q-4 0 -4 -2q-2 -10 2 -16l-8 -15l4 -18l-6 -8q4 0 4 -5q-2 -8 -6 -14l4 -6l-6 -12h2q0 -8 -10 -56 q-2 -8 2 -14q-4 -6 -6 -14l-6 -37q-2 -20 -11 -53q2 -8 4 -37q-4 0 -6 -4l4 -6l-6 -9q-2 -6 4 -18l-4 -19l-24 -274q-4 -6 -4 -10l2 -8q0 -4 -7 -11v-26q-2 -8 -4 -15q2 -6 -2 -14v-8l-4 -6q4 0 4 -4l-4 -27q-4 -18 -14 -18l-2 -25h4l2 14h6l-8 -53l2 -18q-4 0 -4 -11 l-2 -12h-10l-5 -6h13l-2 -10l2 -21q-6 -2 -17 -2v-8l9 4h4q-2 -8 2 -14l-6 -8q2 -20 0 -33l-7 -35l-4 -6q4 0 4 -4l-4 -23h-6l-2 -8h8l-2 -2h-8l-4 -37l-6 -26q12 -4 10 -23q0 -2 -4 -10q4 0 2 -4v-11h-6v11h-8q-2 -18 8 -19v-4h-6l-2 -14q2 0 2 4q8 0 8 -8q-2 -6 -10 -6 l2 6h-4v-4q4 -10 10 -11q0 -8 -8 -14l4 -8l-4 -6q2 -8 2 -13l-6 -18q4 0 10 -4q4 0 10 4l8 -4l8 4q6 0 9 -6l24 2q6 0 6 -6l27 6l23 -2h16l16 2q0 -2 4 -2q47 2 50 2l18 -2l6 2q8 0 17 -2q39 2 47 6l4 -6q6 0 8 6q16 0 16 -6q35 -6 33 -25l-4 -6l6 -4q-16 -45 -127 -63l-6 4 q-20 -4 -35 -4h-33q-8 0 -14 -3q-6 2 -14 3h-19q-20 0 -63 -3q0 2 -4 3v-3q-18 0 -56 3q-8 0 -8 -7q-6 0 -26 7v-3q-27 2 -29 3q-16 0 -39 61zM35 182q4 -8 2 -18h2l4 18h-8zM43 201l4 24h8q0 -4 -4 -4q0 -2 4 -2l-8 -18h-4zM76 489h4v15h-4v-15z" />
<glyph unicode="\" horiz-adv-x="569" d="M88 1354q4 33 41 55h4l8 -2q0 2 4 2h25q0 -9 27 -25l20 -110q2 -68 10 -68q10 -215 27 -266q25 -174 35 -242l-4 -6q6 0 12 -49l-6 -6q4 0 10 -14q2 -53 8 -54q-2 -4 -4 -4q-2 -4 14 -88q-4 0 -6 -4q18 -59 64 -377q-4 0 -4 -4q6 0 12 -33q-4 -35 -51 -59h-4l-8 4v-4 q-33 0 -41 43l4 20q-6 0 -11 70l-133 873q-6 113 -20 178q-33 154 -33 170z" />
<glyph unicode="]" horiz-adv-x="643" d="M-98 0l8 4l-2 6q0 18 41 25q0 6 16 6q0 -6 8 -6l2 6q10 -4 48 -6q6 2 14 2l8 -2l18 2q2 0 48 -2q4 0 4 2l18 -2h14l23 2l25 -6q2 6 10 6l24 -2q2 6 9 6l6 -4l8 4q6 -4 10 -4q8 4 12 4l-2 18q0 4 7 13l-5 6l5 8v14q6 0 12 11v4h-2l-2 -6q-8 0 -6 6q2 8 8 8q0 -4 4 -4l2 14 h-8v4q12 0 14 19h-6v-11h-8v11q0 4 4 4q-4 8 -2 10q2 18 16 23v26l4 37h-6l2 2h6l2 8h-8l4 23q0 4 4 4l-4 6l6 35q2 12 9 33l-2 8q4 6 6 14h2l8 -4v8q-8 0 -14 2l6 21l2 10h10l2 6h-10l2 12q0 10 -4 11l6 18l8 53h6l-2 -14h4l4 25q-12 0 -8 18l4 27q0 4 2 4l-2 6v8q4 8 8 14 q-4 6 -2 15l7 26v11l4 8q0 4 -2 10l53 274l-2 19q8 12 8 18v9l4 6q0 4 -2 4q6 29 10 37q2 33 4 53l7 37q0 8 -2 14q4 6 4 14q4 47 6 56h2v12l4 6q-2 6 -2 14q2 4 4 5l-2 8l4 18v15q4 6 6 16q0 2 -4 2l8 27l4 32l6 19l-8 -4q-33 8 -55 8h-41q-14 0 -41 -4q-16 4 -14 8 q-20 -6 -107 -12q-8 4 -14 4l-8 -4q-4 0 -4 4l-19 -4h-10l-64 22l-4 8l4 15q0 10 19 10l-2 8q23 37 61 37q33 0 148 8v-4l8 4h29q4 0 4 -4l8 4h65q4 0 5 -4l8 4h16q4 0 4 -4q4 0 4 4l19 -4h49q31 0 49 -26l-14 -89l-6 -22q2 -6 2 -10h-5q0 -4 5 -4l-9 -27l-22 -147l4 -19h-4 l2 -8l-2 -14q0 -14 -4 -15l-2 -26l-11 -70q0 -8 -4 -14q0 -4 4 -4q-14 -47 -20 -93h-4l2 -8v-4q0 -8 -8 -14l4 -8l-4 -7q0 -4 2 -12q-6 -25 -10 -24v-9v-8q-4 -23 -13 -53l2 -21q-12 -35 -14 -41v-24l-6 -39q-2 -2 0 -10l-4 -23l-4 -14q0 -10 2 -10l-6 -19l-9 -67 q0 -8 -8 -15q4 -8 4 -12h-4l2 -6l-2 -14q0 -4 -4 -5l4 -8q0 -4 -8 -10q0 -8 4 -14l-33 -170q4 -8 4 -13l-6 -8l4 -6q-8 -20 -10 -33q0 -8 4 -8l-8 -18l-10 -84v-27q-4 0 -4 -4l8 -4q-8 -10 -12 -10q4 -23 8 -29q-41 -61 -58 -61q-2 0 -28 -3v3q-23 -6 -31 -7q0 6 -6 7 q-37 -2 -55 -3v3q-4 0 -4 -3q-43 2 -64 3h-18q-8 0 -15 -3q-6 2 -14 3h-35q-12 0 -31 4l-10 -4q-98 18 -104 63zM295 164h4q0 10 6 18h-6zM295 201v18q4 0 4 2q-4 0 -2 4h6l-4 -24h-4zM348 489h4l2 15h-4z" />
<glyph unicode="^" horiz-adv-x="559" d="M-12 1262l2 14q35 55 94 174q10 0 39 59q27 15 45 15h4q2 0 2 -2l8 2q61 -39 121 -144q43 -70 41 -77q-2 -10 6 -19l-4 -27q-18 -20 -37 -28q-4 0 -4 4l-6 -4h-8q-4 0 -4 4l-6 -4q-4 0 -5 4l-8 -4q-10 0 -10 18l-6 -4q-37 86 -90 148q-14 -16 -68 -134q-20 -31 -43 -47 l-8 2l-10 -6q-53 6 -45 56z" />
<glyph unicode="_" horiz-adv-x="1067" d="M0 -68q0 37 23 41q0 4 36 27q20 -4 29 -4q8 4 12 4v-4l9 4q10 0 10 -4q41 4 53 8q2 0 2 -4l86 6v-2q6 2 10 2q8 0 9 -2l26 2h84l23 4q4 0 4 -4l18 4h4l23 -4l8 4q2 0 10 -4q8 0 39 4q51 -4 64 -4l26 4l8 -4q6 4 11 4q6 0 32 -6q6 2 17 2v-2l6 2h27q8 0 14 -2l6 2 q27 -2 27 -6l18 4h76q2 0 2 -4l18 6q4 0 4 -2l19 2h10q20 0 35 -2l86 6q37 -6 33 -37q0 -6 6 -6q-4 -23 -25 -35q0 4 -2 5l-6 -7q4 0 4 -4q-23 -12 -39 -12l-24 4q-8 -4 -13 -4q-18 4 -18 8q-12 -8 -29 -8h-45q-4 0 -4 4l-8 -4h-43q-4 0 -4 4l-37 -6q-10 2 -10 6l-8 -4h-27 q-8 0 -14 -2l-9 2l-6 -2q-14 2 -14 6q-4 0 -4 -4l-27 4h-10q-8 0 -14 -4q-8 4 -17 4h-18q-8 0 -14 -4q-23 4 -23 8l-6 -4q-4 0 -4 4l-19 -4h-63q-4 0 -2 4q-8 -4 -12 -4q-20 0 -64 -4l-18 4q-4 0 -5 -4l-18 4h-2q-10 0 -16 -4q-4 0 -4 4l-23 -4l-33 4q-6 -4 -10 -4v4 q-4 -4 -55 -6q-14 2 -17 2l-41 -6l-6 4q-29 -8 -51 -8l-8 4q0 -8 -8 -8l-9 4q-2 0 -2 -4q-43 0 -59 32z" />
<glyph unicode="`" horiz-adv-x="403" d="M8 1417v4q4 29 53 64q3 2 7 2h24q74 -86 205 -207q10 -29 10 -33q-6 -39 -57 -49q0 4 -4 4q-2 -8 -8 -8h-9q-20 0 -30 27q-8 0 -88 77q-74 57 -103 119z" />
<glyph unicode="a" horiz-adv-x="1046" d="M-92 18l2 19q14 61 47 100l-2 6l35 64v8q66 139 164 344q12 16 65 137q4 0 72 121q0 8 86 174q-4 0 -4 4q10 8 59 115q131 285 164 285q2 0 12 4q56 0 56 -91v-10q33 -209 34 -372l56 -414l30 -127h-4q14 -51 19 -86l24 -82l-6 -6q12 -18 29 -123q2 0 8 -18q0 -2 -4 -2 l2 -9l-2 -22l-4 -6q4 0 4 -4q-23 -23 -62 -27q-8 0 -6 6l-8 -2h-4q-29 21 -29 51v8q-4 0 -4 5q2 2 6 2q-10 23 -51 245q-35 145 -47 250h-41q-10 0 -10 -4l-19 4h-45q-8 0 -14 -4q-6 4 -14 4h-31q-10 0 -18 -4l-23 4h-39q-8 0 -16 -4q-14 4 -15 8l-6 -4q-4 0 -4 4l-8 -4 q-2 0 -2 4l-8 -4h-15q-4 0 -4 4l-8 -4l-49 8q-2 -10 -63 -124l-127 -271q-43 -90 -54 -96l4 -8q-14 -14 -16 -23q2 -6 2 -10q-10 -16 -49 -37h-12q-8 0 -15 2q-8 -2 -12 -2zM299 655h4q4 0 4 4l27 -4q16 0 22 4q25 -4 39 -4h105l18 4v-4l8 4h47q4 0 5 3q37 -2 36 -7 q6 4 15 4q0 25 -11 97h5q-25 113 -27 239q-4 0 -4 4h4q-10 100 -25 179l2 6h-8q-49 -106 -102 -203l2 -8q-74 -133 -166 -318z" />
<glyph unicode="b" horiz-adv-x="911" d="M-92 70l2 43h4l-4 6q10 37 14 43q0 4 -4 4q12 53 17 59q-4 6 -3 17h5l-2 6q12 70 16 94q-4 6 -4 8q8 0 14 19l-4 8q6 6 8 14q0 2 -4 2q8 41 12 41l-2 6l2 19q4 29 15 67q0 4 -2 4l4 19q2 20 8 90q2 6 2 8l-2 8q0 4 4 4v50q8 25 10 32l-2 29l8 23v18v20l7 7q0 4 -4 4l6 14 v18l4 19v31l8 8v59l8 4l-2 19q8 57 19 86v24l6 27q-2 4 0 8q0 4 4 4q-2 20 0 29q2 10 8 27v57q4 0 4 2q-6 0 -6 8l2 17l4 22q0 6 2 18v3q0 8 27 16q5 25 157 45v-2q8 2 13 2q39 0 143 -14l8 4q113 -18 195 -86l47 -68q-2 -27 8 -33l-4 -8q10 -10 6 -51h-4l4 -8l-2 -15 q-2 -8 -6 -14l4 -6q-18 -74 -104 -162q-4 0 -37 -33q-29 -18 -39 -28q86 -16 172 -121q59 -86 61 -205q-2 -18 4 -29q-2 -12 -6 -18l-2 -33q-27 -188 -108 -280q-80 -121 -232 -189q-8 0 -63 -16q-8 4 -13 4q-27 -8 -30 -8v4q-4 0 -4 -4q-49 4 -72 4h-2q-12 0 -18 -4l-23 4 l-55 -4q-4 0 -4 4l-25 -4h-139q-41 0 -41 55q0 11 2 25zM10 96q2 -6 2 -16q4 0 4 4q25 -8 41 -8l19 4l8 -4l6 4q14 -2 14 -8q6 4 35 8v-4l8 4q10 0 25 -4l61 8q23 -4 46 -4q125 18 170 67q104 86 106 115q61 68 70 125q-4 6 -4 10q6 0 16 19q0 4 -4 4l6 16q12 84 16 94 q-8 0 -8 9l6 6q-4 8 -4 10h4q-10 109 -63 176q-49 49 -113 64q-2 0 -2 -2q-45 10 -59 10l-21 -4l2 4q-4 0 -4 -4l-12 4q-54 -8 -74 -8v4q-29 -10 -123 -25h-12l-6 2q0 -8 -53 -16l-17 -101l-2 -36h-2l2 -7v-4q-2 -12 -6 -16l-2 -57l-10 -37q2 -6 0 -10h-2q-2 -33 2 -33 l-6 -19l-7 -28q0 -2 -2 -2q0 -4 2 -4l-4 -19l-4 -33q-2 -4 -6 -4l2 -6v-6q-2 -14 -8 -33l4 -6q-2 -8 -6 -8v-43l-4 -29q-4 -23 -17 -72q8 -2 9 -8q-8 -8 -11 -12q2 -8 2 -12q-8 0 -8 -6q2 -8 2 -13h-4zM121 860q94 20 117 21q4 0 4 -2q57 10 59 20h4l6 -4q88 31 185 96 q51 47 84 94l24 58q1 10 1 19q0 90 -124 134q-8 0 -30 11q-4 0 -5 -4q-23 4 -30 8l-8 -4q-23 10 -89 14q-8 0 -51 -6l2 4q-74 -23 -92 -23v-4q0 -8 2 -14q0 -2 -4 -2l-6 -100q-8 -20 -8 -29q2 -6 2 -14h-4q-2 -4 2 -5q-23 -119 -29 -161l2 -6q-4 -6 -6 -15q0 -8 2 -14 q0 -4 -2 -4l-2 -19z" />
<glyph unicode="c" horiz-adv-x="1095" d="M-10 487q-3 16 -3 46.5t3 74.5l6 8q-4 8 -4 13q4 25 8 24v4l2 19l8 49q33 240 240 506q174 166 319 166q31 4 33 8l19 -4h47q104 -8 182 -31q14 -12 72 -39q23 -25 22 -26l-6 -41q-14 -18 -33 -19v4l-8 -4h-2q-86 59 -246 60q0 4 -14 4q-16 -4 -27 -4v4q-55 0 -159 -41 q-131 -88 -146 -129q-115 -156 -123 -207q-41 -86 -55 -137q-4 0 -4 -4l-4 -33q0 -4 -4 -4l2 -9q-18 -78 -21 -92q-2 -8 2 -14q-8 -20 -10 -35v-2q-2 -20 -2 -38t2 -34h-4q-1 -19 -1 -35q0 -31 3 -49h-4q6 -137 141 -292q129 -96 277 -97q168 0 321 170q10 0 29 17 q10 -4 10 -8l8 4h17l6 -4q0 4 4 4l12 -19q-4 -8 -6 -14q8 0 6 -12l-4 -9q2 -6 0 -10q-104 -111 -166 -137q-72 -39 -102 -39q-16 -12 -94 -20l2 4l-11 -4h-38q-111 12 -121 20l-11 -4q-150 47 -215 117q2 8 -41 41q-116 172 -116 298q0 18 2 35z" />
<glyph unicode="d" horiz-adv-x="1075" d="M-57 72q6 6 6 10l-4 6l6 8l-2 21h8l2 24l-2 19h4q0 14 -8 14l8 10l2 13q2 6 -6 6l4 8l2 10h-6v4h8q4 68 4 82h2q2 39 -6 39l6 6v4h-4v-6q-8 0 -8 6q6 0 14 13v2h-8v8h8l7 35h-13l2 12l8 -4h5l-5 6h5q-2 25 -7 25l2 8l3 8q0 2 -3 39q2 14 13 29q-8 0 -6 10l8 35v24l8 19 q0 4 -4 4l4 16v27v6l4 43l25 166q0 12 8 31l-4 8l6 6l-2 22h4q0 2 -4 2l8 37l4 25q0 4 4 4q2 2 -2 2l23 113q-2 14 0 24l6 15l-4 8q0 2 6 10q0 31 2 49l2 10q0 8 -6 9l6 18l2 6v37q8 49 45 49q2 17 47 25l19 -4q4 0 4 4l24 -4h45q14 0 35 4l6 -4q8 4 17 4v-4l8 4l12 -4l8 4 l7 -4q4 0 6 4q57 -6 57 -11l8 5q4 0 2 -5q4 0 4 5q156 -18 263 -68q186 -125 225 -252q33 -112 33 -183q0 -17 -2 -32q3 0 3 -3q0 -1 -1 -3h-5q2 -23 2 -43q0 -30 -4 -53l-8 -58q-12 -90 -20 -90q0 -4 4 -4l-6 -24q-2 -8 2 -15q-76 -262 -133 -356q-86 -113 -222 -164 q-164 -76 -262 -76l2 4q-20 -4 -20 -8l-19 4q-51 -8 -63 -8h-12l-11 8q0 -8 -8 -8h-14q-8 0 -14 4q-4 0 -7 -4l-24 4h-35q-4 0 -4 4l-8 -4h-19q-8 0 -6 8l-8 -4h-8q-4 0 -2 4q-4 0 -4 -4q-57 4 -58 15l-8 -5q-20 0 -20 58q0 16 2 37zM37 63q-2 -10 188 -20q84 6 90 6l7 -4 q8 4 16 4q4 0 2 -4q49 0 242 82q113 68 149 156q37 100 43 100l-4 6l64 205l-3 6q0 16 21 96l-2 9l6 20q6 39 6 81q0 108 -37 236q-18 47 -59 95q-111 119 -203 129q-41 18 -102 30q-4 0 -6 -4q-59 12 -136 13h-67q-4 0 -2 4l-8 -4h-27l-25 4v-27l-6 -33q0 -8 2 -12 q-2 -8 -4 -12l2 -6q0 -4 -4 -5l2 -14l-8 -35q0 -4 2 -4l-4 -18l-6 -35q0 -4 -4 -4l4 -6l-8 -51q0 -4 -4 -5q2 -20 2 -26q-6 -2 -9 -8v-9q-2 -8 3 -14l-13 -31v-22q0 -4 -4 -10q0 -4 2 -11q-14 -55 -24 -125l2 -8q-4 -6 -7 -14l-6 -43q0 -8 -6 -14q0 -31 4 -31l-6 -19l-2 -20 q-2 -8 0 -16l-8 -19l6 -2l-4 -6q-2 -12 2 -12l-6 -19l-2 -12v-37h-4q0 -4 4 -4l-8 -16v-56h-4l2 -6q-14 -135 -17 -158h-2q6 -18 4 -28h-4l2 -6q-8 -113 -12 -148l4 -14h-4l2 -6z" />
<glyph unicode="e" horiz-adv-x="989" d="M-70 45q4 8 4 12q-2 6 0 11h5q0 4 -5 4l7 24l22 164q2 8 6 14q-6 18 -2 33h4l-4 41q8 6 8 19v22l5 19v22q2 4 6 4l-2 43l6 17l-2 20h4l-4 8l4 4q6 66 8 133h2l-2 9q0 4 4 4l-4 6l6 37q0 4 4 4l-2 6q0 4 4 4q-6 16 -6 23l6 8q-2 6 -2 14t4 8q0 51 2 70q6 6 7 10 q-2 12 -5 12l7 25l8 57q0 8 -2 15q4 6 6 14t-2 14q0 4 4 5v36l4 23q2 8 0 14q2 6 4 17l2 10q2 8 -2 14q4 6 6 15q2 16 2 41l6 20q-2 6 -2 10h4q0 2 -4 2q10 45 15 45q0 4 -4 4l8 25l4 25q0 6 -8 6l8 18l-2 14q31 45 39 46l43 14q31 -14 31 -19l26 5q125 4 146 4v-4l6 4 q4 0 4 -4l8 4l6 -4q8 4 12 4v-4q2 0 2 4q8 0 9 -4l22 4q88 -4 139 -4h21l20 4q16 -8 41 -9h54l16 5v-5q8 4 12 5l8 -5q6 4 15 5l8 -5l6 5l8 -5l23 5q33 -12 31 -37q10 0 10 -9q-14 -8 -29 -38q-10 0 -12 -9h-27l-8 -4l-2 8l-8 -4h-37q-2 0 -2 4l-8 -4l-19 4l-8 -4l-6 4 l-23 -4q-4 0 -4 4l-18 -8q-33 4 -107 8l-8 -4q-4 0 -4 4l-18 -4q-4 0 -11 4q-4 0 -4 -4l-88 9q-45 -4 -90 -5q-4 0 -10 -4q-6 4 -14 4q-4 0 -5 -4l-18 4h-6q-10 0 -16 -4l-9 4q-6 0 -24 -8q-8 4 -17 4h-4q-6 0 -14 -36l2 -9q0 -4 -4 -4q0 -4 4 -4l-6 -16l-6 -33l-6 -25 q0 -2 4 -2l-9 -18l-2 -12q0 -8 2 -15l-4 -8q4 -6 2 -14q-2 -4 -6 -4l4 -6l-4 -37q-4 -12 0 -21l-6 -12q-10 -100 -18 -160v-8q-2 -8 0 -14q-4 -6 -4 -15q-2 -23 4 -22l-9 -19l-6 -53h82q8 0 15 -4q16 8 41 8h22q4 0 2 -4l10 4h37q2 0 2 -4q23 8 97 8h16q8 0 14 4l23 -8l20 4 q4 0 4 -4l21 4h2q20 0 35 -4q49 4 57 8q6 -4 16 -4l19 4q27 -14 37 -41v-4q-4 -4 -19 -10l2 -8q-2 -8 -28 -27q-4 0 -11 4q-37 -2 -38 -6l-19 2h-10q-14 0 -41 -2q-6 2 -10 2q-8 -2 -21 -2l2 2l-10 -2h-20q-4 0 -3 2q-8 -2 -47 -6l-6 4l-18 -4q-4 0 -13 4q-92 -10 -157 -10 q-8 0 -15 -4l-8 4q-8 -4 -12 -4v4l-6 -4q-4 0 -4 4q-51 -8 -70 -8l-2 -4q-5 -60 -5 -89.5t5 -29.5v-4h-8l-12 -88v-27h-5l5 -6l-5 -31v-18h-4l4 -6q-2 -4 -6 -4l2 -19v-4q0 -4 -4 -4l2 -6q0 -4 -4 -4l2 -8l-2 -15q-2 -16 -2 -41q-4 -8 -4 -10l2 -18l-6 -9q0 -4 2 -12 q-6 -18 -8 -33v-10q-4 -8 0 -14q-4 -8 -6 -17v-6q0 -8 6 -8l6 4l8 -4q6 4 10 4v-4l9 4q4 0 4 -4l8 4q10 0 10 -4q41 8 86 8q47 0 78 -8q25 4 39 4h37q10 0 14 -4l8 4q8 0 41 -4l33 4l8 -4q4 0 4 4q37 -4 37 -6q20 6 62 6v-4l8 4h41q4 0 4 -4l6 4h23q4 0 4 -4l8 4q6 -4 10 -4 t4 4l19 -4h8q12 0 33 4q12 0 32 -31q-4 -25 -22 -32q-4 -27 -35 -27l-6 4l-21 -6q-23 2 -39 2h-32q-4 0 -4 4l-9 -4q-20 0 -51 4q-66 -4 -106 -4q-4 0 -13 -2q-37 2 -36 6l-25 -4h-127q-4 0 -4 4l-6 -4h-68q-18 0 -55 -2v2q-20 -6 -27 -6v4l-8 -4h-2q-10 0 -16 4 q-6 -4 -35 -8v4l-6 -4q-25 4 -56 55z" />
<glyph unicode="f" horiz-adv-x="925" d="M-49 53l8 74q2 8 0 16q4 6 6 15q0 4 -4 12l6 6l-2 19l6 8q-4 6 -2 14v6q2 4 6 4l-4 9l6 40q2 23 7 74h4l-4 6q17 182 17 213q0 6 -1 6l2 9q-2 6 -2 10h2v10q4 39 8 150h4l-2 8l8 61q2 8 7 15q2 4 -2 4l6 18v12v19h4q0 4 -4 4l6 16l6 45q0 8 -2 17q6 10 10 10q-4 18 -4 29 l8 26l-4 15l8 8q-4 6 -4 14h4l-2 8l15 93l-2 20l4 8q4 43 16 164q23 55 29 55q4 0 4 -4l18 4h13q8 0 14 -4q6 4 14 4v-4l8 4q55 0 129 7v-3q23 6 97 11q2 0 2 -4l18 4q39 0 203 12h70q4 0 2 -4q4 0 4 4q31 -8 82 -8h28q64 0 64 -38v-7l6 -11v-4q-10 -37 -41 -36 q-193 8 -225 8q-4 0 -13 -4q-6 4 -14 4l-18 -4v4q-43 -12 -144 -13h-63q-8 0 -15 -4q-4 0 -4 4q-6 0 -28 -8q-4 0 -4 4q-82 -6 -146 -6v-4q-2 -8 2 -14q-6 -6 -6 -17v-10q-4 -6 -4 -14v-31h-2q2 -6 2 -10l-6 -8q4 -18 4 -27l-4 -6l2 -6q-4 -8 -6 -17q4 -6 2 -10h-4l4 -8 l-4 -33q-2 -4 -6 -4l4 -6l-8 -49q0 -10 2 -10l-7 -21l-12 -84q0 -8 2 -14q-4 -6 -6 -17v-6q-2 -10 2 -10l-6 -21l-8 -55l8 4h106q4 0 5 -4l6 4h4q4 0 4 -4l6 4q8 -4 12 -4q6 4 11 4v-4l8 4q4 0 4 -4l8 4l25 -4q4 0 4 4q31 -8 80 -8h4q4 0 4 -2l8 2q2 0 2 -2q4 0 4 2l27 -2 h47q10 0 10 2l21 -2h43q20 0 53 2l6 -2l8 2q51 0 51 -61q-27 -37 -63 -37q0 8 -8 8h-7q-12 0 -12 -4q-4 0 -10 4q-104 -4 -137 -8q-47 4 -56 8q-4 0 -4 -4q-39 6 -106 6v4q-2 0 -2 -4q-37 4 -58 4h-28l-23 -4q-6 4 -18 4h-4q-8 0 -15 -4q-6 4 -14 4l-14 -4q0 4 -4 4 q-2 -6 -9 -6q-10 -240 -24 -360q0 -4 2 -11q0 -4 -4 -4v-18l-6 -41l2 -23q-4 -8 -4 -10v-8l-4 -6v-31h-5l5 -6l-17 -121v-16h-4l2 -9v-4q0 -4 -4 -4l2 -6l-2 -27q-4 -29 -39 -36l-2 -4h-2q0 8 -2 8q-6 -4 -10 -4q0 8 -8 8q0 -6 -13 -12q-19 0 -19 37q0 15 3 36z" />
<glyph unicode="g" horiz-adv-x="1064" d="M-29 475q0 4 4 4v8l5 7l-3 16l5 6q-6 12 -7 19h5v8q0 4 4 4q0 8 -4 8l12 43l8 70v4v8v2q4 41 12 82v18q6 25 11 49l2 11q0 4 4 4l-4 8q10 33 14 33q0 4 -4 4q10 37 14 37l-2 8q4 14 12 29q-4 0 -4 4q6 0 33 80q47 100 102 159q57 90 156 138q88 55 121 55q0 18 184 41v-4 l8 4q156 0 246 -60q0 -6 19 -32q-4 -31 -39 -50l-23 5l-10 -5q2 20 -98 50q-57 10 -76 10q-8 0 -8 -4l-23 4q-41 0 -119 -10v4q-162 -55 -206 -113q-139 -152 -154 -217q-12 0 -57 -182l-11 -64q0 -2 -4 -2l2 -8q-4 -6 -4 -10q2 -8 2 -13q-8 0 -10 -6q4 -8 4 -12q-4 0 -4 -2 q8 0 6 -12l-6 -8q0 -2 4 -3q-8 -33 -12 -40q0 -20 -2 -33l-6 -35l-7 -23q2 -14 7 -14l-9 -18l-2 -29q-1 -7 -1 -26t1 -50l-4 -6q10 -127 51 -229q31 -72 84 -97q14 -10 70 -26q0 -6 37 -6h55q8 0 17 4q4 0 2 -4l53 10v-4q106 27 147 78q4 0 39 36q55 53 90 119l23 56v8 l22 73l5 29q0 4 4 4l-2 8l2 15q0 4 4 4v37q0 4 2 4l2 37l4 28l-2 9q-41 -8 -49 -9l-23 4l-8 -4q-2 0 -2 4l-20 -4h-52q-8 0 -14 4q-6 -4 -14 -4h-23q-4 0 -4 4q-4 0 -4 -4l-19 4h-59q-4 0 -2 5l-8 -5l-23 5q-8 -4 -12 -5l2 5l-8 -5h-51q-31 14 -49 46l6 20l2 16q4 0 32 15 q4 0 27 -4l10 4q4 -4 9 -4q4 8 10 8h18q8 -2 4 -8q8 0 11 4l63 -8l8 8q8 -4 8 -8l7 4q4 0 4 -4q14 8 20 8q0 -8 6 -8q6 4 11 4h12l2 4h10q8 -2 6 -8l31 8q4 -4 8 -4q43 8 45 8q8 -8 19 -8h4l18 12h23q43 0 57 -8l8 4q41 -6 37 -15l-4 -8q10 0 16 -14h-4l11 -23 q-10 -14 -13 -28q2 -8 2 -13h-4l4 -8l-2 -4l-6 -16q6 -2 6 -8q0 -4 -4 -5q0 -4 2 -4q0 -6 -4 -6q-2 -74 -6 -96l-18 -45l4 -6q-6 -20 -11 -21l4 -6q-14 -35 -16 -35q-2 -2 2 -2q-10 -98 -182 -270q-113 -88 -189 -88q-2 -10 -139 -16v4q-4 0 -4 -4q-33 4 -33 8l-8 -4 q-127 27 -186 90q-45 57 -62 112q-6 0 -14 35q4 0 4 2q-4 2 -20 82q-4 0 -4 4q4 4 8 4q-13 42 -13 143v15q-4 0 -4 4z" />
<glyph unicode="h" horiz-adv-x="1040" d="M-43 37l6 6q-4 6 -4 14h4q2 4 -2 4l6 19l-2 6q4 8 4 16l-2 15q4 4 6 4l-2 18l9 56q0 8 -3 14q0 4 5 4l-2 18l8 56v18h4l-4 8l4 27v20q4 8 6 17q-2 18 0 29h2l-2 8l2 6q0 18 2 55h4q-2 10 0 45h2l-2 8v7q0 4 4 4l-2 8q10 98 19 155l-4 7q6 6 8 18v23q4 14 6 28l-2 17h4 l-4 6l8 41q0 8 4 14q-2 8 -2 12h4l-2 6v17l4 45h4l-2 6v6q0 4 4 4l-2 9q8 57 8 129h5v36l4 9v18q0 4 4 4v51q4 6 4 15v26h4l-2 8l4 33q2 29 6 78q4 27 49 33h27q23 -12 14 -55l-4 -33v-19q-2 0 -4 -4l8 -4l-6 -6q-9 -94 -9 -121q0 -9 1 -10q-2 -2 -6 -2l-6 -135q-2 -2 -6 -2 q-1 -28 -1 -45t1 -23q-6 -6 -7 -14v-4v-19h-4q0 -23 4 -22l-4 -19l-4 -10q0 -12 2 -18l-6 -21q-4 -59 -10 -90l8 2h90q8 0 12 -2q10 2 15 2q125 4 157 4q2 0 15 4q8 -4 18 -4h13q12 0 32 4l8 -4l7 4q20 -4 32 -4t13 4l24 -4h64q4 0 4 -4l6 4h16q4 0 4 -4l7 4h12l22 -4l7 4 l16 -4q18 4 29 4q0 4 -4 4l20 88q-2 6 0 19l2 8q2 4 -2 4l6 18l4 33q6 33 19 101q4 0 6 4l-8 2q6 18 10 18l-2 8v4q2 10 6 11l-2 18l2 19q2 4 6 4l-4 8l8 65q6 42 6 65q0 14 -2 21q8 20 11 33l2 31q4 6 0 14q4 6 6 15l6 36q8 18 39 19h8q37 0 37 -52q0 -13 -2 -30 q0 -2 -4 -2l2 -21q-2 -16 -17 -161h-4l4 -9l-12 -77q-12 -94 -31 -170q0 -4 2 -11q-6 -20 -8 -32v-5q-2 -12 0 -18q-6 -12 -20 -104h-4l4 -7l-4 -16q0 -4 -4 -4q-2 -2 2 -2l-7 -18l-6 -50q-2 -8 2 -14l-4 -6q-20 -123 -30 -191l-11 -65q-2 -23 -4 -60q-4 -6 -6 -26l2 -6 l-4 -8q-4 -76 -5 -143q0 -22 1 -44q-31 -29 -49 -29h-15q-4 0 -4 5l-8 -5h-6q-4 0 -14 19v4l2 6q-6 0 -11 53q0 4 5 4q0 55 2 66h4q-2 7 -2 20q0 18 4 48l45 315q0 2 4 2q0 4 -4 4l8 37l4 33q2 8 -4 8q-10 0 -10 -4l-21 4h-65q-4 0 -4 2q-4 0 -4 -2l-43 2h-41l-23 4 q-2 0 -4 -4l-16 4l-27 -4v4l-8 -4h-13q-12 0 -30 4q-8 -4 -17 -4v4l-8 -4l-12 4q-8 -4 -12 -4v4q-41 -4 -41 -6q-8 2 -13 2q-45 -2 -47 -2v2l-8 -2h-106q-4 0 -5 2q-4 0 -4 -2l-18 2h-6l-8 -2l-5 -72l-4 -6q4 -6 2 -10h-4q4 -8 2 -12q-25 -215 -25 -271q0 -10 1 -14 q0 -4 -4 -4v-19l-13 -96q0 -8 2 -14q-2 -4 -6 -4q-2 -43 -4 -64l-8 -51q-10 -12 -31 -18q-6 4 -14 4q0 -8 -6 -8q-29 23 -37 57z" />
<glyph unicode="i" horiz-adv-x="262" d="M-90 35l4 24q2 8 0 15l4 6l12 108q0 4 4 5q0 39 15 108q4 -2 4 2q-8 0 -6 8l4 6q-2 8 0 13l4 6q-4 6 -2 10l4 8v15h4l-4 6l14 69q4 14 4 27q4 14 9 31l2 20q4 8 2 15l4 8q0 4 -4 4l8 16l-2 19h4v6q0 4 2 4l-2 6l2 23q0 4 4 4q-2 6 -2 10q20 135 25 162l2 18l4 6 q2 45 2 51q2 4 4 3q4 51 10 73l21 101v20q6 6 6 19l2 18h2l-2 6q0 4 4 4l-2 8l2 11q5 26 5 45q0 15 -3 26q6 6 8 15l-2 14h4q-4 14 0 41l2 10q2 6 6 12q0 10 4 56l7 6l-2 22l45 17l22 -2q17 0 17 -70v-8l-5 -25l7 -10v-4q-2 -8 -9 -14l2 -8q0 -2 -4 -3l-10 -155l-6 -6v-23 v-6q-2 -4 -6 -4l4 -6l-8 -37q0 -4 -4 -4l2 -6l-2 -11q0 -4 -4 -4l2 -8l-9 -35q-18 -98 -34 -233h-2l2 -6l-2 -8q0 -4 -3 -5v-8l-6 -30l-2 -25h-4l2 -8q0 -4 -4 -4l2 -7q0 -4 -4 -4l2 -8l-41 -207l-2 -43h-4v-8l-6 -47q-4 -10 -4 -31l-6 -8q-16 -135 -19 -213q-4 -6 -6 -8 l2 -8q-10 -25 -31 -35l-28 2q-2 0 -2 4l-8 -4q-14 0 -27 35z" />
<glyph unicode="j" horiz-adv-x="1095" d="M-43 432q4 6 6 17q-6 0 -6 6l12 94q35 102 62 102l8 -4q6 4 10 4q27 -23 29 -63l-6 -2l2 -8v-13l-11 -10q4 -6 3 -10h-5q4 -8 2 -13l-8 -32q4 -8 4 -13h-4l4 -14l-4 -6q10 -215 31 -215h-4q27 -92 102 -123q35 -20 174 -37q4 0 4 4q8 0 15 -4q135 0 237 68q74 39 123 133 l41 74q-4 6 -2 14q16 23 33 78q-2 8 -2 10q4 31 10 31q0 4 -2 4q10 23 33 133q0 18 2 37q0 2 6 22q0 2 -2 2l6 21v29q4 8 4 12h-4l8 6l-8 10q8 8 17 41q0 20 2 35l6 33q0 4 4 4q-4 6 -4 10q2 4 6 10q2 23 -10 23l4 8l8 -4v8q-4 10 -8 10l6 9l2 14v14l2 8q0 14 -6 25 q4 8 4 12q-8 0 -6 6t12 13q0 4 -4 4q2 4 6 10q0 57 12 129q-5 0 -5 31q0 37 7 119q-6 0 -4 32q27 29 64 29q18 -16 20 -33q10 0 13 -37q2 0 2 -4l-11 -37l2 -14l-4 -6q4 -16 4 -67q0 -34 -2 -83l-8 -22q-2 -18 -2 -70h-4l4 -30q-4 -6 -4 -15v-37l-8 -61q0 -4 -4 -4l4 -27 q-8 -41 -12 -41v-8q0 -2 -4 -2q0 -41 4 -41l-9 -18l-8 -68q-2 -8 0 -14q-4 -6 -4 -15l-6 -41q-10 -74 -16 -73v-9l-4 -8q0 -6 2 -6q0 -8 -23 -86l4 -6q-45 -137 -113 -242q-111 -113 -200 -141q-2 -14 -172 -43h-33q-4 0 -4 4q-4 0 -4 -4q-254 33 -250 55q-92 31 -137 150 q-23 72 -31 227z" />
<glyph unicode="k" horiz-adv-x="1075" d="M-98 33l2 10q0 4 4 4l-4 8l12 88v25q4 4 6 12l-2 8q4 6 4 17v12h2q0 4 -2 4l6 21q37 217 45 270v2q0 4 5 4v6v8l6 27l-6 2l4 8v4q12 86 12 116v7q4 6 4 15v4q0 8 -2 14q2 6 2 10v13v8q4 6 4 10q-2 0 -2 2h2l-2 8l2 23q0 4 4 4v6q0 4 4 4q-2 18 -6 19l6 26l8 56q0 4 5 4v8 l4 51l2 23l4 6q-2 8 -2 12h4l-2 6v8q2 12 6 19v22v2q4 20 8 35q6 62 6 138v38h4l-6 21q2 4 6 4v24v15q4 0 23 22q4 0 16 13l8 -5l5 7q29 -2 57 -39l-2 -4q0 -4 -2 -5q2 -12 6 -12l-8 -16l2 -17l-4 -8l4 -51q-2 -2 -4 -2v-49h-4q2 -8 2 -21q0 -26 -8 -75l-9 -64q-2 -8 -6 -14 q2 -6 2 -15l-12 -81q0 -8 2 -15q-4 -8 -6 -14l-8 -72q0 -4 -4 -4v-6l-9 -72q0 -6 6 -6q0 6 58 41q123 94 235 170q168 119 398 311q6 0 55 47q14 12 20 13q4 35 91 41q16 0 22 -45q-4 -33 -70 -74q-313 -262 -360 -297q-43 -35 -131 -88l-231 -170v-4q78 -59 344 -299 q8 0 163 -160q121 -86 162 -141v-19q-4 -23 -45 -49h-24q-27 0 -86 64q-76 57 -193 182l-195 176q-102 88 -141 131l-74 51q-8 -4 -12 -4q2 4 -2 4l-4 -24v-21h-2q0 -4 2 -4l-6 -16v-4q0 -8 4 -17q-8 -6 -8 -12l-2 -12q-2 -12 2 -13l-4 -18q-18 -92 -21 -111l-4 -6 q-2 -4 2 -4l-6 -14q0 -8 2 -17q-4 -18 -8 -32v-11v-18h-4q0 -4 4 -4l-8 -27l-13 -96q-4 -8 0 -14q-4 -6 -6 -15l-2 -12l4 -18h-4v-7q-10 -53 -24 -53q0 4 -4 4q-2 -10 -11 -10v2q-12 -6 -20 -6q-33 12 -43 33h-4z" />
<glyph unicode="l" horiz-adv-x="940" d="M-70 76q8 53 17 162h4q-4 8 -4 12q10 78 47 350l-2 27q8 8 8 12q0 2 -4 2l4 18l8 86q4 8 0 15q4 6 6 14l2 23v14l4 8l-4 6q8 23 9 31q0 4 -5 4l9 19q31 190 30 194l4 8q-4 8 0 13q0 2 5 2l-2 18l6 45q0 8 -2 15l14 32l-2 25q0 4 10 49l-4 8q14 96 49 96q19 1 19 9 q35 0 51 -64q-18 -68 -23 -96l4 -6q-4 -8 -6 -13q-4 -59 -6 -65l-6 -16q4 -10 6 -11l-6 -26l-4 -33v-19l-6 -4q-25 -133 -33 -202l-12 -86v-27h-4q0 -2 4 -2q-10 -37 -13 -55l-16 -113l2 -16h-4l2 -9q-16 -147 -18 -170q0 -4 2 -12l-7 -20l-4 -17q-8 -55 -8 -82q0 -14 2 -20 l-6 -8l4 -6l-6 -9l4 -63l-6 -6q4 -8 2 -17h27q12 0 12 -4l16 4h90q4 0 5 -4l6 4h14q4 0 4 -4q4 0 4 4q74 4 111 4h31q2 0 2 -4q4 0 4 4l125 -10l22 2q37 -2 60 -2q27 0 100 6v-4l8 4h14l21 -16q6 2 10 2q14 -27 23 -27q-14 -45 -29 -59l-4 4l-12 -6h-4q-4 0 -5 2 q-43 -4 -108 -10l-21 4h-73q-4 0 -4 4l-9 -4h-8q-2 0 -2 4l-8 -4q-20 0 -66 6q-4 0 -4 -2l-18 2h-45q-8 0 -12 4l-11 -4l-12 4q-8 -4 -12 -4t-2 4l-21 -4h-209q-29 0 -73 -2q-27 0 -37 51q-6 0 -15 27z" />
<glyph unicode="m" horiz-adv-x="1153" d="M-109 47v6q4 4 9 4l-4 9q6 20 8 28q0 4 -4 12q8 10 10 11q0 4 -2 4q6 39 10 49v6q12 14 25 92v4q0 8 6 15q-2 8 -2 14l4 27q0 4 4 4l-4 8q31 84 55 207l2 8v16h4q0 4 -4 4q12 29 17 70l4 27q0 8 8 14q-4 8 -4 12q2 10 10 29q0 4 -2 4l6 19l16 114q2 25 9 47q0 14 4 41v13 q4 8 8 14q0 4 -4 4l6 27v6v22q6 14 10 15q2 33 -2 32q6 18 29 132v18q0 2 4 2v27l4 41l8 22q0 4 -4 4l6 19l2 18q9 0 52 23h4q41 -37 43 -37q8 -39 86 -160q6 -2 43 -82q43 -59 184 -244q168 162 307 344q0 6 41 52q35 59 103 104q16 10 28 10q39 -19 39 -72q0 -11 -2 -24 q4 0 4 -55h-4q3 -5 3 -25q0 -27 -5 -80h-4l2 -32l-4 -7q2 -8 2 -12h-4l4 -6l-4 -35q-4 -8 0 -14q-4 -6 -6 -15q0 -8 4 -8l-6 -18l-4 -23v-16h-5l5 -8q0 -4 -5 -4l5 -9l-5 -10q-2 -23 -10 -155h-4l4 -29q-8 -35 -10 -35q-4 -4 0 -4q0 -2 -4 -10v-51h-4l4 -9l-4 -24 q0 -10 4 -17q-4 -4 -8 -4l4 -16q-12 -82 -31 -381q-4 0 -4 -4q9 0 9 -79q0 -26 -1 -62q-39 -41 -51 -41l-18 -4q-37 23 -37 51v6l16 418q4 2 6 2l-2 18l6 27q-2 8 -2 10q4 4 6 4l-2 19l2 4q2 20 7 106q0 4 6 12q-2 6 -2 11h4l-4 8l4 18q0 4 4 4q-4 4 2 60h2q-2 8 -2 41h4 l-2 6l2 14q0 4 4 4q-6 12 -6 19q16 131 20 178q-2 6 0 10h5l-5 8q2 4 5 4l-3 7q8 75 8 93q0 5 -1 5l4 6q-4 16 -2 33h-9q-2 -10 -77 -107l-103 -118q-63 -57 -112 -119q-8 0 -29 -33q-70 -68 -109 -68q-27 0 -110 142q-66 80 -133 174q-55 106 -70 127l-8 -37l-6 -41 q-2 -16 2 -16l-8 -25l-25 -168q0 -8 -4 -14q2 -6 2 -15h-4l4 -8l-12 -45q0 -2 4 -2l-8 -14q-14 -84 -21 -127l-4 -15q0 -4 2 -4q-16 -66 -25 -118h-4l4 -7l-4 -18q0 -4 -4 -4q0 -4 4 -4q-12 -68 -41 -166l2 -8l-8 -33q-2 -12 0 -27q-8 -33 -10 -55l-4 -27q0 -2 -4 -2l4 -8 q-6 -14 -12 -14q0 -4 4 -4q-12 -55 -21 -64q8 0 6 -10l-6 -8l4 -6q-20 -57 -24 -58q-29 -6 -35 -6h-35q-16 12 -29 41z" />
<glyph unicode="n" horiz-adv-x="933" d="M-111 47q25 113 64 215l10 86q2 8 6 14q-2 6 -2 15l2 4q8 8 19 47q0 4 -4 4l6 19v4q0 8 -2 14l12 23q25 141 35 163q-2 20 0 29h4l-4 8v4q2 2 6 2l-4 9l2 4q0 4 4 4l-2 8v2q2 8 8 8q0 2 -4 2q23 109 35 201l10 74q2 8 6 14l-2 8q4 6 4 15v8q14 37 27 119q0 4 4 4 q0 2 -2 2q10 41 18 86l9 51q0 4 4 4l-4 6l4 16q0 16 37 41h8q4 0 2 -4l8 4q98 -20 92 -49q6 0 80 -98q57 -96 137 -215q53 -111 156 -242v4q0 4 -4 4l6 19l-2 14h4v8q20 236 37 351l6 18q-4 6 -2 19l6 45q0 8 -2 16l6 6q0 2 -2 23q2 4 6 10q-2 20 2 35v6q29 59 56 59 q54 -9 54 -44q0 -4 -1 -7l-6 -8q0 -23 4 -23l-4 -18l-4 -23v-37h-4l2 -6l-7 -18q0 -4 5 -4l-9 -27l-4 -24v-17q-4 -6 -4 -14q-2 -8 2 -14l-6 -9q0 -4 4 -4l-8 -24q-12 -174 -16 -197q4 -6 4 -10h-4l4 -8q-4 -4 -9 -4l5 -19l-9 -55v-37h-4q1 -12 1 -34q0 -46 -3 -136 q-4 -4 -8 -4l4 -19l-6 -41v-36h-4l2 -9q0 -2 -4 -2l2 -8q0 -4 -4 -4l-4 -135l-6 -8l-5 -88h-4q0 -4 4 -4l-6 -21q2 -6 2 -10h-4q4 -6 4 -10q-6 -61 -8 -68h-4q2 -6 4 -33h-4q6 -14 4 -22h-4l2 -6l-8 -13l2 -8q-14 -47 -27 -47h-82q-8 2 -14 18q12 27 16 52v8q12 85 12 123 q0 12 -1 20l8 4q0 4 -2 4l4 19v14h2q-2 10 -2 45l6 8q-4 29 0 62h4l-2 63l6 19q11 68 11 104q0 43 -15 43q-61 119 -61 123q-49 51 -88 129l-193 299q-55 100 -65 100q-29 -131 -47 -194q0 -4 4 -4l-11 -37l-6 -45q0 -4 -4 -4l2 -6l-8 -64q0 -8 2 -14q-23 -84 -35 -160 q0 -4 -4 -10q4 -8 0 -17l-2 -20q0 -4 -4 -4l2 -8v-11q-16 -119 -39 -178q-4 -4 0 -4l-4 -18l2 -8q-4 -8 -24 -80l8 -4l-8 -19l-9 -51l-8 -45q4 0 0 -4q-6 0 -43 -133q2 -14 0 -27l-4 -6l2 -8l-4 -6q2 -8 2 -13q-35 -45 -63 -45l2 4l-11 -4h-6q-31 20 -35 37z" />
<glyph unicode="o" horiz-adv-x="1110" d="M-8 596h2l-2 6l8 49q0 12 -4 19l4 22q16 106 33 180q0 4 -4 5l8 18l2 27q2 4 4 4q0 2 -2 2q45 164 100 246l-2 6q49 109 127 163q59 63 101 66q2 0 22 8v-4q29 14 100 14q6 -4 11 -4q0 6 14 17q4 0 4 -4q15 2 17 8q4 0 10 -4q61 4 96 4h23q59 0 92 -31l2 4 q53 -10 102 -51q61 -33 113 -178q20 -70 18 -76q-6 -6 -6 -10q6 0 10 -60h-4q6 -28 6 -58v-15h-4l2 -6v-9q0 -4 -4 -4l2 -8v-6q-2 -4 -6 -4q4 -4 4 -41h-4l2 -6v-4l-6 -9q6 0 6 -8l-2 -10h-6l2 -18q-2 -4 -4 -5l2 -6l-2 -12q0 -2 -4 -2l4 -8v-4q-2 -4 -6 -4l4 -7l-2 -4 q0 -12 -4 -12v-18l-8 -56h-9q0 -12 2 -18q-37 -137 -59 -197q0 -2 2 -2q-12 -41 -16 -41q0 -4 4 -4q-59 -150 -92 -207q-59 -84 -86 -106q-123 -109 -232 -137q-29 -12 -78 -17q-16 4 -14 8q-2 0 -4 -4q-211 33 -207 56q-141 115 -166 270q-17 168 -17 262q0 19 1 35z M80 598q8 -233 35 -350q20 -59 71 -115q54 -67 138 -67h2q0 -4 69 -11q80 0 219 107q76 76 105 137l6 4v10q18 45 23 49v9q12 0 47 133q14 0 63 235l10 52q0 4 -2 12q8 25 8 41l9 41q0 4 4 4l-4 29l4 8q2 33 0 39l4 8v22q4 0 4 4q-8 0 -6 7v16l6 6q-6 0 -16 105 q-2 0 -43 102q-10 2 -17 22q-41 49 -160 78q-8 0 -6 8l-6 -4q-23 2 -22 7q-4 0 -4 -3l-46 3h-24q-21 -11 -33 -11l-4 4q-170 -43 -172 -55q-12 0 -82 -72q-68 -125 -121 -276v-8q-6 -27 -10 -27q0 -2 2 -2q-6 -41 -10 -41q-2 -4 2 -4l-6 -18l-8 -60q0 -8 -9 -14q4 -6 4 -10 l-8 -27q0 -4 4 -4l-8 -19l-10 -84l2 -20h-4z" />
<glyph unicode="p" horiz-adv-x="925" d="M-63 49q2 4 4 4l-2 8l2 15q0 2 4 2v8l8 80q2 6 0 12q0 4 4 4l-2 19l2 4q0 4 2 4l-2 6q10 131 18 182l7 39v23q0 4 2 4l2 24l4 39v19h4q0 4 -4 4l6 16q0 8 -2 15l6 22q0 2 -2 2l2 19l2 8q0 10 -2 10l6 18l4 31q0 8 -2 17q4 6 6 14v2q2 8 -2 14l6 8q-4 6 -4 15q2 4 6 4 l-4 6l4 29q6 40 6 67q0 11 -1 19l6 8q-2 4 -2 12q4 0 4 4l-6 4q10 33 12 33q-2 6 -2 10l6 19q-2 12 0 29h4l-4 6l12 80l-2 20q6 6 6 10l-2 23h4q2 4 -2 4q0 4 4 10l3 33l6 12l-4 8q4 6 6 15q0 4 -2 12l6 20q2 8 -2 15q6 6 6 14q2 8 0 14q0 4 4 5l-2 18l4 31q2 18 21 22 q6 31 65 35q0 10 82 14q4 0 2 -4l41 9q6 -4 10 -5l23 5v-5l6 5h18q51 0 88 -9l9 4l53 -10l6 2q160 -25 211 -82q70 -51 102 -139q10 0 11 -96h-2l2 -6l-7 -47q-18 -131 -176 -267q-74 -55 -159 -82q-88 -39 -269 -39l-8 5q-6 -4 -10 -5v5q-4 0 -4 -5l-97 11q0 -4 -4 -4l4 -7 l-4 -14q-2 -10 -4 -10v-19l-6 -38q0 -4 -2 -5l2 -8q-2 -14 -18 -159q-2 -18 6 -19l-8 -18q-15 -124 -15 -157q0 -11 2 -11q-2 -4 -6 -11q2 -25 0 -40q0 -2 -4 -3v-8l-2 -24q-2 -25 4 -25l-6 -18l-4 -31q-16 -25 -76 -41q-31 12 -24 45q-4 0 -4 4zM117 764q-2 -10 119 -19 q240 16 241 35q135 49 141 90q47 37 105 154l2 29q4 8 6 14q-2 8 -2 12h4q-2 88 -35 140q-4 0 -22 24q-43 55 -187 82q-74 4 -116 14l-66 -8v4l-8 -4l-6 4q-6 -4 -14 -4v4l-9 -4h-53l-18 -2v2q-14 -2 -17 -20q0 -6 2 -6l-6 -19l-4 -33q0 -8 2 -14q-4 -6 -6 -14q0 -8 2 -15 q-2 -8 -4 -8q-2 -35 -4 -51l-6 -43q0 -4 -4 -4l2 -8v-6q-2 -4 -4 -5l2 -6l-4 -30q-2 -6 2 -15q-6 -6 -7 -10q0 -10 2 -16q-8 -27 -10 -41v-11q-2 -8 -2 -14l-2 -6l2 -14q-2 -4 -4 -4q0 -37 -8 -115z" />
<glyph unicode="q" horiz-adv-x="1173" d="M0 573q0 4 2 5l2 67h4l-2 6q6 78 10 109q12 25 27 78h-4q14 47 18 47l-2 8q8 14 66 143l-4 8q104 223 149 244q76 92 164 123q0 8 72 27q4 0 2 -4l8 4h27q8 0 14 2q6 -2 10 -2q2 10 60 16h4l20 -4l8 4q6 -4 11 -4l6 8l96 -20q18 -2 84 -62q88 -82 121 -162 q41 -86 55 -202q12 -102 12 -182q0 -56 -6 -101l-6 -41q-2 -6 2 -14q0 -2 -4 -2v-21l-4 -41q-27 -184 -47 -184v-18q-4 0 -21 -37l2 -6q-100 -201 -174 -256l-14 -17v-6q84 -147 98 -164q0 -6 23 -47q2 -6 2 -10h-4q8 -25 8 -35l-29 -29q-14 -12 -22 -12v4q-8 -4 -13 -4 q-43 25 -79 105l-68 124q-6 4 -14 5q-4 -10 -142 -56l-8 4q-14 -8 -41 -8h-49q-84 0 -96 12l-8 -4q-129 53 -195 121q-6 0 -63 94q-49 102 -52 189q-8 59 -12 184q-4 0 -4 14zM92 571q6 -59 8 -174q8 0 11 -86q57 -176 149 -221q96 -37 160 -37q6 2 10 2l14 -2 q178 33 183 60q8 0 8 4q-37 96 -111 190q-33 55 -32 64l2 4q29 45 61 45h14q23 -18 58 -86q70 -78 92 -148q51 45 104 148q68 121 76 192q0 4 -4 4l6 19l6 33q0 4 4 4l-4 8q6 14 11 14l-3 6l5 23q0 4 2 4q-4 20 0 41h4l-4 6l10 72v24h4v31q0 154 -18 244q-51 160 -111 215 q-81 65 -126 65h-1q0 4 -10 4h-95q-162 -27 -217 -83q-94 -94 -137 -205l-90 -217l2 -9q-16 -51 -33 -114l2 -6q-4 -8 -4 -13v-11q0 -28 -6 -114z" />
<glyph unicode="r" horiz-adv-x="827" d="M-84 47l2 27q4 12 0 12l6 18l6 54v18h4l-2 8l9 58q0 4 2 4v10q0 4 4 4v19l6 40q0 4 2 5q0 4 -2 4q8 43 12 43q0 4 -4 4l6 18q2 4 -2 4l6 19l13 88q2 12 0 33q6 4 8 18l-4 6l6 8q0 2 -4 2l8 27v8q0 8 -2 15q4 8 4 12l-2 16l6 19q0 4 -4 4l8 24l15 111q2 14 2 31q4 12 6 26 l8 58v24h4l-2 6q23 219 35 305l6 15q0 4 -4 4l8 18v4q0 10 -4 11q14 98 51 98q12 12 131 18l6 -2q4 0 4 2q195 -18 312 -61q86 -41 112 -162l11 -88q-6 -6 -7 -14l3 -6q-68 -188 -160 -265q-113 -92 -271 -129l-6 5q-41 -12 -55 -13v4q-6 -4 -18 -4l110 -123 q141 -211 189 -305q115 -186 112 -209l-2 -16q-14 -31 -39 -39h-10q-2 0 -2 4q-14 -6 -25 -6q-10 2 -106 174q-133 233 -207 328q-74 88 -125 135v4h-6l-16 -125v-18h-5l5 -9q0 -2 -5 -2v-8l-4 -37q0 -4 -4 -4l4 -6l-4 -27l-12 -43h4q-6 -25 -8 -24q0 -4 2 -4l-8 -27v-4 q0 -10 2 -10l-6 -19l-13 -79q0 -10 2 -17l-4 -6q-2 -24 -2 -39q0 -25 6 -25q-2 -4 -6 -10l-2 -37q-20 -69 -56 -69h-1q-14 4 -21 18q-14 0 -14 8l8 7q-8 0 -8 8q4 8 4 10q-8 0 -6 6zM104 780q4 0 11 -2q156 0 264 56q115 45 182 159q2 4 -2 4q27 37 45 88q3 19 3 37 q0 78 -50 127q-121 59 -209 60q-55 14 -106 14l-9 -2q-6 2 -14 2h-14l-27 -2q0 2 -2 2q-10 -18 -18 -78v-8q-2 -4 -6 -4l4 -8l-2 -6q0 -4 -4 -5l2 -8v-4q0 -4 -5 -4l3 -6l-11 -78v-20q0 -4 -4 -4v-56l-4 -8q-4 -61 -4 -70q0 -4 -2 -4l-2 -34z" />
<glyph unicode="s" horiz-adv-x="897" d="M-53 305l2 19l2 36q29 29 43 29q51 -9 51 -51v-6h-2q35 -182 119 -226q33 -16 176 -36q109 0 184 57q92 63 107 162q5 36 5 68q0 113 -61 192q-10 33 -92 90q-10 12 -123 84q-135 125 -161 209q-43 59 -52 180q4 0 7 4q-8 0 -9 6l4 29q2 8 0 16q0 10 13 11l-6 10 q12 94 116 168q18 31 189 100q89 14 112 14l-4 -4l11 4q109 -10 143 -32q94 -59 129 -166q-1 -12 -1 -23q0 -22 3 -43q-6 -6 -6 -14q4 0 4 -4q-29 -33 -49 -33q-40 0 -40 37q0 6 1 14q-14 74 -51 90q-29 47 -95 70q-10 0 -67 2q-111 0 -260 -119q-35 -49 -49 -100 q0 -43 4 -66h-2q14 -70 82 -178q55 -70 125 -114q33 -25 86 -60l100 -90q66 -88 90 -180q6 -64 6 -106q0 -25 -2 -42l-4 -22q0 -8 2 -15q-37 -121 -90 -165q-98 -96 -227 -123q-8 0 -50 -8l2 4l-10 -4h-24q-119 10 -138 22l-8 -4q-31 8 -86 33q-2 -4 -4 -4q-55 39 -53 47 q-68 78 -68 139q-6 0 -24 92z" />
<glyph unicode="t" horiz-adv-x="1060" d="M96 1389q22 22 51 24q10 0 15 -4q4 0 6 4l16 -4h31q8 0 16 4l7 -4q4 0 14 4l20 -4l21 4l-2 -4q4 0 6 4q4 0 88 -10q8 4 12 4l19 -4q8 4 12 4l-2 -4l8 4q68 2 84 2q82 -6 109 -6v-4q4 0 4 4l26 -4h17q2 0 31 8h71l23 2l37 -6l8 4q18 -4 22 -4l72 6q49 0 47 -43q4 0 4 -2 v-4q-2 -8 -12 -8l2 -6l-8 -17q4 0 2 -4q-20 -2 -33 -12q-4 0 -2 4l-8 -4h-29q-14 0 -55 -23q-6 -4 -10 -4q-96 8 -136 8v2l-8 -2l-8 2q-2 0 -2 -2q-37 4 -45 6q-4 0 -6 -4l-19 4h-18q0 -4 -4 -10q8 -46 8 -66v-7q-10 -23 -12 -29q5 -5 5 -27q0 -17 -3 -43h-4q6 -12 2 -39 q0 -4 -4 -4l2 -8q0 -2 -4 -2l4 -8q-2 -8 -6 -15q0 -25 -3 -38q-2 -14 -6 -21q-2 -68 -14 -147l-4 -15q0 -4 4 -4q-18 -49 -39 -178l-4 -51q-4 -8 0 -15q-4 -6 -6 -14l-6 -37q0 -4 -4 -4l4 -6l-2 -12l-6 -21q4 -8 2 -10l-7 -20q2 -6 2 -11h-4l2 -8q0 -6 -4 -12q-2 -37 -4 -60 l-8 -47q0 -4 -4 -4l4 -8q-6 -6 -6 -10l2 -6q-4 -8 -4 -13l2 -16h-4l2 -8l-2 -8q0 -2 -4 -2l2 -9l-4 -37l-4 -43h-2l2 -8q-6 -39 -6 -71q0 -12 1 -23q-6 -6 -8 -14h4q-4 -31 -69 -47q2 8 -6 8q-2 -12 -11 -12h-4q-10 0 -10 83h2v9l12 100v18h4l-4 9l4 24q0 8 -4 15l9 8 q-2 25 0 41l4 10q0 2 4 2q0 4 -4 4l8 37l4 14q2 25 0 47q6 16 8 27l-4 6l6 8q-4 6 -2 15q0 4 4 4l-2 8l4 39q6 35 13 61q0 18 4 52h4l-4 8l2 6q0 4 4 4l-2 6l10 84q2 4 6 4l-4 8v2q0 4 4 5q0 4 -4 4q8 20 12 20l-2 8q0 2 6 23q0 4 -4 4q14 37 21 80q-4 0 -4 4h4v8 q0 65 26 344q-4 66 -10 66h-28q-10 0 -17 -4q-4 0 -4 4l-22 -4q-8 0 -154 8h-12q-4 0 -2 4l-11 -4q-4 0 -2 4l-8 -4h-43q-8 0 -12 4q-8 -4 -17 -4q-43 23 -41 33q4 6 7 10l-11 -4q-4 12 -4 37z" />
<glyph unicode="u" horiz-adv-x="1103" d="M-23 371q2 16 2 35.5t-2 44.5h5l-5 8l7 28q2 20 -4 21q0 6 2 6q4 43 6 64l4 24v23q4 8 4 12v10h4q0 4 -4 4l4 19v14v14q4 8 4 17l2 18q2 8 -2 15q4 6 8 14l2 22l-2 27q8 0 11 6l-3 12h5q0 4 -5 5l7 24l8 45q0 8 -2 15q2 10 14 51q-4 8 -4 12l8 2l-4 21q10 16 12 32 q-4 6 0 11q2 0 13 12l-6 14q8 16 18 47l-4 8q2 4 6 5q0 4 -4 10q10 41 12 71h4v11q14 70 21 69q0 4 -4 4q8 49 65 74h4q33 0 45 -41l-8 -6l2 -18q-10 -29 -12 -33q0 -4 2 -4q-12 -68 -18 -68l4 -8l-2 -10q-6 -47 -19 -68q4 -10 8 -10q-12 -43 -18 -43q0 -4 2 -4l-6 -19 q-2 -18 -21 -114h-4l4 -8q0 -4 -4 -5l4 -6q-2 -4 -6 -4l2 -8q0 -4 -4 -10v-33l-4 -23q0 -4 -4 -4l4 -8q-4 -4 -6 -4q0 -2 2 -2l-4 -14q0 -4 2 -13q-6 -20 -8 -32l2 -19h-4l2 -8q0 -2 -4 -2v-27l-2 -8l-7 -22q0 -4 5 -4q0 -4 -7 -11q-2 -51 -4 -69l-4 -9q-6 -74 -8 -159h-2 l8 -47l-4 -9q6 -88 33 -141q70 -113 153 -113q-2 -6 43 -8q4 0 5 4l18 -4h37q102 10 145 37q18 0 127 92q20 18 41 54q-4 0 -4 2q41 55 47 77l-4 9q4 14 8 14l-2 8q18 25 37 107q6 0 19 41q0 4 -5 4q20 57 37 129q-4 8 -2 12h4l-4 25l4 8q-4 6 -2 14h4q0 4 -4 4q6 25 15 33 l-9 4q12 41 17 51l-4 8q0 4 4 5v18l10 84q2 14 2 41q4 6 6 10l-6 17q0 4 4 10v28q4 4 6 13l6 133l5 6q-4 8 -2 16q0 4 2 4q-3 31 -3 59q0 37 5 70l2 19q12 0 24 27q23 6 29 6q0 -4 4 -4q0 12 4 12q27 -16 43 -35v-2l-6 -8q8 0 6 -6v-4q0 -4 -4 -5q0 -66 6 -65l-6 -8l-2 -27 q0 -8 2 -14l-4 -8v-15q-2 0 -4 -4q6 0 8 -28l-8 -21q-6 -111 -6 -151v-15h-4q2 -6 2 -10q-6 -6 -6 -10l6 -4l-4 -9v-10l-2 -22q-4 -8 -5 -13l2 -6q-4 -8 -4 -14l7 -4q-20 -74 -27 -78q8 -2 6 -8l-2 -37q-4 -25 -4 -47l-16 -60l4 -8l-27 -74q0 -4 2 -4q-27 -96 -49 -151 q2 -6 2 -10q-6 -39 -62 -138q-6 -47 -129 -159q-152 -100 -239 -101q-4 0 -12 -4q-4 0 -5 4q-29 -4 -55 -10l-6 4q-8 -4 -12 -4t-2 4l-21 -4l-16 4q-10 -4 -15 -4l3 4q-4 0 -5 -4q-102 0 -198 78q-90 94 -99 293z" />
<glyph unicode="v" horiz-adv-x="1107" d="M86 1319q2 4 6 4l-4 6v12q8 43 51 43q3 5 15 5q6 -2 6 -9l6 4h4q20 0 33 -61q-2 -4 -6 -4q8 -16 18 -86q29 -113 53 -270q16 -25 54 -328h-5q25 -115 29 -242q2 0 2 -4h-4q10 -100 25 -176v-8h6q49 106 102 203l-2 8q74 127 197 385q80 133 84 166q8 0 18 37l121 239 q25 63 35 64l-4 8q12 14 14 22q-2 6 -2 11q12 18 53 36h13q8 0 14 -4q6 4 10 4l8 -14l-2 -18q-16 -63 -47 -101l2 -8l-37 -61l2 -8q-70 -139 -166 -345q-14 -16 -65 -137q-6 0 -72 -121q0 -8 -88 -174q4 0 4 -4q-10 -8 -59 -114q-94 -203 -133 -259q-35 -31 -41 -30 q-56 0 -56 83q0 8 1 17q-35 209 -37 375l-54 414l-30 125h2q-14 51 -19 86l-22 79l4 9q-12 18 -29 122q-2 0 -8 19z" />
<glyph unicode="w" horiz-adv-x="1314" d="M88 1352q8 14 18 14h11q3 23 28 43l19 -2q6 2 8 2q14 -4 14 -10q-4 0 -4 -4q4 -8 17 -76l-4 -8q6 -12 6 -19h-4q0 -4 6 -84h-4q4 -14 2 -28h-2q6 -29 10 -123l-4 -8q10 -61 12 -119q10 -41 14 -129q4 0 5 -2q0 -4 -5 -4q12 -109 19 -285h-2q-1 -12 -1 -24q0 -34 9 -62 l-4 -8q2 -6 0 -17h-4q8 -79 8 -127q0 -24 -2 -39h2q45 121 88 207q20 33 37 84h2v8q16 43 27 43v5l-4 10q6 4 10 4v4q2 8 -2 14q6 6 6 15l-2 8q4 0 12 8q0 4 -4 4q41 86 55 148q27 39 45 112q2 0 19 27h12l-2 6v10h6v-10h2q2 10 10 10q2 0 2 -4q29 4 29 12q25 0 33 -96 q6 0 6 -28q-4 0 -4 -5q6 -2 31 -104l55 -186q2 -27 2 -31h-4q29 -100 43 -195h4q41 141 47 142h2q0 4 -2 4q8 25 12 33q-4 6 -2 16v8q2 4 7 4l-5 8q16 31 21 33l-4 8q12 23 12 29q-4 6 -4 10q14 23 41 117h4q0 2 -4 2q16 55 27 74l-4 8q8 29 14 29q-2 8 -2 12l6 12l-4 8 q18 37 20 37q0 2 -2 2q12 33 13 41q-4 6 -2 11q12 4 12 8v22q8 12 8 21q2 4 -2 4q4 8 12 49l2 2h-4v-6h-8l2 8q2 8 8 8q0 -4 2 -4l2 8l-6 11q4 0 15 26v10h4l4 23q0 2 -4 2q16 51 28 78v4h-4v-8h-2v10l10 12l-4 19q8 0 15 10l-2 8v6q8 41 28 64v4q-6 0 -4 6l6 4q4 0 4 -4 q35 14 47 14q0 -8 7 -8q0 4 4 4q2 -6 2 -10h8v6h8q0 -6 6 -16q-8 -2 -8 -8q0 -4 4 -5q-6 -6 -6 -10l2 -8q-6 -6 -6 -10l4 -6l-25 -54l5 -6l-2 -4q-23 -90 -27 -98l2 -6q-8 0 -25 -84h-4q-2 -4 2 -4q-12 -55 -47 -158q0 -2 4 -2q-35 -137 -65 -215q0 -4 4 -4l-6 -19 q0 -8 2 -8q-10 -37 -17 -43q0 -4 2 -4q-12 -43 -16 -43q0 -2 4 -2l-51 -158q-2 -16 -8 -24q-2 -4 2 -4q-6 -27 -12 -27q0 -2 4 -2q-23 -98 -25 -98q0 -4 2 -4q-14 -66 -33 -95q0 -4 4 -4q-10 -39 -16 -45l4 -8q-10 -31 -24 -31q-4 -31 -50 -43q0 -8 -12 -8q-39 10 -35 39 q-8 0 -18 74h4q-23 207 -59 317q-20 125 -70 291h-4q-8 -35 -23 -57q2 -8 2 -13q-6 -2 -34 -75l2 -9q-35 -70 -66 -168q-8 0 -53 -112q-6 0 -23 -53q2 0 2 -5q-6 -2 -37 -75q-31 -47 -77 -140q-12 -14 -45 -24h-13l-10 6h-2l-8 -2q0 2 -10 16q0 4 4 4q-4 31 -8 91h4 q-2 78 -11 100l7 6q-8 27 -5 29l5 8l-7 211l2 6q-5 74 -5 96q0 8 1 10q4 6 4 11q-8 0 -6 49q2 0 2 4q-8 0 -8 82q-6 20 -10 78h4q-12 84 -14 123h4q-16 72 -19 211h2l-8 67h4q-4 6 -2 37h2q-2 14 -8 115z" />
<glyph unicode="x" horiz-adv-x="1081" d="M-109 49q0 4 5 4l-5 6l5 4q45 53 165 234q63 72 66 88q131 164 252 330q-47 84 -195 393q-82 178 -80 197h5l-3 6l3 8q-8 0 -7 14l4 8q-4 6 -2 11q25 20 27 28h31l8 4v-6l10 2q8 -20 15 -20q20 0 79 -146q80 -180 111 -235q-2 -8 25 -59q23 -57 51 -97h2q150 209 219 287 q12 12 78 100q6 0 92 95q55 80 102 88h19q47 -35 47 -52h-4l4 -8v-4q-39 -27 -107 -115q-27 -18 -155 -170q4 0 4 -4q-14 -10 -250 -321q111 -170 289 -582q6 0 43 -80q-4 -8 -4 -14q6 -2 6 -8l-8 -4q-6 4 -15 4l6 -12v-3q-6 -10 -55 -30q-49 0 -133 223q-10 0 -86 180 q-14 16 -84 166q-12 10 -29 53h-8q-16 -14 -59 -73q-41 -47 -103 -131l-204 -267q-66 -109 -111 -141l-4 4q-31 -6 -33 -6q-14 0 -20 33h4z" />
<glyph unicode="y" horiz-adv-x="1107" d="M92 1399q10 27 19 26h4q4 0 4 -4q6 4 10 4l14 -4q8 4 13 4l4 -12l8 4q27 -29 113 -207q23 -31 100 -196q39 -70 108 -221q6 0 62 77q115 137 227 304q31 25 152 202q6 0 49 64q14 22 20 22h5q4 0 4 -4l6 4h14q24 -27 24 -49q0 -3 -1 -6q0 -8 -41 -64q-2 -8 -60 -81 q-131 -186 -241 -318q-45 -74 -158 -205q-29 -43 -35 -77q-2 -25 -6 -44v-8q-4 -14 -6 -24q-2 -4 2 -4l-4 -21l-6 -29q0 -4 -4 -4l2 -6v-14q0 -4 -5 -4q-2 -4 0 -4l-4 -19l-10 -73q0 -4 -4 -5l2 -8l-20 -151q-2 -8 2 -15q-4 -6 -9 -14v-10v-27h-4l2 -8q-6 -70 -8 -96h-4 l2 -6q-8 -63 -51 -64q0 -4 -4 -4q-34 0 -34 53q0 8 1 17h4l-4 8l2 4q0 8 4 14v15v4q0 4 4 4q-2 8 -2 10q18 176 23 209l16 113q0 4 4 4q-4 8 -4 12q2 6 13 41l-5 6l9 23v4q0 8 -4 14l8 6l-2 25v2q0 4 4 4l-2 6q0 4 4 4l-4 8l8 41q0 16 8 41q-100 217 -172 340q2 12 -39 88 l-94 174q-34 39 -34 86q0 10 1 19z" />
<glyph unicode="z" horiz-adv-x="1089" d="M-88 66q25 39 63 84q20 39 78 110q4 12 121 150q51 68 174 198q84 96 121 150q18 12 88 110q47 45 211 252q96 100 104 129q45 45 60 68q-4 0 -4 2l-8 -2h-48q-12 0 -12 -4l-16 4h-109q-4 0 -4 2l-6 -2q-27 2 -31 2q-8 0 -8 -2l-37 2h-20q-72 0 -107 8q-37 -4 -67 -4h-23 l-26 -4v4q-8 -4 -41 -6v2l-7 -2q-4 0 -4 2q-4 0 -4 -2l-24 2h-27q-8 0 -14 -2q-70 0 -78 61l2 4q4 36 76 52v-4l8 4q29 -6 43 -7q66 2 80 3q6 -2 10 -3q6 2 10 3q4 0 2 -3l70 7v-4q4 0 4 4q2 0 10 -4q14 0 66 4q14 0 82 -7q2 0 14 3l18 -3l9 3q23 -2 20 -7l8 4h19q20 0 53 3 q12 -6 29 -7h133q8 0 14 4q6 -4 10 -4l9 4q23 -4 43 -22q14 -5 14 -16q0 -6 -12 -39q6 -12 4 -23l-8 -4q0 -4 4 -4q-4 -25 -84 -111q-2 -16 -113 -133q-2 -6 -78 -92q0 -8 -57 -78q-53 -76 -107 -129q-2 -10 -188 -233q-29 -20 -98 -115q-33 -33 -101 -115q4 0 4 -4 q-23 -14 -59 -65q-33 -29 -72 -105q-12 0 -24 -33q6 -4 10 -4q8 4 12 4l-2 -4q4 0 6 4q6 0 6 -4q2 0 50 4q88 -4 102 -4l8 4l6 -4l9 4l8 -4l8 4q12 -4 12 -8q10 2 45 8l8 -4q2 0 5 4q41 -8 79 -8l33 4v-4l8 4h15q8 -2 8 -8l6 4q86 4 86 8q14 -4 14 -8l9 4h24q4 0 4 -4l9 4 h88l47 4l-2 -4q4 0 4 4l24 -4h27q35 -20 35 -36v-5q-14 -55 -37 -55q0 -4 -4 -10l-19 4h-8l-18 -4v4l-8 -4q-4 0 -3 4l-8 -4q-18 4 -22 4q-6 0 -8 -4l-25 4h-43q-10 0 -16 -4l-7 4l-20 -4l-6 4q-8 -4 -12 -4l-7 4q-8 -4 -16 -4h-2q-4 0 -4 4l-8 -4h-4q-4 0 -2 4l-9 -4h-59 l-21 -4l3 4l-9 -4h-30q-8 0 -15 -4q-12 4 -10 8q-8 -4 -12 -4q-47 0 -144 4l-8 -4l-6 4q-6 0 -8 -4l-139 8q-27 -6 -27 -12q-8 4 -12 4q-6 -4 -11 -4v4q-20 -6 -20 -12q-12 8 -39 8q-2 0 -10 -4q-6 4 -15 4q-4 0 -12 -4q-4 0 -31 26q-10 0 -22 56z" />
<glyph unicode="{" horiz-adv-x="544" d="M0 723v8l6 6h-4q2 20 25 37q117 51 118 60q27 0 62 110q-4 0 -4 4q4 6 4 17q2 8 0 14l10 27h-4q2 6 10 24q0 4 -2 12q8 37 12 60l9 69q14 84 57 162q43 94 145 142h21q25 0 80 4l45 -54q-6 -39 -98 -39q2 2 -3 3q-31 -12 -53 -29q-35 -25 -71 -141h4q-8 -43 -17 -48h4 q0 -8 -4 -16q0 -4 2 -10q-12 -68 -18 -115l-2 -4l-4 -18q2 0 2 -2q-20 -88 -43 -150q-53 -94 -125 -129q18 -31 37 -115l-6 -8q6 0 6 -37q-4 0 -6 -4q4 0 4 -33q-4 -6 -4 -10l2 -8l-7 -6q4 0 5 -4q-4 -25 -13 -56q0 -4 4 -12l-8 -20l-4 -41l-2 -27q-2 0 -2 -4q-2 -4 0 -10 q0 -4 -4 -13q-4 -225 16 -225q-6 -37 111 -55q2 4 4 4q0 -8 10 -8q12 -29 19 -29q0 -4 -4 -4q-2 -6 4 -18q-41 -33 -64 -33q-68 8 -65 14q-76 0 -97 43q-39 47 -43 195q4 0 4 2q-4 0 -4 4l2 4q4 33 0 63l4 7q-2 33 3 73q2 4 6 13l-4 4l4 16l4 37l6 8h-4q2 12 6 19v53 q2 0 4 4q6 90 0 90l2 8h-2q-4 49 -47 88l-8 -2h-4q-14 6 -29 29z" />
<glyph unicode="|" horiz-adv-x="204" d="M-121 -311l6 35q2 12 0 20l6 10l15 154q2 4 4 4q2 55 20 154q2 0 2 4q-6 0 -6 10l6 10q-2 10 -2 14l7 11v16l6 10q-4 8 -2 21h4l-2 8l16 98q4 20 4 41q6 18 12 39l5 31q0 12 -3 20l9 11q0 6 -4 6l8 24l2 27h2l-2 8q0 6 4 6l-2 11l6 30v4v17q25 190 33 227v27l6 10 q4 61 4 70q0 6 2 6q10 68 16 100l25 143v31q4 8 8 25l2 24h4l-4 11q2 6 4 6l-2 10l2 14q12 66 9 103q4 10 6 20l2 21h2q-2 18 4 55v14q4 12 6 23q2 10 8 76l4 10l2 30l45 23h23q16 0 14 -109l-6 -34l4 -17v-4q-2 -10 -6 -20v-11q0 -4 -4 -4l-18 -219l-7 -10v-31l-2 -10 q0 -4 -4 -4v-10l-10 -52q0 -6 -2 -4l2 -12l-2 -14q-2 -4 -4 -4l2 -11l-10 -51q-25 -137 -45 -329h-4l2 -11v-10q-2 -4 -5 -4v-12l-6 -45l-4 -35h-4l2 -10q0 -6 -4 -7l2 -10q-2 -4 -6 -4l2 -10l-49 -295l-6 -62h-4l2 -10l-11 -65q-4 -18 -6 -45l-4 -11q-20 -195 -26 -301 q-8 -10 -9 -14l5 -10q-16 -35 -35 -49h-29q-4 0 -4 6l-6 -6q-16 2 -27 47z" />
<glyph unicode="}" horiz-adv-x="593" d="M-37 -16q6 12 8 18q-4 0 -2 4q4 0 25 29q10 0 10 8q4 0 4 -4q121 18 125 55q20 0 80 225q-2 8 -2 13q4 6 6 10q0 4 -4 4l8 27l4 41v20q6 8 6 12q0 31 5 56q0 4 4 4l-4 6l6 8q0 4 -4 10q10 33 14 33q0 4 -4 4q10 37 16 37l-2 8q39 84 68 115q-61 35 -90 129q-6 61 0 150 q0 2 4 2l-2 18l2 4q6 47 12 115q4 6 4 10q-4 8 -4 16h4v48h4q-4 117 -31 141q-18 16 -45 29q-2 0 -4 -3q-92 0 -86 39l60 54q55 -4 80 -4h18q88 -47 106 -142q23 -78 11 -162l-11 -69q-2 -23 -4 -60q-4 -8 -4 -12q4 -18 4 -24h-4l4 -27q-6 -6 -8 -14q0 -10 4 -17q0 -4 -4 -4 q0 -111 29 -110q-2 -8 102 -60q14 -16 13 -37h-5l5 -6l-2 -8q-23 -23 -37 -29h-4l-7 2q-53 -39 -71 -88h-4l4 -8q-8 0 -29 -90q-2 -4 2 -4l-14 -53q4 -6 2 -19h-4l2 -8l-4 -37l2 -16l-11 -4q4 -8 3 -13q-4 -41 -19 -73l4 -7q-10 -31 -14 -63l-2 -4q0 -4 -4 -4q0 -2 4 -2 q-49 -147 -98 -195q-35 -43 -111 -43q0 -6 -68 -14q-23 0 -51 33z" />
<glyph unicode="~" horiz-adv-x="778" d="M-8 588h4l-4 6l6 41q4 12 20 59q51 78 103 101q33 16 47 16q4 0 2 -2l8 2h21q78 0 196 -172q35 -23 45 -23h13q51 25 51 33q12 23 18 23l-4 8v2q2 4 6 4q-2 8 -2 49q4 0 4 2q-6 0 -6 8h4l-2 9v4l47 51q8 2 13 2q49 -4 47 -25q2 -8 0 -12q-4 -6 -4 -10q4 0 10 -10l-2 -4 q-2 -10 -10 -23v-18q-16 -115 -136 -185v4q-35 -18 -51 -18q-6 2 -14 2q-8 -2 -12 -2l2 2l-9 -2q-100 45 -110 84q-10 0 -74 92q-27 31 -74 31q-66 -43 -77 -119q2 -14 -2 -33q-2 0 -25 -22h-35l-4 4q-2 -4 -4 -4q2 4 -2 4l4 6q-10 16 -8 35z" />
<glyph unicode="&#xa1;" horiz-adv-x="276" d="M-27 2l4 31q4 20 5 59q0 4 4 4v19l4 28q2 20 2 54q0 2 4 2l-2 18l4 23l4 16q2 41 -2 41l6 16l14 105q2 8 0 14q0 4 3 4l6 121h4v41l4 8v49h4l-2 97h4l-2 6l2 26l4 158h4q-2 10 -2 45h4l-4 8l2 6q0 4 4 5l-4 8l4 8q0 2 4 2q0 4 -4 4l6 19l7 36l4 9l-9 4q10 8 23 73 q27 33 76 33l37 -33l-6 -8l6 -10l-4 -8l2 -6q-18 -59 -23 -72l2 -14q-4 -6 -6 -15q0 -4 4 -4l-6 -18q-14 -98 -18 -363l-5 -8v-47q0 -4 -4 -4l2 -84h-4v-8l-14 -117q0 -2 -4 -2l2 -8q-14 -70 -17 -97q-2 -4 3 -10q-6 -6 -7 -14l-6 -39l2 -20l-6 -9l4 -8q-2 -6 -6 -14 q-4 -70 -10 -152q-23 -41 -57 -41q0 8 -9 8l-10 -8h-6q-29 4 -25 33zM86 1294v4q0 4 2 5v6v4q5 42 66 69q6 -2 10 -2l6 2q37 -16 41 -55v-6h-4l4 -18q-12 -33 -35 -46h-10q-63 0 -80 37z" />
<glyph unicode="&#xa2;" horiz-adv-x="1138" d="M-20 477q-4 33 2 121l6 8q-4 8 -4 12q4 25 12 25q0 4 -4 4l6 19l2 49q35 240 231 506q168 166 310 165q29 4 30 9l19 -4h43h10v2l59 127q37 18 39 28h31q4 0 2 -4l10 4h4q35 -27 27 -63q0 -12 -49 -113q20 -6 41 -10q12 -14 70 -41q20 -25 20 -27l-6 -41q-14 -18 -31 -18 v4l-8 -4h-2q-49 37 -127 51q-33 -74 -76 -199l-416 -964q109 -76 232 -76q160 0 309 170q8 0 27 16q10 -4 8 -8l8 4h16l5 -4q2 4 6 4l12 -18q-6 -6 -6 -14q6 0 6 -13l-4 -8v-10q-102 -111 -160 -137q-70 -39 -98 -39q-16 -12 -90 -21v4l-8 -4h-37q-106 12 -115 21l-10 -4 q-78 25 -133 57q-14 -35 -21 -35v-20q-23 -51 -61 -51l2 4l-10 -4h-5q-47 29 -38 67q18 39 24 39q0 4 -4 4q17 37 33 72q-10 8 -31 24q-129 197 -108 334zM68 436q4 -109 86 -231q94 221 125 272q0 6 -5 6q43 94 45 101q-4 0 -4 4q6 0 25 59q12 18 16 19l-4 8q23 53 29 53 l-2 8q35 76 119 277q30 55 108 286h-6q-12 -4 -25 -4v4q-53 0 -153 -41q-123 -88 -137 -129q-113 -154 -119 -206q-39 -86 -55 -138q-2 0 -2 -4l-5 -32q0 -4 -4 -5v-8q-16 -78 -18 -92q-2 -8 2 -14q-8 -20 -10 -33v-4q-6 -41 -2 -72h-4q0 -55 4 -84h-4z" />
<glyph unicode="&#xa3;" horiz-adv-x="911" d="M-94 659v9q4 0 20 18q14 0 47 19l33 -5q29 0 105 5v18l2 27q2 10 6 10v18l4 45q4 29 14 70q-2 6 -2 10h4q0 4 -4 4q16 74 19 78l-2 8l2 6q4 4 0 5q8 41 12 40l-4 9q41 152 49 151q0 2 -4 2q12 37 31 62q-4 0 -5 2q10 0 23 35q107 135 291 135q10 0 24 -6l9 4 q66 -12 145 -101h2l-4 -18q12 -6 10 -27l-2 -12q-29 -33 -49 -33l-18 -4q-68 98 -177 98h-12q-27 -8 -29 -8v4q-84 -27 -129 -77q-27 -33 -61 -156h-4q0 -4 2 -4q-14 -47 -18 -78l4 -6q-4 -8 -13 -35q-2 -8 2 -14q-10 -31 -12 -52l-2 -18q0 -8 -6 -14q2 -8 2 -17l-4 -28 q0 -4 -2 -4q-2 -25 2 -25l-6 -21l-6 -28l2 -19h-4q0 -4 4 -4l-7 -18v-4q76 -6 107 -6q2 0 2 4l18 -4h27q20 0 51 -4q6 4 15 4v-4q4 0 4 4q31 -4 49 -4q4 0 10 4q29 -4 37 -9l18 5q31 -4 37 -5l27 9q53 -14 51 -31v-6q-14 -12 -25 -45l-38 -13l-9 4l-6 -4q-20 4 -30 4 q-12 0 -19 -4q-25 4 -41 4h-33q-4 0 -4 5q-6 -4 -10 -5l-8 5q-6 -4 -10 -5v5l-9 -5q-33 4 -41 5l-20 -5q-20 4 -35 5l-20 -5q-16 4 -27 5q-14 0 -35 -5q-18 4 -39 5l-2 -15q-6 -43 0 -59l-8 -8q4 -41 0 -60h-4q4 -6 2 -43l-4 -14q2 -35 2 -49h-4v-8v-15v-37h-4q-4 -4 0 -4 q-29 -129 -68 -194q-4 0 -4 -4l-2 -4q39 -4 39 -9q2 0 2 4q41 -8 164 -14q18 4 29 4l14 -4q14 4 26 4v-4l9 4l24 -4l33 4q12 0 18 -4q39 4 62 4h113q10 0 16 2q41 0 29 -69q-14 -27 -45 -33q0 -4 -5 -4l-32 4l-19 -4l-8 4l-16 -4q-39 4 -45 8q-6 -4 -45 -8l-9 4l-20 -4h-27 q-4 0 -4 4l-8 -4l-25 4l-8 -4q-6 4 -14 4h-4q-8 0 -15 -4q-6 4 -14 4q-6 -4 -10 -4v4l-8 -4h-4q-4 0 -5 4q-6 -4 -10 -4q-49 2 -47 8l-8 -4q-8 0 -14 4q-8 -4 -17 -4q-57 8 -86 14q-4 0 -4 -4l-16 4h-58q-8 0 -16 -4q-4 4 -8 4l-27 -4q-39 0 -28 64q35 53 59 53q27 37 57 92 q0 2 -4 2l19 45q0 4 -5 4l13 37q0 18 2 37q2 12 6 18v47l4 9q-2 43 0 53l4 6q-2 6 -2 10h2v45h4q-2 6 0 52h4q-6 18 -2 45h-4q-31 -8 -74 -11v2q-6 -4 -34 -6v4l-56 -12q-31 25 -24 59z" />
<glyph unicode="&#xa4;" horiz-adv-x="714" d="M-14 481l2 17l8 10h-6v6q88 78 90 86q-12 27 -17 115q20 55 41 92q-12 0 -55 74q-6 0 -12 14v4l4 8q-14 0 -12 11q0 4 4 4v18q4 41 22 41q3 0 13 4q18 -4 26 -10l8 4q55 -74 64 -105h4q2 10 121 41v-4l8 4q33 0 78 -26h6q2 16 96 86q6 4 21 4q41 -20 39 -39l-2 -6 q-4 -39 -99 -119h-4v-4q23 -47 21 -66l-2 -12q0 -4 -4 -4q0 -4 4 -4l-4 -16q-4 -14 -3 -21q-6 -31 -26 -61l59 -101l2 -18q-10 -27 -32 -51v-4h-13q-39 0 -61 61l-19 23q-68 -55 -129 -56v4l-8 -4q-27 0 -96 31q-78 -82 -100 -82q-25 0 -37 51zM145 705q18 -119 62 -119 q80 0 141 92q18 41 19 47q-2 8 0 12q2 0 2 4q-10 0 -11 7l2 8l5 8q-8 0 -25 33q-39 14 -64 14q-109 -27 -114 -78q-9 1 -17 -28z" />
<glyph unicode="&#xa5;" horiz-adv-x="1032" d="M92 1399q10 27 19 26h4q4 0 4 -4q6 4 10 4l14 -4q8 4 13 4l4 -12l8 4q27 -29 113 -207q23 -31 100 -196q39 -70 108 -221q6 0 62 77q115 137 227 304q31 25 152 202q6 0 49 64q14 23 20 22h5q4 0 4 -4l6 4h14q27 -31 23 -55q0 -8 -41 -64q-2 -8 -60 -81 q-131 -186 -241 -318q-29 -47 -86 -119q2 2 4 2t2 -4l8 4h37v-4l4 4h14l10 -4q4 4 11 4h2q2 0 6 -4l4 4l2 -4q2 0 2 4l6 -4q16 4 21 4v-4q6 8 12 8h4q8 0 6 -45h2q-4 -39 -20 -47q-2 0 -2 -4l-13 4h-32q-2 0 -2 2l-4 -2h-13q-4 0 -6 2q-4 -2 -6 -2t-6 2q-2 0 -2 -2l-8 2 l-9 -2q-4 2 -6 2l-6 -2q-4 0 -4 2l-20 -2h-7q-16 0 -45 2q-2 -2 -6 -2q-4 2 -6 2l-2 -2q-2 0 -2 2l-2 -2q-29 -43 -35 -77q-2 -25 -6 -44l-2 -2h35q4 0 4 -4l6 4h33l22 -4q6 4 19 4h4q8 0 14 -4l8 4l6 -4q4 0 5 4l16 -4q33 4 41 4v-4q14 6 31 6h12q14 0 18 -43h4 q-6 -41 -41 -49q-4 0 -4 -4l-24 4h-76q-2 0 -2 4l-8 -4h-27q-6 0 -14 4q-6 -4 -15 -4q-4 0 -12 4q-2 0 -2 -4l-18 4l-19 -4q-8 4 -12 4l-14 -4q-2 0 -4 2v-6v-14q0 -4 -5 -4q-2 -4 0 -4l-4 -19l-10 -73q0 -4 -4 -5l2 -8l-20 -151q-2 -8 2 -15q-4 -6 -9 -14v-10v-27h-4l2 -8 q-6 -70 -8 -96h-4l2 -6q-8 -63 -51 -64q0 -4 -4 -4q-39 0 -33 70h4l-4 8l2 4q0 8 4 14v15v4q0 4 4 4q-2 8 -2 10q18 176 23 209l16 113q0 4 4 4q-4 8 -4 12q2 6 13 41l-5 6l5 12q-29 2 -70 4q-8 -4 -17 -4q-6 4 -10 4l-8 -4q-2 0 -2 4l-72 -8q-66 12 -59 37q0 18 45 41 q0 12 6 12l8 -4q4 0 4 4q4 0 11 -4q94 8 168 8l4 -2l8 37q0 16 8 41q-12 25 -22 47h-13q-2 0 -2 2l-4 -2h-12q-4 0 -6 2q-4 -2 -9 -2q-2 0 -6 2v-2l-10 2l-8 -2q-4 2 -6 2l-6 -2q-4 0 -4 2l-23 -2h-6q-16 0 -45 2q-4 -2 -8 -2q-4 2 -7 2l-2 -2q-2 0 -2 2l-34 -6 q-31 10 -27 37q2 16 25 41q2 10 6 10l2 -4q2 0 4 4l4 -4q45 8 80 8q2 0 10 -4q4 4 6 4t2 -4l8 4h37q2 0 2 -4l4 4h7q-59 123 -107 205q2 12 -39 88l-94 174q-41 47 -33 105z" />
<glyph unicode="&#xa6;" horiz-adv-x="247" d="M-106 -47l8 27l10 73q0 4 2 4v6l2 27q2 8 6 14q-2 6 -2 17q2 4 6 10q0 2 -4 2l8 21l-2 16q4 8 4 12v15q0 8 2 8l5 45l2 14q6 35 16 96q-2 6 0 15q4 8 4 10l-2 8q0 4 4 4l2 70q20 68 43 68q18 0 35 -41q10 0 10 -9l-4 -6q0 -4 4 -4q-2 -4 -6 -10q-4 -94 -14 -168 q0 -2 -8 -23q4 -6 2 -10q0 -4 -4 -4l2 -18l-11 -78q-2 -4 -6 -4l4 -6l-6 -33l-6 -25q2 -6 0 -16v-4q0 -8 -4 -17l4 -6l-6 -8q0 -2 4 -2l-6 -16q0 -33 -2 -41h-2q2 -13 2 -29l-2 -10q-2 -16 -47 -27v-4q-41 0 -43 33q0 4 -4 4zM29 948l10 27l8 74q0 4 4 4l-2 6l4 26q0 8 6 15 q-4 6 -2 14q0 4 6 12q0 2 -4 2l7 21l-3 16q4 8 5 13l2 14q0 8 2 8l4 43l2 17q4 33 16 96q-2 6 -2 14q4 6 4 10v9q0 4 2 4l2 69q23 68 50 68q16 0 32 -41q12 0 13 -8l-7 -6q0 -4 5 -5q-2 -4 -7 -12q-4 -92 -16 -166q0 -4 -6 -22q4 -6 2 -10q0 -4 -4 -5l2 -18l-10 -78 q-2 -4 -7 -4l5 -6l-7 -35l-6 -22q2 -6 2 -19v-4q-4 -6 -8 -14l4 -6l-6 -9q0 -4 4 -4l-6 -14q0 -33 -2 -41h-2q4 -13 2 -29l-2 -12q-2 -14 -47 -25v-4q-41 0 -45 33q0 4 -4 4z" />
<glyph unicode="&#xa7;" horiz-adv-x="667" d="M-123 -88l2 12v29q20 23 33 22q45 -6 43 -43h-4q35 -135 98 -163q27 -10 137 -23q82 4 140 51q68 49 75 123q10 123 -53 197q-6 25 -72 65q-8 8 -96 58q-86 70 -117 122h-2v3l-14 28q-35 43 -45 135q2 0 4 4q-6 -2 -6 5l2 22q0 6 -2 10q2 8 2 11l2 6q8 72 84 131 q12 25 141 82q68 14 84 16v-4l6 4q37 -2 64 -6q-18 14 -43 31q-10 10 -98 57q-109 90 -131 154q-35 45 -45 135q2 0 2 4q-6 0 -7 4l5 23q0 6 -3 12q0 8 9 8l-4 6q6 74 82 131q14 25 143 82q66 16 84 17v-3l4 3q86 -4 113 -21q74 -41 104 -121q0 -27 2 -49q-2 -4 -2 -10 q2 0 2 -4q-20 -27 -35 -27q-37 -2 -33 39q-14 55 -40 66q-25 35 -76 49h-54q-82 -4 -192 -101q-29 -39 -37 -77q2 -33 6 -50h-2q12 -53 72 -131q45 -51 100 -84q25 -16 66 -41l80 -63q57 -66 75 -133q12 -78 9 -113v-16v-13q-25 -92 -64 -129q-72 -76 -170 -102q-6 0 -37 -4 v2l-6 -4h-18q-33 0 -58 2q29 -25 62 -41q23 -18 65 -41l80 -66q55 -66 76 -135q10 -78 6 -110v-19q0 -6 2 -10q-25 -92 -63 -129q-72 -76 -170 -100q-6 0 -37 -9v5l-6 -5h-19q-92 2 -106 11l-6 -2q-25 6 -68 20l-2 -2q-43 29 -43 35q-53 55 -57 100q-4 0 -23 72zM72 559 q2 -33 6 -49h-2q10 -37 39 -86q31 -8 133 -21q84 4 139 52q68 49 78 123q2 35 -2 65q-12 37 -35 45q-25 35 -74 49h-53q-84 -4 -192 -98q-27 -41 -37 -80z" />
<glyph unicode="&#xa8;" horiz-adv-x="614" d="M-8 1317l8 6q-4 6 -4 16q53 59 90 60h14q59 -18 54 -49q8 0 2 -33h-4l4 -8q-4 -31 -76 -60h-14q-41 0 -70 54q0 8 -4 14zM295 1321q-4 0 0 14q4 41 72 64h28q33 -18 51 -62l-8 -16l-2 -27q-37 -49 -74 -49q-76 10 -67 76z" />
<glyph unicode="&#xa9;" horiz-adv-x="1673" />
<glyph unicode="&#xaa;" horiz-adv-x="647" />
<glyph unicode="&#xab;" horiz-adv-x="911" d="M-8 641l4 23q0 4 4 4l-4 6v4q4 31 57 59q4 0 156 121q6 0 131 76q4 0 2 -4l20 4h25q31 -18 25 -60q-27 -29 -162 -104q-43 -39 -123 -88v-4q70 -33 287 -119q18 -23 16 -29l-4 -8q4 -6 2 -14v-4q-39 -35 -45 -37q-23 0 -156 55q-205 78 -231 115q-4 0 -4 4zM340 672l2 20 q0 4 4 4l-2 9v4q4 31 59 59q4 0 156 121q8 0 131 74q4 0 4 -2l19 2h26q31 -18 25 -60q-29 -29 -164 -102q-43 -39 -123 -88v-4q72 -33 289 -119q16 -25 16 -31l-4 -6q4 -6 0 -14v-4q-37 -37 -45 -37q-23 0 -155 55q-205 78 -236 115q-2 0 -2 4z" />
<glyph unicode="&#xac;" horiz-adv-x="1116" d="M16 655v7q8 41 33 49q23 18 37 18h2q4 0 4 -4l8 4q43 -4 43 -8l9 4l14 -4l6 4l8 -4q8 4 13 4l14 -4q6 4 10 4v-4q4 0 4 4l19 -4q4 0 4 4l18 -4h144q25 0 73 4v-4l8 4q2 0 23 -4l6 4q4 0 4 -4l37 4h31l18 4v-4q8 4 12 4q43 0 68 6q2 0 2 -4q70 6 76 8l6 -4q23 4 31 4v-4 l8 4q2 0 2 -4q8 4 12 4q25 0 123 4q37 0 31 -125h-4q2 -8 2 -12l-8 -24q0 -4 4 -4q-20 -86 -25 -97q0 -4 4 -4l-8 -26l-4 -25v-23q-2 -8 -4 -12q2 -18 -2 -37q-47 -37 -90 -37q-23 20 -23 41l8 9q0 4 -4 4q8 25 13 32q-4 6 0 15v8q0 2 4 2q0 4 -4 4l6 17q6 45 24 133 q0 2 -4 2l8 22v37l-413 -18h-49l-37 -4v4l-9 -4h-18q-4 0 -2 4l-8 -4h-127q-4 0 -2 4q-4 0 -4 -4l-37 4h-60q-8 0 -16 -4q-4 4 -12 4q-4 0 -13 -4q-47 4 -43 30q-4 0 -4 4z" />
<glyph unicode="&#xad;" horiz-adv-x="669" d="M0 674q0 16 47 41q2 10 8 10l8 -4q4 0 5 4q4 0 10 -4q92 8 168 8q2 0 20 -4q8 4 13 4q4 0 4 -4l16 4h80q4 0 4 -4l6 4h33l22 -4q6 4 19 4h4q8 0 14 -4l8 4l7 -4q4 0 4 4l14 -4q35 4 41 4v-4q17 6 33 6h10q14 0 16 -43h4q-14 -41 -47 -49q-4 0 -6 -2l-24 2h-74q-4 0 -4 4 l-6 -4h-27q-8 0 -14 4q-6 -4 -17 -4q-4 0 -10 4q-4 0 -4 -4l-18 4l-19 -4q-6 4 -10 4l-14 -4q-8 0 -9 4l-45 -4h-14q-35 0 -96 4q-6 -4 -15 -4q-8 4 -12 4l-6 -4q-4 0 -4 4l-72 -6q-59 10 -51 37z" />
<glyph unicode="&#xae;" horiz-adv-x="1673" />
<glyph unicode="&#xaf;" horiz-adv-x="1187" d="M0 1333q0 35 23 41q0 4 36 27q20 -4 29 -4q8 4 12 4v-4l9 4q10 0 10 -4q41 4 53 8q2 0 2 -4l86 6v-2q6 2 10 2q8 0 9 -2l26 2h84l23 4q4 0 4 -4l18 4h4l23 -4l8 4q2 0 10 -4q8 0 39 4q51 -4 64 -4l26 4l8 -4q6 4 11 4q6 0 32 -6q6 2 17 2v-2l6 2h27q8 0 14 -2l6 2 q27 -2 27 -6l18 4h76q2 0 2 -4l18 6q4 0 4 -2l19 2h10q20 0 35 -2l86 6q37 -6 33 -37q0 -8 6 -8q-4 -23 -25 -33q0 4 -2 4l-6 -8q4 0 4 -4q-23 -10 -39 -10l-24 4q-8 -4 -13 -4q-18 4 -18 8q-12 -8 -29 -8h-45q-4 0 -4 4l-8 -4h-43q-4 0 -4 4l-37 -8q-10 4 -10 8l-8 -4h-27 q-8 0 -14 -4l-9 4l-6 -4q-14 4 -14 8q-4 0 -4 -4l-27 4h-10q-8 0 -14 -4q-8 4 -17 4h-18q-8 0 -14 -4q-23 4 -23 8l-6 -4q-4 0 -4 4l-19 -4h-63q-4 0 -2 4q-8 -4 -12 -4q-20 0 -64 -4l-18 4q-4 0 -5 -4l-18 4h-2q-10 0 -16 -4q-4 0 -4 4l-23 -4l-33 4q-6 -4 -10 -4v4 q-4 -4 -55 -8q-14 4 -17 4l-41 -8l-6 4q-29 -6 -51 -6l-8 2q0 -6 -8 -7l-9 5q-2 0 -2 -5q-43 0 -59 33z" />
<glyph unicode="&#xb0;" horiz-adv-x="417" d="M0 1325v10q23 55 45 64q82 70 145 69q1 5 5 5q55 0 102 -82v-33q-12 -80 -94 -137q-16 -6 -27 -7l-14 3l-8 -3q-4 0 -2 3l-21 -3h-10l-6 3q-2 -6 -9 -7h-8q-111 35 -98 115zM96 1321q31 -27 43 -27q39 0 54 64q4 18 -15 31q-8 -1 -26 -13q0 4 -5 4q-47 -45 -51 -45v-14z " />
<glyph unicode="&#xb1;" d="M-43 373q0 16 43 41q0 12 8 12l8 -4q2 0 2 4q4 0 13 -4q94 6 168 6q2 0 20 -2q8 2 12 2t2 -2l21 2h78q4 0 2 -2l8 2h33l22 -2q6 2 19 2h4q8 0 14 -2l8 2l7 -2q4 0 4 2l14 -2q35 2 43 2l-2 -2q15 6 31 6h10q14 0 20 -45h4q-6 -39 -41 -47q-4 0 -4 -4l-24 4h-76q-2 0 -2 2 l-8 -2h-27q-8 0 -14 2q-6 -2 -15 -2q-4 0 -12 2q-2 0 -2 -2l-18 2l-19 -2q-8 2 -12 2l-14 -2q-8 0 -9 2l-43 -2h-16q-33 0 -94 2q-8 -2 -17 -2q-6 2 -10 2l-8 -2q-2 0 -2 2l-72 -6q-63 10 -57 37zM-2 764v4q2 18 57 63q10 -4 11 -8l6 4l14 -4q4 0 4 4l19 -4h49q4 0 4 -4 q6 4 10 4q27 -4 31 -4t4 4l16 -4h23q4 37 6 88h4q-4 4 -4 45h4l-2 9l2 24q2 4 6 4l-4 8l2 4q0 14 39 52v-9h2q5 23 25 23q31 0 30 -66h-4l2 -8v-4q-2 -4 -6 -4l4 -6l-2 -4q0 -8 -4 -14q2 -8 2 -13h-4l2 -6l-2 -18q-2 -20 2 -45h-4q2 -8 0 -56h4l27 4v-4q6 4 10 4t4 -4 q35 6 170 11v-3l53 11q25 -18 29 -37l-4 -8v-19q0 -12 -23 -33l-8 5q-2 0 -22 -5l-17 5l-10 -5q-2 0 -2 5l-18 -5h-27q-12 0 -33 -4q-6 4 -10 4l-25 -4v4q-14 -8 -39 -8h-26q-8 0 -17 -2q-6 2 -10 2q-6 -2 -10 -2l-12 -200q-4 -6 -29 -33l-6 4h-4l-17 -12q-6 0 -53 32l8 9 v16v16h4l-4 8l13 87q8 55 0 69l-45 4q-6 -4 -15 -4v4q-4 0 -4 -4l-18 4h-56q-4 0 -4 2q-18 -2 -18 -6q-57 6 -68 19q-2 -4 -6 -5z" />
<glyph unicode="&#xb2;" />
<glyph unicode="&#xb3;" />
<glyph unicode="&#xb4;" horiz-adv-x="466" d="M8 1417v4q4 29 53 64q3 2 7 2h24q74 -86 205 -207q10 -29 10 -33q-6 -39 -57 -49q0 4 -4 4q-2 -8 -8 -8h-9q-20 0 -30 27q-8 0 -88 77q-74 57 -103 119z" />
<glyph unicode="&#xb5;" horiz-adv-x="1179" />
<glyph unicode="&#xb6;" horiz-adv-x="940" d="M37 983h4l-4 6q4 4 6 4v25v6q0 8 4 14q-2 6 0 15q12 86 123 227q4 0 74 66q109 61 202 71q57 18 109 21q6 -2 10 -2q25 2 33 6l6 -4q72 4 76 14q18 -2 16 -6l9 4q6 -2 6 -8l8 4h47q137 -8 133 -41q8 0 6 -29l-35 -151q2 -6 2 -15q-6 -10 -8 -10q-2 -4 2 -4 q-10 -51 -12 -76v-2l-2 -24h-4l4 -7l-2 -10q-2 -18 -10 -49q0 -4 2 -4q-4 -14 -17 -78q0 -4 2 -4l-6 -16l-4 -41l-2 -23q0 -4 -2 -4l-2 -33l-4 -39q-2 -8 0 -14l-2 -6l-2 -21q0 -6 -4 -6v-24l-8 -60q0 -2 -3 -2v-8l-4 -6q0 -4 2 -4l-4 -17l-2 -24q-4 -14 -10 -39q0 -2 2 -2 l-4 -16l-4 -35q-2 -4 -6 -4l4 -31l-17 -61v-23l-4 -12v-19l-4 -6l2 -16l-6 -8q4 -6 4 -15l-2 -2q-2 -4 -6 -4l4 -6l-4 -45q-4 -4 -6 -4l2 -6q0 -4 -4 -4l4 -7v-8q-2 -2 -6 -2l4 -6l-6 -14l4 -9l-8 -16q4 -6 4 -10l-6 -6q4 -8 2 -15v-4q0 -4 -4 -4l2 -6l-13 -86 q-2 -14 -10 -39q4 -4 2 -20l-14 -17h-8l-6 2q0 -2 -7 -10q-25 0 -39 33q-4 0 -10 12l6 14q2 4 -2 5l4 16q8 57 23 96q-6 0 -6 8l10 93l8 20q-2 6 -2 14l6 21l2 65q0 4 4 4q2 2 -2 11q10 49 17 82l4 34q2 4 4 5l-2 6l2 10q0 8 2 14q-2 6 -2 10q6 6 6 11l-6 4l4 6l8 45 q0 2 2 2l-2 8l2 6q2 14 9 39q0 2 -3 2l5 19l4 22l-33 -6q-6 4 -14 4h-11l-10 -8l-10 8h-10v-4q0 -10 4 -10l-25 -121l2 -6l-6 -21q-2 -12 0 -18q-6 -29 -25 -131h-4l4 -6l-2 -2q0 -4 -2 -4q2 -8 0 -11q-2 -25 -10 -24l4 -6l-6 -45q-2 -4 -4 -4q0 -4 2 -5l-14 -57 q2 -14 0 -29q-2 -8 -9 -26q0 -4 3 -4l-5 -17l-4 -24q-2 -18 -4 -51h-4q2 -6 4 -35q-8 -2 -8 -6q2 -8 0 -13l-18 -14h-25q-2 0 -2 4l-6 -4q-12 2 -23 49l6 25l5 24q2 2 4 2l-2 9l2 10q0 4 2 4q2 4 -2 4l6 16q2 12 2 31l4 6v15l6 41q0 4 -2 4l16 67l-2 8q23 94 33 168l6 9 q-4 6 -4 14l2 12q2 8 6 14l-2 7q0 4 4 4q2 4 -2 10l9 35l-2 6l4 6l-2 8q4 6 6 15l-4 6q4 6 6 10l-4 6q6 6 6 14l-2 15q6 6 6 16h-14q-10 0 -11 -4l-16 4h-35q-8 0 -14 -4q-6 4 -47 8q-4 0 -4 -4q-63 0 -207 45q-119 55 -158 137q-6 27 -4 35h2q-4 33 -6 76zM117 993 q8 -123 35 -123q61 -66 194 -86l19 -8l20 4h2q8 -2 6 -8q8 4 13 4q31 -2 28 -6l8 2h31q4 0 4 -2l6 2l15 -2l6 2q14 -2 14 -6l31 6q6 -2 10 -2l4 6q0 2 -2 21q6 8 6 12l-4 6q8 6 8 12q0 4 -4 13l8 18q0 4 -4 4l9 19l4 37v34q6 14 8 29v16q4 14 6 25q0 2 -2 10q4 6 4 10 q-2 6 -2 11h4l-4 6l2 14q2 8 6 14q-4 6 -2 15l4 16q0 2 4 2l-4 8l2 17q4 29 8 131h3v35h4q0 4 -2 4l4 16l2 10q2 8 -2 15q4 6 6 10h-4l-15 -2q-4 0 -10 2q-123 -8 -209 -31q-104 -31 -188 -125q-72 -90 -82 -163q-4 -15 -8 -33q4 -6 4 -10q-4 -6 -4 -11zM639 776h4q8 0 14 4 q6 -4 11 -4q6 4 10 4v-4l6 4h39q0 8 -2 15l4 6q-2 8 -2 10q0 4 2 4q4 47 2 57q6 6 8 19l-2 20l6 17q0 4 -2 10q8 35 13 35l-5 8l3 6q2 10 6 10l-2 15q10 41 12 61h4q-2 14 -6 14l4 17l6 35q2 14 10 37q-4 6 -4 14q6 10 10 10l-4 6q20 78 25 113h2q0 2 -2 2q2 10 10 47 q-4 0 -28 4q-6 0 -13 -4q-18 4 -30 4h-39q0 -6 6 -6q0 -2 -6 -14l4 -15q-2 -2 -8 -10l-5 -137l-4 -6l2 -8q0 -2 -4 -2q-4 -59 -2 -66l-6 -21l-2 -14v-20l-4 -6l2 -9q-6 -25 -8 -41q0 -4 4 -4l-8 -16l-19 -137q-2 -14 -8 -31q2 -6 2 -14h-4l2 -9v-2z" />
<glyph unicode="&#xb7;" horiz-adv-x="256" d="M-8 694l4 8q2 6 4 15q57 59 94 59h17q51 -18 45 -49q8 0 -2 -33h-4l2 -8q-8 -31 -84 -57h-15q-41 0 -59 51q0 8 -2 14z" />
<glyph unicode="&#xb8;" horiz-adv-x="1024" />
<glyph unicode="&#xb9;" />
<glyph unicode="&#xba;" horiz-adv-x="466" d="M-14 1309v12q23 61 43 72q82 80 141 80q2 4 4 4q53 0 94 -93v-38q-12 -92 -90 -154q-16 -10 -26 -10l-15 4l-8 -4q-2 0 -2 4l-18 -4h-11l-6 4q-2 -8 -8 -8h-8q-102 41 -90 131zM76 1305q31 -29 43 -29q37 0 51 70q2 23 -12 34q-11 0 -27 -14q0 6 -4 6q-45 -51 -49 -51z " />
<glyph unicode="&#xbb;" horiz-adv-x="940" d="M16 426l4 6l-2 8q6 33 88 66q125 70 209 127l27 20q-4 0 -4 4l-8 -4q-14 0 -176 82q-35 4 -33 13q-4 0 -4 -5q-100 14 -97 64l5 6q0 4 4 4l-4 6q18 35 69 35q78 -27 283 -110l26 -13q0 4 5 4q0 -4 73 -37q-2 -10 8 -18l-4 -8q8 0 7 -33q-209 -152 -394 -240 q-2 -6 -28 -20q-35 8 -50 31q0 4 -4 12zM383 465l6 6l-4 8q4 33 86 68q127 68 211 125l25 22q-4 0 -5 4l-8 -4q-14 0 -176 82q-33 4 -31 10q-4 0 -4 -4q-102 16 -96 64l2 8q0 2 4 2l-4 8q21 33 74 33q78 -25 280 -111l27 -10q0 2 4 2q0 -4 74 -37q0 -8 8 -16l-4 -8 q6 0 4 -35q-205 -152 -391 -240q0 -6 -29 -18q-35 6 -51 31q0 4 -2 10z" />
<glyph unicode="&#xbc;" horiz-adv-x="1708" />
<glyph unicode="&#xbd;" horiz-adv-x="1964" />
<glyph unicode="&#xbe;" horiz-adv-x="1708" />
<glyph unicode="&#xbf;" horiz-adv-x="933" d="M-78 258h4l-4 8l2 8q0 2 4 2q2 4 -2 5l6 18q2 8 -2 14q16 57 19 58l-2 6q16 45 30 67q-4 0 -4 5q4 0 54 96q61 78 102 110q2 4 74 60q16 14 45 28q43 39 141 93q109 70 111 77q84 96 92 160q-2 6 0 10h4q-8 33 -6 50h2l-6 20l4 8h-4l6 8q-10 14 -10 23q8 6 8 10l-8 4 q8 14 12 15v8q8 18 10 18v6q0 15 39 31q70 -20 59 -82q6 0 7 -41l-11 -18q10 0 4 -70h-4q4 -6 4 -10q-12 -41 -18 -41l2 -8v-8q-31 -45 -43 -70q-68 -104 -158 -148l-211 -133q-162 -125 -188 -206q-16 -18 -57 -127q0 -4 4 -5l-8 -18l-9 -61q2 -82 35 -127 q78 -111 225 -111l9 4q2 0 2 -4q33 4 43 6l6 -2q117 20 160 55q92 86 127 197q4 0 4 2q0 4 -2 12q6 27 10 27l-2 6q6 10 8 10q6 -2 10 -2l2 23q4 6 13 6q6 -2 10 -2q4 10 22 10q39 -41 43 -67q-14 -12 -59 -138l-47 -65q-86 -109 -180 -146q-70 -18 -211 -32l-8 4 q-2 0 -5 -4q-27 4 -34 8q-8 -4 -13 -4q-123 29 -159 78q-51 41 -74 104q-39 80 -29 172zM598 1386q4 35 33 68l6 -4l37 8q57 -47 53 -72q0 -6 -6 -6l4 -8v-4q-41 -33 -82 -47h-8q-4 0 -31 29q4 0 6 4q-12 0 -12 32z" />
<glyph unicode="&#xc0;" horiz-adv-x="1071" d="M-121 18l4 19q14 61 45 100v6l37 64l-2 8q68 139 164 344q12 16 68 137q4 0 67 121q0 8 88 174q-4 0 -4 4q10 8 60 115q131 285 163 285q3 0 11 4q59 0 57 -101q35 -209 37 -372l51 -414l33 -127h-4q14 -51 16 -86l27 -82l-4 -6q10 -18 26 -123q4 0 8 -18q0 -2 -4 -2 l4 -9l-4 -22l-4 -6q4 0 2 -4q-18 -23 -59 -27q-6 0 -6 6l-8 -2h-3q-35 23 -28 59q-4 0 -4 5q0 2 4 2q-8 23 -53 245q-33 145 -46 250h-40q-10 0 -11 -4l-18 4h-45q-8 0 -15 -4q-6 4 -14 4h-31q-12 0 -18 -4l-23 4h-38q-10 0 -17 -4q-14 4 -12 8l-8 -4q-4 0 -4 4l-9 -4 q-4 0 -2 4l-8 -4h-14q-4 0 -4 4l-8 -4q-47 8 -50 8q-2 -10 -63 -124l-125 -271q-43 -90 -55 -96l4 -8q-12 -14 -15 -23q4 -6 2 -10q-12 -16 -51 -37h-12q-6 0 -14 2q-6 -2 -11 -2zM272 655h4q4 0 5 4l24 -4q16 0 23 4q25 -4 41 -4h102l18 4v-4l9 4h49q4 0 6 3q35 -2 35 -7 q6 4 12 4q2 25 -6 97h4q-25 113 -31 239q-4 0 -4 4h4q-6 100 -20 179v6h-6q-51 -106 -103 -203v-8q-72 -133 -166 -318zM334 1706v4q4 31 51 64q2 4 6 4h27q70 -88 203 -207q12 -29 10 -35q-4 -37 -60 -47q2 4 -2 4q-2 -8 -8 -8h-6q-23 0 -33 26q-8 0 -88 78 q-74 55 -100 117z" />
<glyph unicode="&#xc1;" horiz-adv-x="1050" d="M-121 18l4 19q14 61 45 100v6l37 64l-2 8q68 139 164 344q12 16 68 137q4 0 67 121q0 8 88 174q-4 0 -4 4q10 8 60 115q131 285 163 285q3 0 11 4q59 0 57 -101q35 -209 37 -372l51 -414l33 -127h-4q14 -51 16 -86l27 -82l-4 -6q10 -18 26 -123q4 0 8 -18q0 -2 -4 -2 l4 -9l-4 -22l-4 -6q4 0 2 -4q-18 -23 -59 -27q-6 0 -6 6l-8 -2h-3q-35 23 -28 59q-4 0 -4 5q0 2 4 2q-8 23 -53 245q-33 145 -46 250h-40q-10 0 -11 -4l-18 4h-45q-8 0 -15 -4q-6 4 -14 4h-31q-12 0 -18 -4l-23 4h-38q-10 0 -17 -4q-14 4 -12 8l-8 -4q-4 0 -4 4l-9 -4 q-4 0 -2 4l-8 -4h-14q-4 0 -4 4l-8 -4q-47 8 -50 8q-2 -10 -63 -124l-125 -271q-43 -90 -55 -96l4 -8q-12 -14 -15 -23q4 -6 2 -10q-12 -16 -51 -37h-12q-6 0 -14 2q-6 -2 -11 -2zM272 655h4q4 0 5 4l24 -4q16 0 23 4q25 -4 41 -4h102l18 4v-4l9 4h49q4 0 6 3q35 -2 35 -7 q6 4 12 4q2 25 -6 97h4q-25 113 -31 239q-4 0 -4 4h4q-6 100 -20 179v6h-6q-51 -106 -103 -203v-8q-72 -133 -166 -318zM608 1536q2 6 21 35q166 119 262 207h27q4 0 2 -4q39 -33 34 -64v-4q-43 -61 -133 -117q-104 -78 -112 -78q-14 -27 -37 -26h-6q-8 0 -7 8q-4 0 -6 -4 q-49 10 -45 47z" />
<glyph unicode="&#xc2;" horiz-adv-x="1058" d="M-121 18l4 19q16 61 45 100v6l37 64l-2 8q68 139 164 344q14 16 68 137q4 0 67 121q4 8 88 174q-4 0 -4 4q12 8 60 115q131 285 163 285q3 0 15 4q57 0 55 -101q33 -209 35 -372l53 -414l31 -127h-4q14 -51 18 -86l25 -82l-4 -6q10 -18 26 -123q4 0 8 -18q0 -2 -4 -2 l4 -9l-2 -22l-6 -6q4 0 4 -4q-20 -23 -59 -27q-8 0 -6 6l-8 -2h-5q-33 23 -28 59q-4 0 -4 5q0 2 4 2q-8 23 -49 245q-35 145 -47 250h-41q-12 0 -13 -4l-16 4h-45q-8 0 -14 -4q-8 4 -17 4h-29q-12 0 -18 -4l-22 4h-41q-8 0 -15 -4q-14 4 -14 8l-8 -4q-4 0 -2 4l-9 -4 q-4 0 -4 4l-8 -4h-14q-4 0 -2 4l-8 -4q-49 8 -52 8q-2 -10 -61 -124l-127 -271q-43 -90 -53 -96l2 -8q-10 -14 -13 -23q2 -6 3 -10q-12 -16 -54 -37h-10q-8 0 -14 2q-8 -2 -13 -2zM274 655h5q4 0 4 4l24 -4q18 0 25 4q25 -4 39 -4h104l19 4v-4l8 4h47q4 0 4 3q37 -2 37 -7 q6 4 14 4q0 25 -10 97h4q-25 113 -31 239q-4 0 0 4h4q-10 100 -24 179l2 6h-8q-49 -106 -103 -203l2 -8q-74 -133 -166 -318zM406 1501l2 15q39 55 98 174q10 0 39 59q27 14 45 14h4q4 0 2 -2l8 2q59 -39 121 -143q43 -70 41 -78t6 -18l-4 -27q-18 -20 -39 -29q-2 0 -2 5 l-8 -5h-6q-4 0 -4 5l-9 -5q-4 0 -4 5l-6 -5q-10 0 -8 19l-10 -4q-33 88 -88 147q-14 -14 -70 -133q-18 -31 -43 -47l-6 2l-12 -6q-55 6 -47 55z" />
<glyph unicode="&#xc3;" horiz-adv-x="1064" d="M-121 18l4 19q16 61 49 100l-4 6l37 64l-2 8q70 139 164 344q14 16 68 137q6 0 67 121q4 8 88 174q-4 0 -2 4q10 8 62 115q131 285 161 285q5 0 13 4q57 0 55 -101q33 -209 37 -372l51 -414l31 -127h-4q14 -51 18 -86l27 -82l-6 -6q12 -18 26 -123q4 0 10 -18q0 -2 -4 -2 l2 -9l-2 -22l-6 -6q4 0 4 -4q-20 -23 -59 -27q-6 0 -6 6l-8 -2h-5q-33 23 -28 59q-4 0 -2 5q0 2 4 2q-8 23 -51 245q-35 145 -47 250h-41q-10 0 -13 -4l-16 4h-45q-8 0 -14 -4q-6 4 -15 4h-31q-12 0 -18 -4l-22 4h-39q-10 0 -17 -4q-14 4 -12 8l-8 -4q-4 0 -4 4l-9 -4 q-4 0 -2 4l-8 -4h-14q-4 0 -4 4l-8 -4q-49 8 -52 8q-2 -10 -61 -124l-127 -271q-43 -90 -51 -96v-8q-10 -14 -13 -23q2 -6 3 -10q-12 -16 -54 -37h-10q-8 0 -14 2q-8 -2 -13 -2zM274 655h5q4 0 4 4l24 -4q18 0 25 4q25 -4 39 -4h104l19 4v-4l8 4h47q4 0 6 3q35 -2 35 -7 q6 4 14 4q0 25 -8 97h2q-25 113 -27 239q-4 0 -4 4h4q-10 100 -22 179v6h-8q-49 -106 -103 -203l2 -8q-74 -133 -166 -318zM330 1538h4l-4 8l6 39q8 14 20 57q53 76 103 99q29 16 43 16q4 0 4 -4l6 4h18q76 0 193 -168q35 -20 45 -20h10q47 23 49 30q10 23 17 23v6v4 q0 4 4 4q-2 8 0 45q4 0 4 5q-8 0 -6 8h2l-2 6v4l47 49q6 4 10 4q45 -6 41 -24q4 -8 4 -11l-6 -12q6 0 10 -10v-2q-2 -10 -12 -23l4 -18q-16 -111 -133 -178v4q-33 -18 -47 -19q-8 4 -16 4q-6 -4 -11 -4v4l-8 -4q-94 45 -106 82q-8 0 -68 90q-29 27 -74 27q-63 -39 -75 -113 q2 -14 0 -32q-2 0 -25 -23h-33l-6 4q0 -4 -4 -4q0 4 -4 4l4 8q-10 16 -8 31z" />
<glyph unicode="&#xc4;" horiz-adv-x="1024" d="M-109 18v19q16 61 50 100l-2 6l34 64v8q68 139 164 344q12 16 66 137q6 0 71 121q0 8 86 174q-4 0 -4 4q12 8 62 115q131 285 162 285q4 0 12 4q59 0 55 -101q33 -209 35 -372l55 -414l31 -127h-4q12 -51 16 -86l27 -82l-4 -6q10 -18 26 -123q2 0 9 -18q0 -2 -4 -2l2 -9 l-2 -22l-5 -6q4 0 2 -4q-20 -23 -59 -27q-6 0 -6 6l-8 -2h-2q-35 23 -31 59q-2 0 -2 5q0 2 2 2q-6 23 -49 245q-37 145 -45 250h-41q-12 0 -12 -4l-19 4h-45q-6 0 -14 -4q-6 4 -15 4h-28q-12 0 -21 -4l-20 4h-41q-8 0 -17 -4q-14 4 -14 8l-6 -4q-4 0 -4 4l-6 -4q-4 0 -4 4 l-9 -4h-14q-4 0 -4 4l-6 -4q-51 8 -53 8q0 -10 -62 -124l-127 -271q-43 -90 -51 -96l2 -8q-12 -14 -12 -23v-10q-12 -16 -51 -37h-13q-8 0 -14 2q-6 -2 -10 -2zM283 655h4q4 0 6 4l22 -4q18 0 25 4q25 -4 39 -4h104l19 4v-4l8 4h47q4 0 4 3q37 -2 37 -7q6 4 14 4 q0 25 -10 97h4q-25 113 -26 239q-4 0 -5 4h5q-10 100 -25 179l2 6h-6q-51 -106 -105 -203l3 -8q-72 -133 -166 -318zM377 1550l4 6q-2 6 0 17q55 57 92 57h14q55 -16 54 -47q8 0 2 -33h-4l4 -8q-4 -31 -76 -59h-14q-41 0 -74 53q0 6 -2 14zM682 1552q-4 1 0 17q4 41 72 61 h28q31 -16 52 -59l-9 -19l-2 -24q-37 -49 -73 -49q-76 10 -68 73z" />
<glyph unicode="&#xc5;" horiz-adv-x="1077" d="M-121 18l4 19q16 61 49 100l-4 6l37 64l-2 8q70 139 164 344q14 16 68 137q6 0 67 121q4 8 88 174q-4 0 -2 4q10 8 62 115q131 285 161 285q5 0 13 4q57 0 55 -101q33 -209 37 -372l51 -414l31 -127h-4q14 -51 18 -86l27 -82l-6 -6q12 -18 26 -123q4 0 10 -18q0 -2 -4 -2 l2 -9l-2 -22l-6 -6q4 0 4 -4q-20 -23 -59 -27q-6 0 -6 6l-8 -2h-5q-33 23 -28 59q-4 0 -2 5q0 2 4 2q-8 23 -51 245q-35 145 -47 250h-41q-10 0 -13 -4l-16 4h-45q-8 0 -14 -4q-6 4 -15 4h-31q-12 0 -18 -4l-22 4h-39q-10 0 -17 -4q-14 4 -12 8l-8 -4q-4 0 -4 4l-9 -4 q-4 0 -2 4l-8 -4h-14q-4 0 -4 4l-8 -4q-49 8 -52 8q-2 -10 -61 -124l-127 -271q-43 -90 -51 -96v-8q-10 -14 -13 -23q2 -6 3 -10q-12 -16 -54 -37h-10q-8 0 -14 2q-8 -2 -13 -2zM274 655h5q4 0 4 4l24 -4q18 0 25 4q25 -4 39 -4h104l19 4v-4l8 4h47q4 0 6 3q35 -2 35 -7 q6 4 14 4q0 25 -8 97h2q-25 113 -27 239q-4 0 -4 4h4q-10 100 -22 179v6h-8q-49 -106 -103 -203l2 -8q-74 -133 -166 -318zM455 1587l2 15q25 61 43 71q82 78 143 78q0 6 2 6q53 0 96 -94q-2 -14 0 -37q-14 -92 -92 -156q-14 -8 -24 -8l-15 4l-8 -4q-4 0 -4 4l-16 -4h-11 l-8 4q0 -8 -8 -8h-6q-109 41 -94 129zM549 1583q29 -29 41 -29q37 0 53 72q2 23 -12 35q-11 0 -29 -14q2 6 -2 6q-45 -51 -49 -51z" />
<glyph unicode="&#xc6;" horiz-adv-x="1351" d="M-88 35v14q102 197 258 526q10 12 149 291q231 403 259 441l-5 8q14 29 48 41q18 18 63 18h4q6 -2 4 -8l39 8l6 -4l11 4q4 -4 8 -4l10 4q2 0 0 -4q51 8 143 8h45q4 0 4 -4l9 4q2 0 2 -4l8 4h37q10 0 10 2l18 -2h45l23 2q37 -2 37 -6l6 4h39q47 -20 45 -37l-2 -18l-55 -45 l-19 2l-18 -2q-35 2 -35 6l-8 -4h-60q-8 0 -14 4q-6 -4 -14 -4q-4 0 -4 4l-9 -4q-4 0 -4 4l-18 -4h-66l-20 -2l2 2l-8 -2h-31q-66 0 -129 -8l-8 4q-6 -4 -10 -4q-2 -106 -15 -185l4 -8l-4 -8q-2 -14 0 -20q-10 -49 -14 -78l-16 -115q-2 -14 0 -31q-4 -14 -9 -28l-4 -29 q-2 -16 0 -31q-6 -14 -8 -28l-4 -41q-2 -8 2 -17q-6 -6 -6 -12q12 -8 29 -8h8q8 0 14 4l6 -4q8 4 17 4v-4l8 4q8 0 12 -4l8 4l19 -4l26 4l15 -4l22 4q2 0 14 -4q6 4 17 4v-4l6 4q2 0 23 -4l8 4q6 -4 14 -4q18 0 19 8l18 -4q20 0 25 4q20 -4 34 -4h29l8 -4q0 4 2 4 q33 -25 31 -45v-8q-33 -43 -84 -43h-31q-8 0 -14 -4q-37 4 -37 6l-6 -2h-8q-4 0 -4 2l-9 -2h-18q-6 0 -14 2q-6 -2 -15 -2h-4q-4 0 -4 2l-6 -2h-68q-8 0 -16 -4q-4 4 -12 4h-27l-39 -4l2 4q-31 -6 -30 -17l-5 -10v-37l-8 -22q0 -4 4 -4l-6 -19l-6 -37q0 -8 4 -14 q-6 -6 -6 -14v-5q0 -8 4 -8l-2 -8q-2 -6 -2 -14q-2 -6 -2 -11l6 -4q-2 -8 -6 -8l-4 -88q-4 -12 -8 -33l4 -8l-6 -8q2 -6 2 -10l-4 -6q4 -16 0 -41l-5 -9l80 -14l9 4l14 -4q4 0 10 4q20 -4 35 -4h12q12 0 15 4l16 -4h51q8 0 17 4l6 -4q8 4 16 4q4 0 2 -4l8 4h33l21 2v-2l6 2 h4q70 0 123 13l4 -9l8 4h20q37 -31 37 -45q-31 -43 -49 -43q0 -8 -22 -8q-63 0 -172 -14q-8 4 -13 4q-4 0 -28 -4q-4 0 -4 4l-25 -4h-100q-10 0 -17 -4q-6 4 -14 4h-6l-21 -4v4q-4 0 -4 -4l-135 14l-8 -4q-39 20 -37 35q-4 0 -4 4l2 14q4 27 0 41q4 43 18 43l2 21 q12 72 9 96q0 2 4 2l2 37l8 72v24h4l-4 8l4 11q0 4 4 4l-4 8l2 10q0 4 4 4l-4 6l6 35q2 14 4 39q2 8 4 12q-8 6 -32 13l-9 -4h-10q-14 0 -33 4q-8 -4 -12 -4l-6 4q-8 -4 -16 -4q-4 0 -2 4q-168 -10 -168 -21q-4 -14 -80 -162q-4 0 -31 -55l-129 -270q-4 -4 -23 -33 q-14 0 -14 -4q-59 0 -51 41zM297 627h2q41 0 123 8l6 -4q27 4 41 4h55q4 0 4 -4q8 4 13 4v6q0 8 -2 14q4 6 6 17q0 10 -4 10l8 27l12 88v26h4l-2 6l2 19q0 4 4 4l-2 8v6q6 39 17 82v27l6 18q0 2 -4 2l8 27l4 27q2 18 2 55h4l-2 6l2 23q4 16 2 41q6 6 6 16l-6 4 q-59 -113 -200 -356q-106 -205 -109 -211z" />
<glyph unicode="&#xc7;" horiz-adv-x="1398" />
<glyph unicode="&#xc8;" horiz-adv-x="956" d="M-96 45l6 12q-2 6 -2 11h2q0 4 -2 4l6 24l25 164q0 8 4 14q-4 18 -2 33h2v41q4 6 6 19v22l6 19v22q0 4 4 4l-2 43l6 17l-2 20h4l-2 8v4q8 66 12 133h5l-3 9q0 4 5 4l-5 6l7 37q0 4 4 4l-2 6q0 4 4 4q-6 16 -6 23l6 8q-4 6 -2 14t6 8q-2 51 0 70q6 6 6 10q-2 12 -6 12 l6 25l6 57q0 8 -2 15q4 6 4 14q2 8 2 14q0 4 2 5q0 29 -2 36l8 23q0 8 -2 14q4 6 7 17v10v14q4 6 4 15q4 16 4 41l6 20q-4 6 -2 10h4q0 2 -4 2q8 45 12 45q0 4 -4 4l6 25l4 25q2 6 -6 6l6 18v14q31 45 39 46l43 14q31 -14 31 -19l27 5q125 4 145 4v-4l6 4q4 0 4 -4l6 4l8 -4 q8 4 13 4v-4q2 0 2 4q8 0 8 -4l23 4q88 -4 139 -4h18l23 4q14 -8 41 -9h51l18 5v-5q8 4 13 5l6 -5q8 4 14 5l8 -5l9 5l6 -5l22 5q37 -12 33 -37q10 0 10 -9q-14 -8 -28 -38q-10 0 -11 -9h-26l-9 -4l-2 8l-8 -4h-37q-4 0 -4 4l-8 -4l-16 4l-8 -4l-9 4l-20 -4q-4 0 -4 4 l-21 -8q-31 4 -106 8l-6 -4q-4 0 -4 4l-19 -4q-4 0 -12 4q-2 0 -2 -4l-90 9q-45 -4 -88 -5q-4 0 -13 -4q-6 4 -14 4q-2 0 -2 -4l-21 4h-6q-10 0 -14 -4l-8 4q-8 0 -27 -8q-6 4 -14 4h-4q-6 0 -17 -36l2 -9q0 -4 -4 -4q0 -4 4 -4l-8 -16l-4 -33l-4 -25q-4 -2 0 -2l-4 -18 l-2 -12q-2 -8 2 -15l-4 -8v-14q0 -4 -4 -4l2 -6l-6 -37q0 -12 4 -21l-9 -12q-8 -100 -18 -160v-8q-2 -8 0 -14q-2 -6 -4 -15q-2 -23 4 -22l-6 -19l-8 -53h82q8 0 14 -4q14 8 41 8h22q4 0 5 -4l8 4h37q2 0 2 -4q23 8 98 8h14q8 0 17 4l18 -8l25 4q4 0 2 -4l20 4h2q20 0 33 -4 q51 4 61 8q6 -4 15 -4l18 4q27 -14 35 -41v-4q0 -4 -16 -10l4 -8q-2 -8 -33 -27q-2 0 -6 4q-41 -2 -41 -6l-19 2h-12q-14 0 -41 -2q-6 2 -10 2q-6 -2 -18 -2v2l-9 -2h-20q-4 0 -4 2q-6 -2 -45 -6l-6 4l-21 -4q-4 0 -10 4q-90 -10 -156 -10q-10 0 -14 -4l-8 4q-8 -4 -13 -4v4 l-6 -4q-4 0 -4 4q-53 -8 -72 -8v-4q-12 -119 -2 -119v-4h-8l-12 -88v-27h-4l4 -6l-4 -31v-18h-4l4 -6q0 -4 -4 -4v-19v-4q0 -4 -4 -4l4 -6q-2 -4 -6 -4l4 -8l-2 -15q-4 -16 -2 -41q-6 -8 -7 -10v-18l-4 -9q0 -4 4 -12q-8 -18 -8 -33l-4 -10q0 -8 2 -14q-4 -8 -6 -17v-6 q0 -8 6 -8l8 4l9 -4q6 4 10 4v-4l8 4q2 0 2 -4l8 4q12 0 13 -4q39 8 84 8q49 0 77 -8q27 4 41 4h37q8 0 15 -4l8 4q8 0 41 -4l32 4l9 -4q4 0 4 4q37 -4 35 -6q20 6 63 6v-4l8 4h41q2 0 2 -4l8 4h23q4 0 4 -4l6 4q8 -4 12 -4t5 4l16 -4h8q14 0 35 4q12 0 31 -31 q-2 -25 -23 -32q-4 -27 -33 -27l-8 4l-18 -6q-25 2 -41 2h-33q-4 0 -2 4l-8 -4q-23 0 -51 4q-68 -4 -109 -4q-4 0 -10 -2q-37 2 -37 6l-27 -4h-127q-4 0 -2 4l-8 -4h-67q-18 0 -56 -2v2q-18 -6 -26 -6l2 4l-11 -4h-2q-10 0 -14 4q-6 -4 -37 -8v4l-8 -4q-23 4 -53 55z M254 1706v4q4 31 53 64q0 4 4 4h27q72 -88 203 -207q12 -29 12 -35q-6 -37 -59 -47q0 4 -5 4q0 -8 -8 -8h-6q-23 0 -33 26q-8 0 -88 78q-74 55 -100 117z" />
<glyph unicode="&#xc9;" horiz-adv-x="948" d="M-96 45l6 12q-2 6 -2 11h2q0 4 -2 4l6 24l25 164q0 8 4 14q-4 18 -2 33h2v41q4 6 6 19v22l6 19v22q0 4 4 4l-2 43l6 17l-2 20h4l-2 8v4q8 66 12 133h5l-3 9q0 4 5 4l-5 6l7 37q0 4 4 4l-2 6q0 4 4 4q-6 16 -6 23l6 8q-4 6 -2 14t6 8q-2 51 0 70q6 6 6 10q-2 12 -6 12 l6 25l6 57q0 8 -2 15q4 6 4 14q2 8 2 14q0 4 2 5q0 29 -2 36l8 23q0 8 -2 14q4 6 7 17v10v14q4 6 4 15q4 16 4 41l6 20q-4 6 -2 10h4q0 2 -4 2q8 45 12 45q0 4 -4 4l6 25l4 25q2 6 -6 6l6 18v14q31 45 39 46l43 14q31 -14 31 -19l27 5q125 4 145 4v-4l6 4q4 0 4 -4l6 4l8 -4 q8 4 13 4v-4q2 0 2 4q8 0 8 -4l23 4q88 -4 139 -4h18l23 4q14 -8 41 -9h51l18 5v-5q8 4 13 5l6 -5q8 4 14 5l8 -5l9 5l6 -5l22 5q37 -12 33 -37q10 0 10 -9q-14 -8 -28 -38q-10 0 -11 -9h-26l-9 -4l-2 8l-8 -4h-37q-4 0 -4 4l-8 -4l-16 4l-8 -4l-9 4l-20 -4q-4 0 -4 4 l-21 -8q-31 4 -106 8l-6 -4q-4 0 -4 4l-19 -4q-4 0 -12 4q-2 0 -2 -4l-90 9q-45 -4 -88 -5q-4 0 -13 -4q-6 4 -14 4q-2 0 -2 -4l-21 4h-6q-10 0 -14 -4l-8 4q-8 0 -27 -8q-6 4 -14 4h-4q-6 0 -17 -36l2 -9q0 -4 -4 -4q0 -4 4 -4l-8 -16l-4 -33l-4 -25q-4 -2 0 -2l-4 -18 l-2 -12q-2 -8 2 -15l-4 -8v-14q0 -4 -4 -4l2 -6l-6 -37q0 -12 4 -21l-9 -12q-8 -100 -18 -160v-8q-2 -8 0 -14q-2 -6 -4 -15q-2 -23 4 -22l-6 -19l-8 -53h82q8 0 14 -4q14 8 41 8h22q4 0 5 -4l8 4h37q2 0 2 -4q23 8 98 8h14q8 0 17 4l18 -8l25 4q4 0 2 -4l20 4h2q20 0 33 -4 q51 4 61 8q6 -4 15 -4l18 4q27 -14 35 -41v-4q0 -4 -16 -10l4 -8q-2 -8 -33 -27q-2 0 -6 4q-41 -2 -41 -6l-19 2h-12q-14 0 -41 -2q-6 2 -10 2q-6 -2 -18 -2v2l-9 -2h-20q-4 0 -4 2q-6 -2 -45 -6l-6 4l-21 -4q-4 0 -10 4q-90 -10 -156 -10q-10 0 -14 -4l-8 4q-8 -4 -13 -4v4 l-6 -4q-4 0 -4 4q-53 -8 -72 -8v-4q-12 -119 -2 -119v-4h-8l-12 -88v-27h-4l4 -6l-4 -31v-18h-4l4 -6q0 -4 -4 -4v-19v-4q0 -4 -4 -4l4 -6q-2 -4 -6 -4l4 -8l-2 -15q-4 -16 -2 -41q-6 -8 -7 -10v-18l-4 -9q0 -4 4 -12q-8 -18 -8 -33l-4 -10q0 -8 2 -14q-4 -8 -6 -17v-6 q0 -8 6 -8l8 4l9 -4q6 4 10 4v-4l8 4q2 0 2 -4l8 4q12 0 13 -4q39 8 84 8q49 0 77 -8q27 4 41 4h37q8 0 15 -4l8 4q8 0 41 -4l32 4l9 -4q4 0 4 4q37 -4 35 -6q20 6 63 6v-4l8 4h41q2 0 2 -4l8 4h23q4 0 4 -4l6 4q8 -4 12 -4t5 4l16 -4h8q14 0 35 4q12 0 31 -31 q-2 -25 -23 -32q-4 -27 -33 -27l-8 4l-18 -6q-25 2 -41 2h-33q-4 0 -2 4l-8 -4q-23 0 -51 4q-68 -4 -109 -4q-4 0 -10 -2q-37 2 -37 6l-27 -4h-127q-4 0 -2 4l-8 -4h-67q-18 0 -56 -2v2q-18 -6 -26 -6l2 4l-11 -4h-2q-10 0 -14 4q-6 -4 -37 -8v4l-8 -4q-23 4 -53 55z M451 1536q0 6 18 35q168 119 262 207h27q4 0 4 -4q39 -33 35 -64v-4q-45 -61 -135 -117q-106 -78 -113 -78q-14 -27 -37 -26h-6q-6 0 -6 8q-4 0 -4 -4q-51 10 -45 47z" />
<glyph unicode="&#xca;" horiz-adv-x="929" d="M-94 45q4 8 4 12q-2 6 -2 11h4q0 4 -4 4l6 24l25 164q0 8 6 14q-6 18 -2 33h4l-4 41q6 6 8 19l-2 22l6 19v22q2 4 4 4v43l4 17v20h4l-4 8v4q10 66 14 133h5l-5 9q0 4 5 4l-2 6l4 37q2 4 6 4l-4 6q0 4 4 4q-6 16 -4 23l4 8q-2 6 -2 14q2 8 6 8q0 51 2 70q4 6 4 10 q-2 12 -6 12l6 25l6 57q2 8 0 15q2 6 4 14t0 14q0 4 4 5q0 29 -4 36l8 23q0 8 -2 14q6 6 7 17v10q4 8 0 14q4 6 6 15q2 16 2 41l6 20q-2 6 -2 10h4q0 2 -4 2q10 45 12 45q2 4 -2 4l8 25l2 25q0 6 -6 6l6 18l-2 14q31 45 39 46l45 14q29 -14 29 -19l27 5q125 4 145 4v-4l6 4 q4 0 4 -4l8 4l6 -4q8 4 13 4v-4q2 0 4 4q6 0 6 -4l23 4q88 -4 139 -4h18l25 4q12 -8 39 -9h53l16 5v-5q8 4 13 5l8 -5q6 4 12 5l8 -5l9 5l8 -5l20 5q37 -12 35 -37q10 0 8 -9q-12 -8 -26 -38q-12 0 -13 -9h-26l-9 -4l-2 8l-8 -4h-37q-4 0 -2 4l-10 -4l-16 4l-8 -4l-7 4 l-22 -4q-4 0 -4 4l-21 -8q-31 4 -104 8l-8 -4q-4 0 -4 4l-19 -4q-4 0 -10 4q-4 0 -4 -4l-88 9q-45 -4 -90 -5q-4 0 -13 -4q-4 4 -12 4q-4 0 -4 -4l-19 4h-8q-8 0 -14 -4l-8 4q-6 0 -27 -8q-6 4 -14 4h-4q-6 0 -17 -36l4 -9q-2 -4 -6 -4q0 -4 4 -4l-6 -16l-4 -33l-6 -25 q0 -2 2 -2l-6 -18l-2 -12q0 -8 2 -15l-4 -8q4 -6 0 -14q0 -4 -4 -4l4 -6l-4 -37q-4 -12 0 -21l-6 -12q-10 -100 -19 -160l-2 -8q0 -8 2 -14q-4 -6 -4 -15q-2 -23 2 -22l-6 -19l-6 -53h82q8 0 12 -4q16 8 43 8h23q4 0 2 -4l10 4h37q2 0 2 -4q23 8 96 8h14q10 0 17 4l20 -8 l23 4q4 0 4 -4l18 4h4q20 0 33 -4q51 4 62 8q4 -4 14 -4l18 4q25 -14 33 -41v-4q0 -4 -14 -10l2 -8q-2 -8 -29 -27q-4 0 -10 4q-37 -2 -37 -6l-20 2h-11q-14 0 -41 -2q-8 2 -12 2q-4 -2 -16 -2v2l-9 -2h-22q-2 0 -2 2q-8 -2 -49 -6l-4 4l-23 -4q-4 0 -6 4q-92 -10 -160 -10 q-8 0 -14 -4l-6 4q-10 -4 -15 -4l2 4l-8 -4q-4 0 -4 4q-51 -8 -69 -8v-4q-12 -119 -3 -119l-2 -4h-8l-12 -88l2 -27h-4l2 -6l-4 -31l2 -18h-4l2 -6q0 -4 -4 -4l2 -19l-2 -4q0 -4 -4 -4l4 -6q0 -4 -4 -4l2 -8l-2 -15q-2 -16 -2 -41q-4 -8 -7 -10l5 -18l-9 -9q0 -4 4 -12 q-8 -18 -8 -33l-4 -10q0 -8 4 -14q-6 -8 -6 -17l-2 -6q0 -8 6 -8l10 4l7 -4q8 4 12 4l-2 -4l8 4q4 0 2 -4l10 4q10 0 11 -4q41 8 86 8q47 0 75 -8q27 4 41 4h37q10 0 15 -4l8 4q8 0 41 -4l32 4l9 -4q4 0 4 4q37 -4 37 -6q20 6 61 6v-4l8 4h41q4 0 2 -4l10 4h23q2 0 2 -4l8 4 q6 -4 10 -4t5 4l16 -4h8q14 0 35 4q12 0 33 -31q-4 -25 -25 -32q-4 -27 -33 -27l-8 4l-16 -6q-27 2 -41 2h-35q-2 0 -2 4l-8 -4q-20 0 -51 4q-68 -4 -109 -4q-4 0 -10 -2q-37 2 -37 6l-27 -4h-125q-4 0 -4 4l-8 -4h-65q-18 0 -56 -2v2q-20 -6 -26 -6v4l-9 -4h-4q-8 0 -14 4 q-6 -4 -35 -8v4l-8 -4q-23 4 -53 55zM295 1501l4 15q37 55 98 174q10 0 37 59q27 14 45 14h4q4 0 4 -2l9 2q59 -39 118 -143q43 -70 43 -78q-2 -8 5 -18l-5 -27q-18 -20 -36 -29q-4 0 -3 5l-10 -5h-6q-4 0 -4 5l-6 -5q-4 0 -4 5l-8 -5q-10 0 -9 19l-8 -4q-35 88 -90 147 q-14 -14 -67 -133q-20 -31 -41 -47l-9 2l-14 -6q-51 6 -47 55z" />
<glyph unicode="&#xcb;" horiz-adv-x="954" d="M-86 45q4 8 4 12q-2 6 0 11h4q0 4 -4 4l6 24l23 164q2 8 8 14q-6 18 -2 33h2l-2 41q6 6 6 19v22l4 19v22q2 4 6 4l-2 43l6 17l-2 20h4l-4 8l4 4q8 66 11 133h4l-4 9q2 4 6 4l-4 6l6 37q0 4 2 4v6q0 4 2 4q-4 16 -4 23l6 8q-2 6 -2 14l2 8v70q6 6 6 10q-2 12 -4 12l6 25 l8 57q0 8 -2 15q4 6 6 14t-2 14q0 4 5 5v36l6 23q0 8 -2 14q4 6 4 17l4 10q0 8 -4 14q6 6 8 15v41l6 20q-2 6 -2 10h4q0 2 -4 2q10 45 14 45q0 4 -4 4l8 25l5 25q0 6 -9 6l9 18l-3 14q31 45 39 46l43 14q31 -14 31 -19l27 5q125 4 145 4v-4l6 4q4 0 4 -4l9 4l6 -4q8 4 12 4 v-4q2 0 2 4q8 0 8 -4l23 4q90 -4 139 -4h21l20 4q16 -8 41 -9h53l19 5v-5q6 4 10 5l8 -5q6 4 14 5l9 -5l6 5l8 -5l22 5q33 -12 31 -37q10 0 10 -9q-14 -8 -26 -38q-12 0 -15 -9h-24l-8 -4l-2 8l-11 -4h-36q-2 0 -2 4l-9 -4l-16 4l-10 -4l-6 4l-23 -4q-4 0 -2 4l-21 -8 q-31 4 -106 8l-8 -4q-4 0 -2 4l-21 -4q-4 0 -10 4q-2 0 -4 -4l-86 9q-47 -4 -90 -5q-4 0 -12 -4q-6 4 -15 4q-4 0 -4 -4l-18 4h-6q-10 0 -17 -4l-6 4q-8 0 -27 -8q-8 4 -16 4h-2q-8 0 -16 -36l2 -9q0 -4 -4 -4q0 -4 4 -4l-7 -16l-6 -33l-6 -25q0 -2 4 -2l-8 -18l-2 -12 q0 -8 2 -15l-4 -8q4 -6 2 -14q-2 -4 -6 -4l4 -6l-4 -37v-21l-4 -12q-12 -100 -21 -160v-8q-2 -8 0 -14q-4 -6 -4 -15q-2 -23 4 -22l-6 -19l-8 -53h82q8 0 14 -4q16 8 41 8h23q4 0 4 -4l8 4h37q4 0 2 -4q23 8 96 8h17q8 0 14 4l22 -8l23 4q2 0 2 -4l20 4h3q20 0 34 -4 q49 4 60 8q6 -4 14 -4l18 4q27 -14 37 -41v-4q-4 -4 -18 -10l2 -8q0 -8 -29 -27q-4 0 -10 4q-37 -2 -39 -6l-16 2h-13q-14 0 -40 -2q-6 2 -11 2q-8 -2 -18 -2v2l-8 -2h-23q-4 0 -2 2q-8 -2 -47 -6l-6 4l-19 -4q-4 0 -12 4q-90 -10 -158 -10q-8 0 -14 -4l-6 4q-8 -4 -12 -4v4 l-9 -4q-4 0 -4 4q-51 -8 -69 -8v-4q-12 -119 -2 -119v-4h-9l-12 -88v-27h-4l4 -6l-4 -31v-18h-4l4 -6q-2 -4 -4 -4v-19v-4q0 -4 -2 -4v-6q0 -4 -4 -4l4 -8l-2 -15q-2 -16 -2 -41q-6 -8 -6 -10l2 -18l-4 -9v-12q-6 -18 -9 -33v-10q-4 -8 0 -14q-4 -8 -6 -17v-6q0 -8 6 -8l9 4 l6 -4q8 4 10 4v-4l8 4q4 0 4 -4l9 4q10 0 10 -4q41 8 86 8q49 0 78 -8q25 4 39 4h36q10 0 17 -4l6 4q8 0 41 -4l33 4l8 -4q4 0 4 4q37 -4 37 -6q20 6 61 6v-4l8 4h41q4 0 4 -4l9 4h20q4 0 4 -4l8 4q6 -4 11 -4q4 0 4 4l18 -4h8q12 0 33 4q12 0 33 -31q-2 -25 -23 -32 q-4 -27 -32 -27l-9 4l-20 -6q-23 2 -39 2h-33q-4 0 -4 4l-8 -4q-20 0 -51 4q-66 -4 -107 -4q-4 0 -12 -2q-37 2 -37 6l-24 -4h-127q-4 0 -4 4l-7 -4h-67q-18 0 -56 -2v2q-20 -6 -26 -6v4l-8 -4h-2q-10 0 -17 4q-6 -4 -35 -8v4l-6 -4q-25 4 -55 55zM266 1550l6 6q-4 6 -2 17 q55 57 92 57h17q57 -16 51 -47q8 0 2 -33h-4l4 -8q-4 -31 -76 -59h-14q-41 0 -74 53q2 6 -2 14zM571 1552q-4 1 0 17q4 41 72 61h29q35 -16 53 -59l-8 -19l-2 -24q-39 -49 -76 -49q-76 10 -68 73z" />
<glyph unicode="&#xcc;" horiz-adv-x="294" d="M-115 35l4 24q2 8 -2 15l4 6l11 108q2 4 6 5q0 39 12 108q4 -2 4 2q-8 0 -6 8l8 6q-4 8 -2 13l4 6q-4 6 -2 10l6 8q-4 6 -2 15h4l-2 6l15 69q2 14 0 27q6 14 10 31l4 20q0 8 -2 15l6 8q2 4 -2 4l6 16v19h4l-4 6q2 4 4 4l-2 6l4 23q2 4 7 4q-2 6 -2 10q16 135 20 162v18 l4 6q6 45 2 51q2 4 6 3q6 51 13 73l18 101v20q4 6 6 19v18h4l-4 6q4 4 8 4l-4 8l2 11q10 45 4 71q4 6 7 15v14h4q-6 14 -2 41l2 10q2 6 8 12q-2 10 2 56l6 6v22l41 17l23 -2q18 0 20 -78l-4 -25l4 -10v-4q-2 -8 -6 -14l2 -8q-2 -2 -4 -3l-15 -155l-4 -6v-23v-6q-2 -4 -4 -4 v-6l-6 -37q0 -4 -4 -4l2 -6l-4 -11q0 -4 -2 -4l2 -8l-6 -35q-20 -98 -35 -233h-2v-6l-2 -8q0 -4 -4 -5l2 -8l-4 -30l-4 -25h-2l2 -8q0 -4 -4 -4l2 -7q0 -4 -4 -4l2 -8l-41 -207l-4 -43h-5l2 -8l-10 -47q-2 -10 -2 -31l-4 -8q-14 -135 -18 -213q-4 -6 -4 -8l2 -8 q-12 -25 -33 -35l-29 2q-4 0 -4 4l-6 -4q-14 0 -27 35zM-84 1706v4q4 31 53 64q0 4 4 4h27q70 -88 201 -207q12 -29 10 -35q-4 -37 -57 -47q0 4 -4 4q-2 -8 -9 -8h-8q-20 0 -31 26q-8 0 -86 78q-72 55 -100 117z" />
<glyph unicode="&#xcd;" horiz-adv-x="276" d="M-115 35l4 24q2 8 -2 15l4 6l11 108q2 4 6 5q0 39 12 108q4 -2 4 2q-8 0 -6 8l8 6q-4 8 -2 13l4 6q-4 6 -2 10l6 8q-4 6 -2 15h4l-2 6l15 69q2 14 0 27q6 14 10 31l4 20q0 8 -2 15l6 8q2 4 -2 4l6 16v19h4l-4 6q2 4 4 4l-2 6l4 23q2 4 7 4q-2 6 -2 10q16 135 20 162v18 l4 6q6 45 2 51q2 4 6 3q6 51 13 73l18 101v20q4 6 6 19v18h4l-4 6q4 4 8 4l-4 8l2 11q10 45 4 71q4 6 7 15v14h4q-6 14 -2 41l2 10q2 6 8 12q-2 10 2 56l6 6v22l41 17l23 -2q18 0 20 -78l-4 -25l4 -10v-4q-2 -8 -6 -14l2 -8q-2 -2 -4 -3l-15 -155l-4 -6v-23v-6q-2 -4 -4 -4 v-6l-6 -37q0 -4 -4 -4l2 -6l-4 -11q0 -4 -2 -4l2 -8l-6 -35q-20 -98 -35 -233h-2v-6l-2 -8q0 -4 -4 -5l2 -8l-4 -30l-4 -25h-2l2 -8q0 -4 -4 -4l2 -7q0 -4 -4 -4l2 -8l-41 -207l-4 -43h-5l2 -8l-10 -47q-2 -10 -2 -31l-4 -8q-14 -135 -18 -213q-4 -6 -4 -8l2 -8 q-12 -25 -33 -35l-29 2q-4 0 -4 4l-6 -4q-14 0 -27 35zM119 1536q2 6 18 35q168 119 264 207h25q4 0 4 -4q39 -33 37 -64l-2 -4q-43 -61 -133 -117q-106 -78 -113 -78q-14 -27 -37 -26h-8q-6 0 -4 8q-4 0 -4 -4q-51 10 -47 47z" />
<glyph unicode="&#xce;" horiz-adv-x="333" d="M-76 35l6 24q0 8 -2 15l6 6l9 108q2 4 4 5q2 39 14 108q4 -2 4 2q-8 0 -4 8l4 6q-2 8 -2 13l6 6q-4 6 -2 10l4 8q-2 6 2 15h2l-2 6l13 69q4 14 2 27q6 14 8 31l4 20q0 8 -2 15l6 8q0 4 -4 4l6 16v19h4l-2 6q0 4 2 4v6l4 23q2 4 4 4q-2 6 -2 10q20 135 27 162l-2 18l6 6 q2 45 0 51q2 4 4 3q8 51 15 73l16 101l2 20q4 6 6 19v18h2v6q0 4 4 4l-2 8l2 11q10 45 2 71q6 6 6 15l2 14h5q-6 14 -2 41l4 10q0 6 4 12q0 10 4 56l6 6v22l43 17l23 -2q18 0 18 -78l-4 -25l6 -10l-2 -4q-2 -8 -8 -14l4 -8q-2 -2 -4 -3l-15 -155l-4 -6v-23v-6q-2 -4 -6 -4 l4 -6l-8 -37q-2 -4 -4 -4l2 -6l-2 -11q-2 -4 -6 -4l4 -8l-6 -35q-20 -98 -35 -233h-4l4 -6l-4 -8q0 -4 -4 -5l2 -8l-6 -30l-2 -25h-2l2 -8q0 -4 -4 -4v-7q0 -4 -5 -4l5 -8l-41 -207l-5 -43h-4l2 -8l-10 -47q-2 -10 -2 -31l-6 -8q-14 -135 -18 -213q-4 -6 -5 -8l3 -8 q-14 -25 -33 -35l-29 2q-4 0 -2 4l-8 -4q-12 0 -27 35zM6 1501l4 15q35 55 96 174q10 0 37 59q27 14 47 14h5q2 0 2 -2l8 2q59 -39 119 -143q43 -70 43 -78q-2 -8 6 -18l-6 -27q-18 -20 -37 -29q-2 0 -2 5l-9 -5h-8q-4 0 -4 5l-6 -5q-4 0 -4 5l-6 -5q-10 0 -8 19l-11 -4 q-33 88 -90 147q-12 -14 -67 -133q-18 -31 -43 -47l-6 2l-13 -6q-53 6 -47 55z" />
<glyph unicode="&#xcf;" horiz-adv-x="325" d="M-66 35l5 24q2 8 0 15l4 6l12 108q0 4 2 5q0 39 16 108q2 -2 2 2q-6 0 -6 8l6 6q-4 8 -2 13l4 6q-2 6 -2 10l5 8v15h4l-2 6l12 69q2 14 4 27q2 14 6 31l2 20q4 8 2 15l4 8q0 4 -4 4l8 16l-2 19h4v6q0 4 5 4l-3 6l5 23q0 4 4 4q-2 6 -2 10q18 135 24 162v18l4 6q4 45 4 51 q0 4 4 3q4 51 11 73l18 101v20q6 6 8 19v18h4l-2 6q0 4 4 4l-2 8l2 11q8 45 3 71q4 6 8 15l-2 14h4q-4 14 0 41l2 10q2 6 6 12q0 10 2 56l6 6v22l45 17l23 -2q16 0 16 -78l-4 -25l6 -10l-2 -4q0 -8 -6 -14v-8q0 -2 -2 -3l-10 -155l-8 -6l2 -23l-2 -6q-2 -4 -5 -4l2 -6 l-8 -37q0 -4 -4 -4l2 -6v-11q-2 -4 -6 -4l4 -8l-8 -35q-18 -98 -35 -233h-4l4 -6l-2 -8q0 -4 -4 -5v-8l-4 -30l-2 -25h-4l2 -8q0 -4 -4 -4l2 -7q0 -4 -4 -4l2 -8l-41 -207l-4 -43h-2v-8l-7 -47q-4 -10 -6 -31l-4 -8q-16 -135 -18 -213q-4 -6 -6 -8l2 -8q-12 -25 -31 -35 l-31 2q-2 0 -2 4l-8 -4q-12 0 -25 35zM-31 1550l4 6q-2 6 0 17q53 57 90 57h15q55 -16 51 -47q8 0 4 -33h-4l2 -8q-4 -31 -74 -59h-14q-39 0 -72 53q0 6 -2 14zM270 1569q6 41 72 61h31q31 -16 51 -59l-8 -19l-2 -24q-37 -49 -74 -49q-78 10 -68 73q-4 1 -2 17z" />
<glyph unicode="&#xd0;" horiz-adv-x="1024" d="M-195 664q8 47 54 55q10 0 26 14l9 -4q14 8 20 8v-8l8 4h12q4 0 5 -4l6 4q8 0 14 -4l8 4q8 0 37 -6l25 160q0 12 8 31l-4 8l6 6l-2 22h4q0 2 -4 2l8 37l4 25q0 4 4 4q2 2 -2 2l23 113q-2 14 0 24l6 15l-4 8q0 2 6 10q0 31 2 49l2 10q0 8 -6 9l6 18l2 6v37q8 49 43 49 q2 16 47 25l17 -4q4 0 4 4l24 -4h43q12 0 33 4l6 -4q8 4 17 4l-3 -4l9 4l14 -4l6 4l6 -4q4 0 6 4q55 -6 56 -11l8 5q2 0 2 -5q2 0 4 5q150 -18 252 -68q178 -125 215 -252q39 -139 29 -215q2 0 0 -6h-2q2 -57 -2 -96l-9 -58q-14 -90 -20 -90q0 -4 2 -4l-6 -24q0 -8 2 -15 q-74 -262 -129 -356q-82 -113 -213 -164q-158 -76 -252 -76v4q-18 -4 -18 -8l-19 4q-49 -8 -61 -8h-11l-10 8q-2 -8 -8 -8h-14q-8 0 -15 4q-4 0 -4 -4l-24 4h-35q-4 0 -4 4l-6 -4h-19q-6 0 -6 8l-8 -4h-6q-4 0 -4 4q-2 0 -5 -4q-55 4 -55 15l-6 -5q-25 0 -18 95q6 6 6 10 l-2 6l4 8v21h6l4 24l-2 19h2q2 14 -6 14l8 10l2 13q0 6 -6 6l4 8l2 10h-6v4h6q6 68 4 82h4q2 39 -6 39l4 6v4h-2v-6q-8 0 -8 6q6 0 12 13l2 2h-8v8h8l4 35h-10l2 12l8 -4h3l-3 6h5q-2 25 -7 25l2 8l3 8q0 2 -3 39q2 14 13 29q-8 0 -6 10l8 35v24l8 19q0 4 -4 4l4 12l-8 -2 h-19q-8 0 -14 2q-6 -2 -10 -2q-10 0 -31 2l-70 -6q-39 23 -38 29h-5zM31 63q0 -10 182 -20q82 6 88 6l4 -4q8 4 17 4q4 0 2 -4q49 0 233 82q109 68 145 156q35 100 41 100l-4 6l64 205l-4 6q2 16 20 96l-2 9l6 20q20 139 -26 317q-18 47 -60 95q-104 119 -190 129 q-41 18 -101 30q-4 0 -6 -4q-57 12 -131 13h-63q-4 0 -2 4l-8 -4h-25l-25 4v-27l-6 -33q0 -8 2 -12q-2 -8 -4 -12l2 -6q0 -4 -4 -5l2 -14l-8 -35q0 -4 2 -4l-4 -18l-6 -35q0 -4 -4 -4l4 -6l-8 -51q0 -4 -4 -5q2 -20 2 -26q-6 -2 -9 -8v-9q-2 -8 2 -14l-12 -31v-22 q0 -4 -4 -10q0 -4 2 -11q-14 -55 -25 -125l3 -8q-4 -6 -7 -14l-4 -37q4 -2 11 -2q8 4 12 4v-4q4 4 57 8l37 -4q6 4 16 4v-4l7 4h26q8 0 19 4q2 -4 10 -4h26l23 4l-4 -4l10 4q12 -10 37 -14l-2 -10q-18 -74 -45 -74l-8 2q-8 -2 -13 -2q-10 6 -20 6h-23l-36 -4v4l-9 -4h-14 q-4 0 -2 4l-8 -4h-94q-2 0 -2 4q-11 -6 -23 -6v-2v-16l-8 -19l8 -2l-6 -6q-2 -12 2 -12l-6 -19l-2 -12v-37h-4q0 -4 4 -4l-8 -16v-56h-5l2 -6q-14 -135 -16 -158h-2q6 -18 4 -28h-4l2 -6q-8 -113 -12 -148l2 -14h-4l2 -6z" />
<glyph unicode="&#xd1;" horiz-adv-x="952" d="M-135 47q27 113 63 215l13 86q0 8 6 14q-2 6 -2 15v4q10 8 18 47q0 4 -2 4l4 19v4q2 8 0 14l15 23q20 141 30 163q-2 20 0 29h4l-4 8l2 4q0 2 4 2l-2 9v4q0 4 4 4l-2 8v2q2 8 9 8q2 2 -2 2q20 109 34 201l11 74q0 8 6 14l-4 8q6 6 6 15l-2 8q14 37 26 119q2 4 6 4 q0 2 -4 2q12 41 19 86l8 51q0 4 4 4l-4 6l4 16q2 16 37 41h8q4 0 2 -4l10 4q96 -20 93 -49q6 0 79 -98q55 -96 136 -215q53 -111 155 -242v4q0 4 -2 4l4 19l-2 14h4v8q20 236 37 351l6 18q-4 6 -2 19l7 45q2 8 -3 16l7 6v23q0 4 4 10q2 20 2 35v6q30 59 57 59q57 -10 51 -51 l-6 -8q0 -23 6 -23l-6 -18l-4 -23v-37h-4l2 -6l-6 -18q0 -4 4 -4l-8 -27l-2 -24q-2 -10 0 -17q-4 -6 -6 -14q0 -8 2 -14l-4 -9q0 -4 4 -4l-11 -24q-12 -174 -16 -197q4 -6 4 -10h-4l4 -8q-4 -4 -6 -4l2 -19l-8 -55v-37h-4q4 -35 -2 -170q-2 -4 -6 -4l2 -19l-7 -41v-36h-4 l2 -9q0 -2 -4 -2l2 -8q0 -4 -4 -4l-4 -135l-6 -8l-2 -88h-4q-2 -4 2 -4l-6 -21q4 -6 4 -10h-4q2 -6 2 -10q-4 -61 -8 -68h-2q2 -6 2 -33h-4q8 -14 4 -22h-4l4 -6l-9 -13l2 -8q-16 -47 -28 -47h-82q-6 2 -12 18q12 27 14 52l2 8q14 111 8 143l8 4q0 4 -2 4l4 19v14h4 q-4 10 0 45l5 8q-4 29 0 62h4l-2 63l6 19q20 147 -4 147q-63 119 -64 123q-49 51 -88 129l-192 299q-55 100 -66 100q-27 -131 -45 -194q-2 -4 2 -4l-8 -37l-6 -45q0 -4 -4 -4l2 -6l-8 -64q-2 -8 0 -14q-23 -84 -33 -160q0 -4 -6 -10q4 -8 2 -17l-2 -20q-2 -4 -7 -4l5 -8 l-3 -11q-16 -119 -38 -178q-2 -4 2 -4l-7 -18l5 -8q-6 -8 -27 -80l8 -4l-8 -19l-6 -51l-10 -45q4 0 2 -4q-8 0 -41 -133v-27l-4 -6v-8l-5 -6q4 -8 5 -13q-35 -45 -66 -45v4l-8 -4h-6q-33 20 -37 37zM199 1538h4l-2 8l4 39q8 14 22 57q51 76 101 99q31 16 45 16q4 0 4 -4l6 4 h18q76 0 191 -168q35 -20 45 -20h10q49 23 51 30q10 23 15 23v6v4q2 4 4 4q-2 8 0 45q4 0 4 5q-6 0 -6 8h4l-4 6l2 4l45 49q6 4 10 4q47 -6 43 -24q4 -8 2 -11q-4 -8 -4 -12q4 0 8 -10v-2q0 -10 -10 -23l2 -18q-14 -111 -133 -178l2 4q-35 -18 -49 -19q-6 4 -15 4 q-8 -4 -10 -4v4l-8 -4q-94 45 -106 82q-10 0 -70 90q-27 27 -72 27q-66 -39 -78 -113q2 -14 0 -32q-2 0 -24 -23h-33l-6 4q0 -4 -4 -4q0 4 -2 4l2 8q-10 16 -8 31z" />
<glyph unicode="&#xd2;" horiz-adv-x="1064" d="M-33 596h2l-2 6l8 49q0 12 -2 19l7 22q16 106 28 180q2 4 -2 5l6 18l4 27q0 4 4 4q0 2 -4 2q47 164 103 246l-4 6q51 109 129 163q57 63 98 66q2 0 25 8v-4q27 14 98 14q6 -4 10 -4q0 6 17 17q4 0 4 -4q14 2 14 8q4 0 10 -4q63 4 96 4h23q59 0 94 -31v4q55 -10 105 -51 q61 -33 110 -178q20 -70 21 -76q-4 -6 -8 -10q8 0 12 -60h-4q6 -35 6 -73h-4l2 -6v-9q-2 -4 -6 -4l4 -8v-6q0 -4 -4 -4v-41h-4l4 -6v-4l-9 -9q8 0 9 -8l-2 -10h-7v-18q0 -4 -4 -5l4 -6l-4 -12q0 -2 -4 -2l4 -8v-4q0 -4 -4 -4l2 -7v-4q-2 -12 -6 -12v-18l-8 -56h-6 q-2 -12 2 -18q-39 -137 -62 -197q0 -2 5 -2q-12 -41 -19 -41q0 -4 4 -4q-57 -150 -92 -207q-57 -84 -86 -106q-123 -109 -229 -137q-29 -12 -80 -17q-14 4 -15 8q-2 0 -2 -4q-211 33 -206 56q-141 115 -166 270q-23 201 -19 297zM55 598q10 -233 37 -350q23 -59 74 -115 q51 -68 137 -67q-2 -4 70 -11q78 0 219 107q76 76 102 137l11 4q-4 6 -3 10q18 45 25 49l-2 9q10 0 47 133q14 0 64 235l10 52q0 4 -2 12q8 25 8 41l6 41q0 4 4 4l-4 29l4 8q2 33 0 39l4 8v22q4 0 4 4q-8 0 -6 7l2 16l4 6q-6 0 -14 105q-2 0 -45 102q-10 2 -14 22 q-41 49 -158 78q-8 0 -8 8l-8 -4q-23 2 -21 7q-4 0 -4 -3l-45 3h-25q-18 -11 -30 -11l-9 4q-168 -43 -170 -55q-14 0 -81 -72q-68 -125 -123 -276l2 -8q-6 -27 -11 -27q0 -2 3 -2q-8 -41 -13 -41q0 -4 4 -4l-8 -18l-6 -60q-2 -8 -6 -14q2 -6 2 -10l-8 -27q0 -4 4 -4l-6 -19 l-13 -84v-20h-4zM336 1706v4q4 31 51 64q2 4 6 4h27q72 -88 203 -207q12 -29 12 -35q-8 -37 -62 -47q2 4 -2 4q-2 -8 -8 -8h-8q-20 0 -29 26q-8 0 -90 78q-74 55 -100 117z" />
<glyph unicode="&#xd3;" horiz-adv-x="1056" d="M-33 596h2l-2 6l8 49q0 12 -2 19l7 22q16 106 28 180q2 4 -2 5l6 18l4 27q0 4 4 4q0 2 -4 2q47 164 103 246l-4 6q51 109 129 163q57 63 98 66q2 0 25 8v-4q27 14 98 14q6 -4 10 -4q0 6 17 17q4 0 4 -4q14 2 14 8q4 0 10 -4q63 4 96 4h23q59 0 94 -31v4q55 -10 105 -51 q61 -33 110 -178q20 -70 21 -76q-4 -6 -8 -10q8 0 12 -60h-4q6 -35 6 -73h-4l2 -6v-9q-2 -4 -6 -4l4 -8v-6q0 -4 -4 -4v-41h-4l4 -6v-4l-9 -9q8 0 9 -8l-2 -10h-7v-18q0 -4 -4 -5l4 -6l-4 -12q0 -2 -4 -2l4 -8v-4q0 -4 -4 -4l2 -7v-4q-2 -12 -6 -12v-18l-8 -56h-6 q-2 -12 2 -18q-39 -137 -62 -197q0 -2 5 -2q-12 -41 -19 -41q0 -4 4 -4q-57 -150 -92 -207q-57 -84 -86 -106q-123 -109 -229 -137q-29 -12 -80 -17q-14 4 -15 8q-2 0 -2 -4q-211 33 -206 56q-141 115 -166 270q-23 201 -19 297zM55 598q10 -233 37 -350q23 -59 74 -115 q51 -68 137 -67q-2 -4 70 -11q78 0 219 107q76 76 102 137l11 4q-4 6 -3 10q18 45 25 49l-2 9q10 0 47 133q14 0 64 235l10 52q0 4 -2 12q8 25 8 41l6 41q0 4 4 4l-4 29l4 8q2 33 0 39l4 8v22q4 0 4 4q-8 0 -6 7l2 16l4 6q-6 0 -14 105q-2 0 -45 102q-10 2 -14 22 q-41 49 -158 78q-8 0 -8 8l-8 -4q-23 2 -21 7q-4 0 -4 -3l-45 3h-25q-18 -11 -30 -11l-9 4q-168 -43 -170 -55q-14 0 -81 -72q-68 -125 -123 -276l2 -8q-6 -27 -11 -27q0 -2 3 -2q-8 -41 -13 -41q0 -4 4 -4l-8 -18l-6 -60q-2 -8 -6 -14q2 -6 2 -10l-8 -27q0 -4 4 -4l-6 -19 l-13 -84v-20h-4zM522 1536q0 6 19 35q166 119 262 207h26q4 0 2 -4q41 -33 37 -64l-2 -4q-45 -61 -135 -117q-102 -78 -108 -78q-16 -27 -39 -26h-6q-8 0 -7 8q-4 0 -6 -4q-51 10 -43 47z" />
<glyph unicode="&#xd4;" horiz-adv-x="1067" d="M-33 596h4l-4 6l8 49q2 12 -2 19l7 22q16 106 30 180q0 4 -4 5l6 18l4 27q2 4 7 4q0 2 -5 2q45 164 101 246l-2 6q49 109 127 163q59 63 100 66q2 0 25 8l-2 -4q27 14 100 14q4 -4 8 -4q2 6 17 17q4 0 4 -4q14 2 16 8q4 0 10 -4q63 4 99 4h20q59 0 92 -31l2 4 q53 -10 103 -51q61 -33 112 -178q18 -70 19 -76q-4 -6 -4 -10q6 0 10 -60h-4q6 -35 4 -73h-4l4 -6l-2 -9q0 -4 -4 -4l2 -8v-6q0 -4 -4 -4q4 -4 2 -41h-4l2 -6v-4l-4 -9q6 0 4 -8l-2 -10h-7l3 -18q-2 -4 -7 -5l4 -6v-12q0 -2 -4 -2v-8v-4q0 -4 -4 -4l4 -7l-2 -4 q-2 -12 -6 -12l4 -18l-8 -56h-8q-2 -12 0 -18q-39 -137 -60 -197q0 -2 3 -2q-12 -41 -17 -41q-2 -4 2 -4q-57 -150 -92 -207q-57 -84 -86 -106q-121 -109 -227 -137q-31 -12 -80 -17q-16 4 -15 8q-4 0 -4 -4q-211 33 -206 56q-141 115 -162 270q-25 201 -23 297zM57 598 q8 -233 35 -350q23 -59 74 -115q53 -68 139 -67q-2 -4 68 -11q78 0 219 107q78 76 104 137l9 4q-2 6 -3 10q20 45 25 49l-2 9q12 0 47 133q14 0 64 235l10 52q0 4 -2 12q8 25 10 41l4 41q0 4 4 4l-2 29l6 8q0 33 -4 39l6 8v22q4 0 4 4q-8 0 -8 7l2 16l6 6q-6 0 -16 105 q-2 0 -45 102q-8 2 -14 22q-39 49 -158 78q-8 0 -8 8l-6 -4q-23 2 -23 7q-4 0 -4 -3l-45 3h-25q-18 -11 -30 -11l-6 4q-170 -43 -173 -55q-14 0 -79 -72q-70 -125 -123 -276l2 -8q-6 -27 -10 -27q-2 -2 2 -2q-10 -41 -15 -41q0 -4 4 -4l-6 -18l-8 -60q0 -8 -6 -14 q4 -6 2 -10l-6 -27q-2 -4 2 -4l-6 -19l-13 -84l2 -20h-4zM408 1501l2 15q37 55 98 174q10 0 39 59q27 14 45 14h4q2 0 2 -2l8 2q59 -39 121 -143q41 -70 41 -78t4 -18l-2 -27q-18 -20 -39 -29q-4 0 -2 5l-8 -5h-8q-4 0 -2 5l-9 -5q-4 0 -4 5l-8 -5q-8 0 -8 19l-8 -4 q-35 88 -90 147q-12 -14 -66 -133q-20 -31 -43 -47l-6 2l-12 -6q-55 6 -49 55z" />
<glyph unicode="&#xd5;" horiz-adv-x="1067" d="M-33 596h4l-2 6l6 49q2 12 -2 19l9 22q14 106 28 180q2 4 -2 5l6 18l4 27q0 4 5 4q0 2 -5 2q45 164 103 246l-4 6q49 109 127 163q59 63 100 66q2 0 25 8v-4q25 14 98 14q6 -4 10 -4q0 6 17 17q4 0 2 -4q16 2 16 8q4 0 12 -4q61 4 97 4h20q59 0 94 -31v4q55 -10 103 -51 q63 -33 112 -178q20 -70 19 -76q-4 -6 -4 -10q6 0 10 -60h-4q6 -35 4 -73h-4l4 -6l-2 -9q0 -4 -4 -4l2 -8v-6q0 -4 -4 -4q4 -4 2 -41h-4l2 -6v-4l-4 -9q6 0 6 -8l-2 -10h-9l3 -18q0 -4 -5 -5l2 -6v-12q0 -2 -4 -2v-8v-4q0 -4 -4 -4l4 -7v-4q-2 -12 -6 -12l2 -18l-8 -56h-8 q-2 -12 0 -18q-39 -137 -60 -197q0 -2 3 -2q-12 -41 -17 -41q0 -4 4 -4q-59 -150 -94 -207q-57 -84 -82 -106q-125 -109 -231 -137q-31 -12 -80 -17q-14 4 -15 8q-2 0 -4 -4q-209 33 -206 56q-141 115 -162 270q-25 201 -23 297zM57 598q8 -233 37 -350q20 -59 74 -115 q53 -68 137 -67q-2 -4 68 -11q80 0 219 107q80 76 104 137l9 4q-2 6 -3 10q20 45 25 49l-2 9q12 0 47 133q14 0 64 235l10 52q2 4 -2 12q8 25 10 41l4 41q2 4 6 4l-4 29l6 8q0 33 -4 39l6 8v22q4 0 4 4q-8 0 -8 7l2 16l6 6q-6 0 -16 105q-2 0 -45 102q-8 2 -14 22 q-39 49 -158 78q-8 0 -8 8l-6 -4q-23 2 -23 7q-4 0 -4 -3l-43 3h-27q-18 -11 -30 -11l-6 4q-170 -43 -173 -55q-14 0 -79 -72q-70 -125 -123 -276l2 -8q-6 -27 -10 -27q0 -2 2 -2q-10 -41 -15 -41q0 -4 4 -4l-6 -18l-8 -60q0 -8 -4 -14q2 -6 2 -10l-8 -27q0 -4 4 -4l-8 -19 l-13 -84l2 -20h-4zM301 1538h4l-4 8l6 39q8 14 23 57q51 76 98 99q33 16 47 16q4 0 2 -4l8 4h19q76 0 190 -168q33 -20 43 -20h13q49 23 49 30q12 23 18 23l-4 6l2 4q0 4 2 4v45q4 0 4 5q-6 0 -6 8h4l-2 6v4l47 49q8 4 13 4q43 -6 41 -24q4 -8 2 -11q-4 -8 -5 -12 q4 0 11 -10l-2 -2q0 -10 -11 -23l2 -18q-16 -111 -133 -178v4q-33 -18 -49 -19q-6 4 -12 4q-8 -4 -12 -4l2 4l-11 -4q-94 45 -106 82q-8 0 -70 90q-25 27 -69 27q-68 -39 -78 -113q2 -14 0 -32q-2 0 -25 -23h-30l-9 4q0 -4 -4 -4q0 4 -2 4l4 8q-12 16 -10 31z" />
<glyph unicode="&#xd6;" horiz-adv-x="1075" d="M-23 596h3l-3 6l7 49q2 12 0 19l8 22q8 106 28 180q0 4 -4 5l7 18l4 27q0 4 4 4q2 2 -2 2q47 164 100 246l-2 6q47 109 125 163q59 63 102 66q2 0 23 8v-4q25 14 96 14q8 -4 12 -4q0 6 17 17q4 0 4 -4q14 2 16 8q4 0 10 -4q63 4 97 4h22q59 0 92 -31v4q55 -10 105 -51 q61 -33 110 -178q20 -70 21 -76q-6 -6 -6 -10q8 0 10 -60h-2q4 -35 2 -73h-4l4 -6l-2 -9q0 -4 -2 -4l2 -8l-2 -6q0 -4 -4 -4q4 -4 2 -41h-4l4 -6l-2 -4l-4 -9q8 0 6 -8l-2 -10h-8l4 -18q-2 -4 -6 -5l4 -6l-2 -12q0 -2 -4 -2l4 -8l-4 -4q0 -4 -5 -4l5 -7v-4q-2 -12 -7 -12 l2 -18l-8 -56h-8v-18q-37 -137 -59 -197q0 -2 4 -2q-12 -41 -19 -41q0 -4 4 -4q-57 -150 -90 -207q-59 -84 -86 -106q-123 -109 -231 -137q-29 -12 -80 -17q-14 4 -14 8q-2 0 -2 -4q-211 33 -207 56q-141 115 -164 270q-25 201 -21 297zM66 598q8 -233 36 -350 q23 -59 72 -115q55 -68 139 -67q0 -4 68 -11q80 0 219 107q80 76 107 137l6 4q-2 6 0 10q18 45 22 49l-2 9q12 0 47 133q14 0 64 235l10 52v12q6 25 8 41l6 41q0 4 4 4l-2 29l4 8q0 33 -2 39l7 8l-2 22q4 0 4 4q-8 0 -7 7l3 16l4 6q-6 0 -15 105q-2 0 -45 102q-10 2 -14 22 q-41 49 -160 78q-8 0 -8 8l-6 -4q-23 2 -21 7q-4 0 -6 -3l-43 3h-24q-21 -11 -33 -11l-6 4q-168 -43 -170 -55q-14 0 -80 -72q-70 -125 -125 -276l2 -8q-6 -27 -10 -27q0 -2 2 -2q-6 -41 -10 -41q-4 -4 0 -4l-5 -18l-10 -60q0 -8 -6 -14q4 -6 4 -10l-8 -27q0 -4 4 -4l-6 -19 l-12 -84v-20h-4zM379 1550l4 6q-2 6 -2 17q57 57 94 57h14q57 -16 54 -47q8 0 4 -33h-4v-8q-2 -31 -74 -59h-16q-39 0 -72 53q0 6 -2 14zM682 1569q6 41 74 61h28q33 -16 52 -59l-7 -19l-4 -24q-39 -49 -73 -49q-74 10 -68 73q-2 1 -2 17z" />
<glyph unicode="&#xd7;" horiz-adv-x="587" d="M-8 477q94 111 178 182q-98 74 -150 146v16q35 53 66 53q20 -16 76 -77q39 -29 80 -68h4q2 8 73 76l80 74h11q4 0 4 -5l8 5h4q20 -16 25 -58q-23 -29 -62 -57q-8 -16 -88 -92q45 -55 178 -160q8 -33 8 -35q-8 -47 -45 -47l-8 4q-6 -4 -14 -4q-61 31 -191 170v4h-4 q-4 -12 -30 -31q0 -4 -68 -65l-53 -59q-16 -12 -35 -13h-10q-39 6 -35 27v4q2 0 2 4q-6 0 -4 6z" />
<glyph unicode="&#xd8;" horiz-adv-x="1081" d="M-12 596h4l-4 6l8 49q4 12 0 19l4 22q12 106 31 180q0 4 -4 5l8 18l4 27q0 4 4 4q0 2 -4 2q47 164 100 246l-2 6q47 109 125 163q61 63 105 66q2 0 22 8l-2 -4q29 14 100 14q6 -4 11 -4q0 6 14 17q4 0 4 -4q16 2 16 8q4 0 11 -4q63 4 96 4h23q12 0 22 -2l25 51 q35 18 39 31h28q4 0 2 -6l10 6h5q33 -29 26 -66q0 -8 -22 -53q33 -14 61 -39q61 -33 113 -178q18 -70 18 -76q-6 -6 -6 -10q8 0 12 -60h-4q6 -35 4 -73h-4l4 -6l-2 -9q0 -4 -4 -4l2 -8l-2 -6q0 -4 -4 -4q4 -4 4 -41h-4l2 -6v-4l-6 -9q8 0 6 -8l-2 -10h-6l2 -18q-2 -4 -6 -5 l4 -6v-12q-2 -2 -6 -2l4 -8l-2 -4q0 -4 -4 -4l4 -7v-4q-4 -12 -8 -12l4 -18l-8 -56h-9q-2 -12 0 -18q-39 -137 -59 -197q0 -2 2 -2q-10 -41 -16 -41q0 -4 4 -4q-59 -150 -92 -207q-61 -84 -86 -106q-123 -109 -230 -137q-31 -12 -82 -17q-14 4 -12 8q-2 0 -4 -4 q-131 23 -178 37q-12 -23 -17 -22l2 -23q-25 -51 -63 -51l4 4l-12 -4h-4q-45 29 -39 70q16 37 24 36q0 4 -4 5q13 28 25 55q-90 96 -111 219q-20 201 -18 297zM78 598q8 -233 35 -350q16 -39 43 -78q98 231 129 285q0 4 -4 4q43 96 45 102q-4 0 -4 4q6 0 24 60q10 16 14 16 l-4 8q23 55 29 56l-2 8q37 74 119 274q33 57 114 303q7 0 23 49q-16 2 -16 7q-4 0 -5 -3l-45 3h-24q-20 -10 -33 -11l-4 4q-170 -43 -172 -55q-14 0 -80 -72q-70 -125 -125 -276l4 -8q-6 -27 -10 -27q-2 -2 2 -2q-8 -41 -12 -41q-2 -4 2 -4l-4 -18l-8 -60q-4 -8 -9 -14 q4 -6 2 -10l-6 -27q0 -4 4 -4l-8 -19l-10 -84v-20h-4zM233 92q39 -27 93 -26q0 -4 67 -11q78 0 219 107q78 76 105 137l8 4q-2 6 -2 10q18 45 25 49l-3 9q12 0 50 133q14 0 61 235l10 52q0 4 -2 12q6 25 10 41l5 41q0 4 4 4l-2 29l6 8q0 33 -2 39l4 8v22q4 0 4 4q-8 0 -6 7 l2 16l4 6q-6 0 -14 105q-2 0 -45 102q-10 2 -17 22q-22 28 -65 48q-10 -18 -21 -39q-35 -74 -78 -203z" />
<glyph unicode="&#xd9;" horiz-adv-x="1099" d="M-49 371q6 31 0 80h4l-2 8l4 28q2 20 -4 21q0 6 4 6q2 43 4 64l6 24l-4 23q6 8 6 12q-2 6 -2 10h4q0 4 -4 4l8 19l2 14q0 8 -2 14q4 8 5 17l4 18q2 8 -2 15q6 6 6 14l4 22v27q6 0 6 6q-2 8 -2 12h2q2 4 2 5v24l8 45q0 8 -2 15q4 10 14 51q-2 8 -2 12l9 2l-7 21 q12 16 15 32q-4 6 -4 11q4 0 12 12l-2 14q6 16 16 47l-2 8q0 4 4 5q0 4 -4 10q10 41 15 71h4q-2 6 -2 11q16 70 20 69q0 4 -4 4q8 49 68 74h4q33 0 41 -41l-4 -6l2 -18q-12 -29 -15 -33q0 -4 4 -4q-14 -68 -20 -68l2 -8v-10q-6 -47 -18 -68q4 -10 8 -10q-10 -43 -19 -43 q-2 -4 2 -4l-6 -19q-2 -18 -18 -114h-4l4 -8q-2 -4 -6 -5l4 -6q0 -4 -4 -4l2 -8q0 -4 -6 -10q2 -20 0 -33l-5 -23q0 -4 -4 -4l2 -8q0 -4 -4 -4q0 -2 4 -2l-6 -14q0 -4 2 -13q-6 -20 -8 -32l2 -19h-4l2 -8q0 -2 -4 -2v-27v-8l-6 -22q0 -4 4 -4q-4 -4 -8 -11q-4 -51 -2 -69 l-4 -9q-8 -74 -9 -159h-4l9 -47l-5 -9q6 -88 33 -141q72 -113 154 -113q0 -6 43 -8q4 0 6 4l16 -4h37q102 10 146 37q16 0 129 92q18 18 39 54q-4 0 -5 2q43 55 46 77l-3 9q6 14 11 14l-2 8q16 25 37 107q4 0 16 41q0 4 -4 4q18 57 37 129q-2 8 -2 12h4l-4 25l4 8q-2 6 0 14 h4q0 4 -4 4q6 25 12 33l-8 4q14 41 14 51l-4 8q4 4 8 5l-4 18l12 84q4 14 2 41q6 6 7 10l-7 17q2 4 7 10v28q0 4 4 13l6 133l4 6q-2 8 0 16q0 4 2 4q-8 72 0 129l2 19q14 0 27 27q18 6 26 6q-2 -4 2 -4q2 12 4 12q29 -16 46 -35v-2l-5 -8q6 0 7 -6v-4q-2 -4 -7 -5 q-2 -66 7 -65l-5 -8l-2 -27q-2 -8 -2 -14l-2 -8q2 -6 0 -15q-2 0 -4 -4q8 0 6 -28l-4 -21q-10 -139 -10 -166h-2q2 -6 2 -10q-4 -6 -6 -10l6 -4l-2 -9l-4 -10l2 -22q-4 -8 -6 -13l4 -6q-4 -8 -8 -14l8 -4q-18 -74 -27 -78q8 -2 8 -8l-6 -37q-4 -25 -4 -47l-14 -60l2 -8 l-25 -74q0 -4 4 -4q-29 -96 -53 -151q4 -6 4 -10q-6 -39 -59 -138q-8 -47 -131 -159q-150 -100 -240 -101q-4 0 -10 -4q-4 0 -4 4q-31 -4 -57 -10l-7 4q-8 -4 -12 -4t-2 4l-20 -4l-17 4q-8 -4 -12 -4v4q-2 0 -4 -4q-100 0 -201 78q-86 94 -96 293zM334 1706v4q4 31 51 64 q2 4 6 4h27q70 -88 203 -207q12 -29 10 -35q-4 -37 -60 -47q2 4 -2 4q-2 -8 -8 -8h-6q-23 0 -33 26q-8 0 -88 78q-74 55 -100 117z" />
<glyph unicode="&#xda;" horiz-adv-x="1120" d="M-49 371q6 31 0 80h4l-2 8l4 28q2 20 -4 21q0 6 4 6q2 43 4 64l6 24l-4 23q6 8 6 12q-2 6 -2 10h4q0 4 -4 4l8 19l2 14q0 8 -2 14q4 8 5 17l4 18q2 8 -2 15q6 6 6 14l4 22v27q6 0 6 6q-2 8 -2 12h2q2 4 2 5v24l8 45q0 8 -2 15q4 10 14 51q-2 8 -2 12l9 2l-7 21 q12 16 15 32q-4 6 -4 11q4 0 12 12l-2 14q6 16 16 47l-2 8q0 4 4 5q0 4 -4 10q10 41 15 71h4q-2 6 -2 11q16 70 20 69q0 4 -4 4q8 49 68 74h4q33 0 41 -41l-4 -6l2 -18q-12 -29 -15 -33q0 -4 4 -4q-14 -68 -20 -68l2 -8v-10q-6 -47 -18 -68q4 -10 8 -10q-10 -43 -19 -43 q-2 -4 2 -4l-6 -19q-2 -18 -18 -114h-4l4 -8q-2 -4 -6 -5l4 -6q0 -4 -4 -4l2 -8q0 -4 -6 -10q2 -20 0 -33l-5 -23q0 -4 -4 -4l2 -8q0 -4 -4 -4q0 -2 4 -2l-6 -14q0 -4 2 -13q-6 -20 -8 -32l2 -19h-4l2 -8q0 -2 -4 -2v-27v-8l-6 -22q0 -4 4 -4q-4 -4 -8 -11q-4 -51 -2 -69 l-4 -9q-8 -74 -9 -159h-4l9 -47l-5 -9q6 -88 33 -141q72 -113 154 -113q0 -6 43 -8q4 0 6 4l16 -4h37q102 10 146 37q16 0 129 92q18 18 39 54q-4 0 -5 2q43 55 46 77l-3 9q6 14 11 14l-2 8q16 25 37 107q4 0 16 41q0 4 -4 4q18 57 37 129q-2 8 -2 12h4l-4 25l4 8q-2 6 0 14 h4q0 4 -4 4q6 25 12 33l-8 4q14 41 14 51l-4 8q4 4 8 5l-4 18l12 84q4 14 2 41q6 6 7 10l-7 17q2 4 7 10v28q0 4 4 13l6 133l4 6q-2 8 0 16q0 4 2 4q-8 72 0 129l2 19q14 0 27 27q18 6 26 6q-2 -4 2 -4q2 12 4 12q29 -16 46 -35v-2l-5 -8q6 0 7 -6v-4q-2 -4 -7 -5 q-2 -66 7 -65l-5 -8l-2 -27q-2 -8 -2 -14l-2 -8q2 -6 0 -15q-2 0 -4 -4q8 0 6 -28l-4 -21q-10 -139 -10 -166h-2q2 -6 2 -10q-4 -6 -6 -10l6 -4l-2 -9l-4 -10l2 -22q-4 -8 -6 -13l4 -6q-4 -8 -8 -14l8 -4q-18 -74 -27 -78q8 -2 8 -8l-6 -37q-4 -25 -4 -47l-14 -60l2 -8 l-25 -74q0 -4 4 -4q-29 -96 -53 -151q4 -6 4 -10q-6 -39 -59 -138q-8 -47 -131 -159q-150 -100 -240 -101q-4 0 -10 -4q-4 0 -4 4q-31 -4 -57 -10l-7 4q-8 -4 -12 -4t-2 4l-20 -4l-17 4q-8 -4 -12 -4v4q-2 0 -4 -4q-100 0 -201 78q-86 94 -96 293zM510 1536q0 6 18 35 q166 119 263 207h26q4 0 2 -4q39 -33 35 -64v-4q-43 -61 -133 -117q-104 -78 -113 -78q-14 -27 -37 -26h-6q-8 0 -6 8q-4 0 -4 -4q-51 10 -45 47z" />
<glyph unicode="&#xdb;" horiz-adv-x="1110" d="M-47 371q4 31 0 80h4l-4 8l4 28q2 20 -4 21q2 6 4 6q2 43 6 64l4 24l-2 23q6 8 6 12q-4 6 -4 10h4q0 4 -4 4l8 19l2 14q2 8 -2 14q4 8 9 17v18q2 8 0 15q4 6 4 14l4 22v27q6 0 6 6q2 8 2 12v5l2 24l6 45q2 8 0 15q2 10 15 51q-4 8 -5 12l9 2l-4 21q10 16 12 32 q-2 6 -2 11q2 0 12 12l-4 14q8 16 16 47l-2 8q0 4 4 5q0 4 -2 10q10 41 15 71h4q-4 6 -4 11q16 70 22 69q0 4 -4 4q6 49 66 74h4q33 0 43 -41l-6 -6l2 -18q-12 -29 -13 -33q-2 -4 2 -4q-12 -68 -18 -68l2 -8l-2 -10q-6 -47 -16 -68q2 -10 6 -10q-10 -43 -19 -43q0 -4 4 -4 l-8 -19q-2 -18 -18 -114h-4l4 -8q0 -4 -4 -5l2 -6q0 -4 -4 -4l4 -8q-2 -4 -6 -10q0 -20 -2 -33l-3 -23q0 -4 -4 -4l2 -8q0 -4 -4 -4q-2 -2 2 -2l-6 -14q0 -4 4 -13q-8 -20 -10 -32l2 -19h-4l4 -8q0 -2 -4 -2l-2 -27v-8l-6 -22q0 -4 4 -4q0 -4 -8 -11q0 -51 -2 -69l-2 -9 q-8 -74 -9 -159h-4l7 -47l-5 -9q8 -88 33 -141q72 -113 154 -113q0 -6 45 -8q4 0 4 4l18 -4h37q100 10 144 37q16 0 129 92q18 18 41 54q-4 0 -4 2q41 55 45 77l-5 9q6 14 11 14l-2 8q18 25 37 107q6 0 16 41q2 4 -2 4q18 57 37 129q-4 8 -4 12h4l-4 25l6 8q-4 6 -2 14h4 q0 4 -4 4q8 25 12 33l-6 4q12 41 12 51v8q0 4 4 5l-2 18l10 84q4 14 5 41q4 6 4 10l-4 17q0 4 4 10q0 20 2 28q0 4 6 13l2 133l4 6q-2 8 0 16q0 4 2 4q-6 72 2 129v19q14 0 27 27q18 6 26 6q0 -4 4 -4q3 12 7 12q27 -16 43 -35l-2 -2l-5 -8q8 0 9 -6l-2 -4q0 -4 -5 -5 q-2 -66 5 -65l-5 -8l-2 -27q-2 -8 2 -14l-6 -8q2 -6 2 -15q-4 0 -4 -4q8 0 8 -28l-8 -21q-8 -139 -8 -166h-4q2 -6 2 -10q-4 -6 -4 -10l4 -4l-2 -9v-10l-2 -22q-4 -8 -4 -13l2 -6q-4 -8 -4 -14l6 -4q-20 -74 -27 -78q8 -2 6 -8l-6 -37q-2 -25 -2 -47l-14 -60l2 -8l-25 -74 q-2 -4 2 -4q-29 -96 -51 -151q2 -6 2 -10q-4 -39 -59 -138q-6 -47 -129 -159q-152 -100 -242 -101q-4 0 -10 -4q-4 0 -4 4q-31 -4 -55 -10l-9 4q-8 -4 -12 -4q-2 0 -2 4l-18 -4l-19 4q-8 -4 -12 -4l2 4q-4 0 -4 -4q-102 0 -203 78q-86 94 -94 293zM375 1501l4 15 q37 55 96 174q10 0 39 59q27 14 45 14h4q4 0 2 -2l10 2q59 -39 119 -143q43 -70 41 -78t6 -18l-4 -27q-18 -20 -37 -29q-4 0 -4 5l-8 -5h-6q-4 0 -4 5l-6 -5q-4 0 -4 5l-9 -5q-10 0 -8 19l-10 -4q-33 88 -88 147q-14 -14 -68 -133q-18 -31 -45 -47l-6 2l-10 -6q-57 6 -49 55 z" />
<glyph unicode="&#xdc;" horiz-adv-x="1116" d="M-39 371q4 31 0 80h4l-4 8l6 28q2 20 -4 21q0 6 2 6q4 43 6 64l4 24v23q4 8 5 12q-2 6 0 10h4q0 4 -4 4l6 19l2 14q0 8 -4 14q8 8 8 17l2 18q2 8 -2 15q4 6 8 14v22v27q4 0 6 6q-2 8 -2 12h4q0 4 -4 5l6 24l8 45q0 8 -2 15q2 10 15 51q-2 8 -2 12l8 2l-4 21q10 16 10 32 q-2 6 0 11q2 0 12 12l-6 14q8 16 19 47l-5 8q2 4 7 5q0 4 -4 10q10 41 14 71h4q-2 6 -2 11q14 70 20 69q0 4 -4 4q8 49 68 74h4q33 0 43 -41l-6 -6l2 -18q-12 -29 -14 -33q0 -4 4 -4q-14 -68 -21 -68l4 -8l-2 -10q-6 -47 -16 -68q2 -10 6 -10q-12 -43 -18 -43q0 -4 4 -4 l-9 -19q-2 -18 -20 -114h-2l2 -8q0 -4 -4 -5l4 -6q0 -4 -4 -4l2 -8q0 -4 -6 -10q2 -20 0 -33l-2 -23q-2 -4 -6 -4l4 -8q-2 -4 -6 -4q0 -2 4 -2l-7 -14q0 -4 3 -13q-6 -20 -9 -32l2 -19h-4l2 -8q0 -2 -4 -2v-27l-2 -8l-6 -22q0 -4 4 -4q0 -4 -6 -11q-2 -51 -2 -69l-4 -9 q-8 -74 -8 -159h-4l10 -47l-4 -9q4 -88 30 -141q70 -113 154 -113q-2 -6 43 -8q4 0 4 4l19 -4h36q102 10 148 37q16 0 127 92q18 18 39 54q-4 0 -2 2q41 55 45 77l-4 9q4 14 8 14v8q16 25 37 107q4 0 16 41q0 4 -4 4q20 57 37 129q-2 8 -2 12h4l-4 25l6 8q-4 6 -4 14h4 q0 4 -2 4q4 25 12 33l-8 4q12 41 16 51l-4 8q0 4 4 5v18l13 84v41q4 6 8 10l-6 17q0 4 4 10v28q2 4 6 13l4 133l4 6q-4 8 -2 16q0 4 2 4q-6 72 2 129l2 19q14 0 27 27q20 6 27 6q0 -4 4 -4q2 12 4 12q27 -16 43 -35v-2l-4 -8q6 0 6 -6v-4q0 -4 -4 -5q-2 -66 6 -65l-6 -8 l-4 -27q0 -8 2 -14l-4 -8v-15q-2 0 -5 -4q8 0 9 -28l-9 -21q-8 -139 -6 -166h-4q2 -6 2 -10q-6 -6 -6 -10l6 -4l-4 -9v-10l-2 -22q-4 -8 -4 -13l2 -6q-4 -8 -4 -14l6 -4q-18 -74 -26 -78q8 -2 8 -8l-4 -37q-4 -25 -4 -47l-17 -60l4 -8l-26 -74q0 -4 4 -4q-29 -96 -52 -151 q2 -6 3 -10q-6 -39 -62 -138q-4 -47 -129 -159q-152 -100 -240 -101q-4 0 -12 -4q-4 0 -4 4q-29 -4 -55 -10l-6 4q-8 -4 -13 -4q-4 0 -2 4l-20 -4l-17 4q-10 -4 -14 -4l2 4q-4 0 -4 -4q-100 0 -199 78q-90 94 -98 293zM356 1550l4 6q-2 6 0 17q55 57 93 57h16q53 -16 51 -47 q8 0 2 -33h-4l4 -8q-4 -31 -76 -59h-14q-41 0 -74 53q0 6 -2 14zM662 1552q-4 1 0 17q4 41 71 61h29q31 -16 51 -59l-6 -19l-4 -24q-37 -49 -74 -49q-76 10 -67 73z" />
<glyph unicode="&#xdd;" horiz-adv-x="1099" d="M70 1399q10 27 18 26h4q2 0 2 -4q8 4 12 4l15 -4q6 4 10 4l8 -12l8 4q25 -29 111 -207q25 -31 102 -196q37 -70 107 -221q4 0 61 77q117 137 228 304q31 25 151 202q6 0 49 64q17 22 23 22h4q4 0 0 -4l10 4h17q23 -31 20 -55q-4 -8 -45 -64q0 -8 -57 -81 q-131 -186 -242 -318q-45 -74 -158 -205q-27 -43 -30 -77q-6 -25 -13 -44l4 -8q-8 -14 -8 -24q0 -4 4 -4l-8 -21l-4 -29q0 -4 -4 -4l2 -6l-2 -14q0 -4 -2 -4q0 -4 2 -4l-6 -19l-10 -73q0 -4 -4 -5l2 -8l-21 -151q-2 -8 0 -15q-4 -6 -4 -14v-10l-2 -27h-2l2 -8 q-6 -70 -10 -96h-4l4 -6q-10 -63 -54 -64q-2 -4 -6 -4q-37 0 -30 70h4l-2 8v4q2 8 6 14q-2 6 -2 15v4q2 4 6 4q-4 8 -4 10q16 176 22 209l17 113q0 4 4 4q-2 8 -2 12q0 6 10 41l-4 6l6 23v4q4 8 0 14l4 6v25v2q0 4 4 4l-4 6q4 4 8 4l-4 8l4 41q4 16 11 41q-102 217 -170 340 q0 12 -39 88l-95 174q-43 47 -34 105zM510 1536q0 6 18 35q166 119 263 207h26q4 0 2 -4q39 -33 35 -64v-4q-43 -61 -133 -117q-104 -78 -113 -78q-14 -27 -37 -26h-6q-8 0 -6 8q-4 0 -4 -4q-51 10 -45 47z" />
<glyph unicode="&#xde;" horiz-adv-x="1120" />
<glyph unicode="&#xdf;" horiz-adv-x="1251" />
<glyph unicode="&#xe0;" horiz-adv-x="1071" d="M-121 18l4 19q14 61 45 100v6l37 64l-2 8q68 139 164 344q12 16 68 137q4 0 67 121q0 8 88 174q-4 0 -4 4q10 8 60 115q131 285 163 285q3 0 11 4q59 0 57 -101q35 -209 37 -372l51 -414l33 -127h-4q14 -51 16 -86l27 -82l-4 -6q10 -18 26 -123q4 0 8 -18q0 -2 -4 -2 l4 -9l-4 -22l-4 -6q4 0 2 -4q-18 -23 -59 -27q-6 0 -6 6l-8 -2h-3q-35 23 -28 59q-4 0 -4 5q0 2 4 2q-8 23 -53 245q-33 145 -46 250h-40q-10 0 -11 -4l-18 4h-45q-8 0 -15 -4q-6 4 -14 4h-31q-12 0 -18 -4l-23 4h-38q-10 0 -17 -4q-14 4 -12 8l-8 -4q-4 0 -4 4l-9 -4 q-4 0 -2 4l-8 -4h-14q-4 0 -4 4l-8 -4q-47 8 -50 8q-2 -10 -63 -124l-125 -271q-43 -90 -55 -96l4 -8q-12 -14 -15 -23q4 -6 2 -10q-12 -16 -51 -37h-12q-6 0 -14 2q-6 -2 -11 -2zM272 655h4q4 0 5 4l24 -4q16 0 23 4q25 -4 41 -4h102l18 4v-4l9 4h49q4 0 6 3q35 -2 35 -7 q6 4 12 4q2 25 -6 97h4q-25 113 -31 239q-4 0 -4 4h4q-6 100 -20 179v6h-6q-51 -106 -103 -203v-8q-72 -133 -166 -318zM334 1706v4q4 31 51 64q2 4 6 4h27q70 -88 203 -207q12 -29 10 -35q-4 -37 -60 -47q2 4 -2 4q-2 -8 -8 -8h-6q-23 0 -33 26q-8 0 -88 78 q-74 55 -100 117z" />
<glyph unicode="&#xe1;" horiz-adv-x="1050" d="M-121 18l4 19q14 61 45 100v6l37 64l-2 8q68 139 164 344q12 16 68 137q4 0 67 121q0 8 88 174q-4 0 -4 4q10 8 60 115q131 285 163 285q3 0 11 4q59 0 57 -101q35 -209 37 -372l51 -414l33 -127h-4q14 -51 16 -86l27 -82l-4 -6q10 -18 26 -123q4 0 8 -18q0 -2 -4 -2 l4 -9l-4 -22l-4 -6q4 0 2 -4q-18 -23 -59 -27q-6 0 -6 6l-8 -2h-3q-35 23 -28 59q-4 0 -4 5q0 2 4 2q-8 23 -53 245q-33 145 -46 250h-40q-10 0 -11 -4l-18 4h-45q-8 0 -15 -4q-6 4 -14 4h-31q-12 0 -18 -4l-23 4h-38q-10 0 -17 -4q-14 4 -12 8l-8 -4q-4 0 -4 4l-9 -4 q-4 0 -2 4l-8 -4h-14q-4 0 -4 4l-8 -4q-47 8 -50 8q-2 -10 -63 -124l-125 -271q-43 -90 -55 -96l4 -8q-12 -14 -15 -23q4 -6 2 -10q-12 -16 -51 -37h-12q-6 0 -14 2q-6 -2 -11 -2zM272 655h4q4 0 5 4l24 -4q16 0 23 4q25 -4 41 -4h102l18 4v-4l9 4h49q4 0 6 3q35 -2 35 -7 q6 4 12 4q2 25 -6 97h4q-25 113 -31 239q-4 0 -4 4h4q-6 100 -20 179v6h-6q-51 -106 -103 -203v-8q-72 -133 -166 -318zM608 1536q2 6 21 35q166 119 262 207h27q4 0 2 -4q39 -33 34 -64v-4q-43 -61 -133 -117q-104 -78 -112 -78q-14 -27 -37 -26h-6q-8 0 -7 8q-4 0 -6 -4 q-49 10 -45 47z" />
<glyph unicode="&#xe2;" horiz-adv-x="1058" d="M-121 18l4 19q16 61 45 100v6l37 64l-2 8q68 139 164 344q14 16 68 137q4 0 67 121q4 8 88 174q-4 0 -4 4q12 8 60 115q131 285 163 285q3 0 15 4q57 0 55 -101q33 -209 35 -372l53 -414l31 -127h-4q14 -51 18 -86l25 -82l-4 -6q10 -18 26 -123q4 0 8 -18q0 -2 -4 -2 l4 -9l-2 -22l-6 -6q4 0 4 -4q-20 -23 -59 -27q-8 0 -6 6l-8 -2h-5q-33 23 -28 59q-4 0 -4 5q0 2 4 2q-8 23 -49 245q-35 145 -47 250h-41q-12 0 -13 -4l-16 4h-45q-8 0 -14 -4q-8 4 -17 4h-29q-12 0 -18 -4l-22 4h-41q-8 0 -15 -4q-14 4 -14 8l-8 -4q-4 0 -2 4l-9 -4 q-4 0 -4 4l-8 -4h-14q-4 0 -2 4l-8 -4q-49 8 -52 8q-2 -10 -61 -124l-127 -271q-43 -90 -53 -96l2 -8q-10 -14 -13 -23q2 -6 3 -10q-12 -16 -54 -37h-10q-8 0 -14 2q-8 -2 -13 -2zM274 655h5q4 0 4 4l24 -4q18 0 25 4q25 -4 39 -4h104l19 4v-4l8 4h47q4 0 4 3q37 -2 37 -7 q6 4 14 4q0 25 -10 97h4q-25 113 -31 239q-4 0 0 4h4q-10 100 -24 179l2 6h-8q-49 -106 -103 -203l2 -8q-74 -133 -166 -318zM406 1501l2 15q39 55 98 174q10 0 39 59q27 14 45 14h4q4 0 2 -2l8 2q59 -39 121 -143q43 -70 41 -78t6 -18l-4 -27q-18 -20 -39 -29q-2 0 -2 5 l-8 -5h-6q-4 0 -4 5l-9 -5q-4 0 -4 5l-6 -5q-10 0 -8 19l-10 -4q-33 88 -88 147q-14 -14 -70 -133q-18 -31 -43 -47l-6 2l-12 -6q-55 6 -47 55z" />
<glyph unicode="&#xe3;" horiz-adv-x="1064" d="M-121 18l4 19q16 61 49 100l-4 6l37 64l-2 8q70 139 164 344q14 16 68 137q6 0 67 121q4 8 88 174q-4 0 -2 4q10 8 62 115q131 285 161 285q5 0 13 4q57 0 55 -101q33 -209 37 -372l51 -414l31 -127h-4q14 -51 18 -86l27 -82l-6 -6q12 -18 26 -123q4 0 10 -18q0 -2 -4 -2 l2 -9l-2 -22l-6 -6q4 0 4 -4q-20 -23 -59 -27q-6 0 -6 6l-8 -2h-5q-33 23 -28 59q-4 0 -2 5q0 2 4 2q-8 23 -51 245q-35 145 -47 250h-41q-10 0 -13 -4l-16 4h-45q-8 0 -14 -4q-6 4 -15 4h-31q-12 0 -18 -4l-22 4h-39q-10 0 -17 -4q-14 4 -12 8l-8 -4q-4 0 -4 4l-9 -4 q-4 0 -2 4l-8 -4h-14q-4 0 -4 4l-8 -4q-49 8 -52 8q-2 -10 -61 -124l-127 -271q-43 -90 -51 -96v-8q-10 -14 -13 -23q2 -6 3 -10q-12 -16 -54 -37h-10q-8 0 -14 2q-8 -2 -13 -2zM274 655h5q4 0 4 4l24 -4q18 0 25 4q25 -4 39 -4h104l19 4v-4l8 4h47q4 0 6 3q35 -2 35 -7 q6 4 14 4q0 25 -8 97h2q-25 113 -27 239q-4 0 -4 4h4q-10 100 -22 179v6h-8q-49 -106 -103 -203l2 -8q-74 -133 -166 -318zM330 1538h4l-4 8l6 39q8 14 20 57q53 76 103 99q29 16 43 16q4 0 4 -4l6 4h18q76 0 193 -168q35 -20 45 -20h10q47 23 49 30q10 23 17 23v6v4 q0 4 4 4q-2 8 0 45q4 0 4 5q-8 0 -6 8h2l-2 6v4l47 49q6 4 10 4q45 -6 41 -24q4 -8 4 -11l-6 -12q6 0 10 -10v-2q-2 -10 -12 -23l4 -18q-16 -111 -133 -178v4q-33 -18 -47 -19q-8 4 -16 4q-6 -4 -11 -4v4l-8 -4q-94 45 -106 82q-8 0 -68 90q-29 27 -74 27q-63 -39 -75 -113 q2 -14 0 -32q-2 0 -25 -23h-33l-6 4q0 -4 -4 -4q0 4 -4 4l4 8q-10 16 -8 31z" />
<glyph unicode="&#xe4;" horiz-adv-x="1024" d="M-109 18v19q16 61 50 100l-2 6l34 64v8q68 139 164 344q12 16 66 137q6 0 71 121q0 8 86 174q-4 0 -4 4q12 8 62 115q131 285 162 285q4 0 12 4q59 0 55 -101q33 -209 35 -372l55 -414l31 -127h-4q12 -51 16 -86l27 -82l-4 -6q10 -18 26 -123q2 0 9 -18q0 -2 -4 -2l2 -9 l-2 -22l-5 -6q4 0 2 -4q-20 -23 -59 -27q-6 0 -6 6l-8 -2h-2q-35 23 -31 59q-2 0 -2 5q0 2 2 2q-6 23 -49 245q-37 145 -45 250h-41q-12 0 -12 -4l-19 4h-45q-6 0 -14 -4q-6 4 -15 4h-28q-12 0 -21 -4l-20 4h-41q-8 0 -17 -4q-14 4 -14 8l-6 -4q-4 0 -4 4l-6 -4q-4 0 -4 4 l-9 -4h-14q-4 0 -4 4l-6 -4q-51 8 -53 8q0 -10 -62 -124l-127 -271q-43 -90 -51 -96l2 -8q-12 -14 -12 -23v-10q-12 -16 -51 -37h-13q-8 0 -14 2q-6 -2 -10 -2zM283 655h4q4 0 6 4l22 -4q18 0 25 4q25 -4 39 -4h104l19 4v-4l8 4h47q4 0 4 3q37 -2 37 -7q6 4 14 4 q0 25 -10 97h4q-25 113 -26 239q-4 0 -5 4h5q-10 100 -25 179l2 6h-6q-51 -106 -105 -203l3 -8q-72 -133 -166 -318zM377 1550l4 6q-2 6 0 17q55 57 92 57h14q55 -16 54 -47q8 0 2 -33h-4l4 -8q-4 -31 -76 -59h-14q-41 0 -74 53q0 6 -2 14zM682 1552q-4 1 0 17q4 41 72 61 h28q31 -16 52 -59l-9 -19l-2 -24q-37 -49 -73 -49q-76 10 -68 73z" />
<glyph unicode="&#xe5;" horiz-adv-x="1077" d="M-121 18l4 19q16 61 49 100l-4 6l37 64l-2 8q70 139 164 344q14 16 68 137q6 0 67 121q4 8 88 174q-4 0 -2 4q10 8 62 115q131 285 161 285q5 0 13 4q57 0 55 -101q33 -209 37 -372l51 -414l31 -127h-4q14 -51 18 -86l27 -82l-6 -6q12 -18 26 -123q4 0 10 -18q0 -2 -4 -2 l2 -9l-2 -22l-6 -6q4 0 4 -4q-20 -23 -59 -27q-6 0 -6 6l-8 -2h-5q-33 23 -28 59q-4 0 -2 5q0 2 4 2q-8 23 -51 245q-35 145 -47 250h-41q-10 0 -13 -4l-16 4h-45q-8 0 -14 -4q-6 4 -15 4h-31q-12 0 -18 -4l-22 4h-39q-10 0 -17 -4q-14 4 -12 8l-8 -4q-4 0 -4 4l-9 -4 q-4 0 -2 4l-8 -4h-14q-4 0 -4 4l-8 -4q-49 8 -52 8q-2 -10 -61 -124l-127 -271q-43 -90 -51 -96v-8q-10 -14 -13 -23q2 -6 3 -10q-12 -16 -54 -37h-10q-8 0 -14 2q-8 -2 -13 -2zM274 655h5q4 0 4 4l24 -4q18 0 25 4q25 -4 39 -4h104l19 4v-4l8 4h47q4 0 6 3q35 -2 35 -7 q6 4 14 4q0 25 -8 97h2q-25 113 -27 239q-4 0 -4 4h4q-10 100 -22 179v6h-8q-49 -106 -103 -203l2 -8q-74 -133 -166 -318zM455 1587l2 15q25 61 43 71q82 78 143 78q0 6 2 6q53 0 96 -94q-2 -14 0 -37q-14 -92 -92 -156q-14 -8 -24 -8l-15 4l-8 -4q-4 0 -4 4l-16 -4h-11 l-8 4q0 -8 -8 -8h-6q-109 41 -94 129zM549 1583q29 -29 41 -29q37 0 53 72q2 23 -12 35q-11 0 -29 -14q2 6 -2 6q-45 -51 -49 -51z" />
<glyph unicode="&#xe6;" horiz-adv-x="1351" d="M-88 35v14q102 197 258 526q10 12 149 291q231 403 259 441l-5 8q14 29 48 41q18 18 63 18h4q6 -2 4 -8l39 8l6 -4l11 4q4 -4 8 -4l10 4q2 0 0 -4q51 8 143 8h45q4 0 4 -4l9 4q2 0 2 -4l8 4h37q10 0 10 2l18 -2h45l23 2q37 -2 37 -6l6 4h39q47 -20 45 -37l-2 -18l-55 -45 l-19 2l-18 -2q-35 2 -35 6l-8 -4h-60q-8 0 -14 4q-6 -4 -14 -4q-4 0 -4 4l-9 -4q-4 0 -4 4l-18 -4h-66l-20 -2l2 2l-8 -2h-31q-66 0 -129 -8l-8 4q-6 -4 -10 -4q-2 -106 -15 -185l4 -8l-4 -8q-2 -14 0 -20q-10 -49 -14 -78l-16 -115q-2 -14 0 -31q-4 -14 -9 -28l-4 -29 q-2 -16 0 -31q-6 -14 -8 -28l-4 -41q-2 -8 2 -17q-6 -6 -6 -12q12 -8 29 -8h8q8 0 14 4l6 -4q8 4 17 4v-4l8 4q8 0 12 -4l8 4l19 -4l26 4l15 -4l22 4q2 0 14 -4q6 4 17 4v-4l6 4q2 0 23 -4l8 4q6 -4 14 -4q18 0 19 8l18 -4q20 0 25 4q20 -4 34 -4h29l8 -4q0 4 2 4 q33 -25 31 -45v-8q-33 -43 -84 -43h-31q-8 0 -14 -4q-37 4 -37 6l-6 -2h-8q-4 0 -4 2l-9 -2h-18q-6 0 -14 2q-6 -2 -15 -2h-4q-4 0 -4 2l-6 -2h-68q-8 0 -16 -4q-4 4 -12 4h-27l-39 -4l2 4q-31 -6 -30 -17l-5 -10v-37l-8 -22q0 -4 4 -4l-6 -19l-6 -37q0 -8 4 -14 q-6 -6 -6 -14v-5q0 -8 4 -8l-2 -8q-2 -6 -2 -14q-2 -6 -2 -11l6 -4q-2 -8 -6 -8l-4 -88q-4 -12 -8 -33l4 -8l-6 -8q2 -6 2 -10l-4 -6q4 -16 0 -41l-5 -9l80 -14l9 4l14 -4q4 0 10 4q20 -4 35 -4h12q12 0 15 4l16 -4h51q8 0 17 4l6 -4q8 4 16 4q4 0 2 -4l8 4h33l21 2v-2l6 2 h4q70 0 123 13l4 -9l8 4h20q37 -31 37 -45q-31 -43 -49 -43q0 -8 -22 -8q-63 0 -172 -14q-8 4 -13 4q-4 0 -28 -4q-4 0 -4 4l-25 -4h-100q-10 0 -17 -4q-6 4 -14 4h-6l-21 -4v4q-4 0 -4 -4l-135 14l-8 -4q-39 20 -37 35q-4 0 -4 4l2 14q4 27 0 41q4 43 18 43l2 21 q12 72 9 96q0 2 4 2l2 37l8 72v24h4l-4 8l4 11q0 4 4 4l-4 8l2 10q0 4 4 4l-4 6l6 35q2 14 4 39q2 8 4 12q-8 6 -32 13l-9 -4h-10q-14 0 -33 4q-8 -4 -12 -4l-6 4q-8 -4 -16 -4q-4 0 -2 4q-168 -10 -168 -21q-4 -14 -80 -162q-4 0 -31 -55l-129 -270q-4 -4 -23 -33 q-14 0 -14 -4q-59 0 -51 41zM297 627h2q41 0 123 8l6 -4q27 4 41 4h55q4 0 4 -4q8 4 13 4v6q0 8 -2 14q4 6 6 17q0 10 -4 10l8 27l12 88v26h4l-2 6l2 19q0 4 4 4l-2 8v6q6 39 17 82v27l6 18q0 2 -4 2l8 27l4 27q2 18 2 55h4l-2 6l2 23q4 16 2 41q6 6 6 16l-6 4 q-59 -113 -200 -356q-106 -205 -109 -211z" />
<glyph unicode="&#xe7;" horiz-adv-x="905" />
<glyph unicode="&#xe8;" horiz-adv-x="956" d="M-96 45l6 12q-2 6 -2 11h2q0 4 -2 4l6 24l25 164q0 8 4 14q-4 18 -2 33h2v41q4 6 6 19v22l6 19v22q0 4 4 4l-2 43l6 17l-2 20h4l-2 8v4q8 66 12 133h5l-3 9q0 4 5 4l-5 6l7 37q0 4 4 4l-2 6q0 4 4 4q-6 16 -6 23l6 8q-4 6 -2 14t6 8q-2 51 0 70q6 6 6 10q-2 12 -6 12 l6 25l6 57q0 8 -2 15q4 6 4 14q2 8 2 14q0 4 2 5q0 29 -2 36l8 23q0 8 -2 14q4 6 7 17v10v14q4 6 4 15q4 16 4 41l6 20q-4 6 -2 10h4q0 2 -4 2q8 45 12 45q0 4 -4 4l6 25l4 25q2 6 -6 6l6 18v14q31 45 39 46l43 14q31 -14 31 -19l27 5q125 4 145 4v-4l6 4q4 0 4 -4l6 4l8 -4 q8 4 13 4v-4q2 0 2 4q8 0 8 -4l23 4q88 -4 139 -4h18l23 4q14 -8 41 -9h51l18 5v-5q8 4 13 5l6 -5q8 4 14 5l8 -5l9 5l6 -5l22 5q37 -12 33 -37q10 0 10 -9q-14 -8 -28 -38q-10 0 -11 -9h-26l-9 -4l-2 8l-8 -4h-37q-4 0 -4 4l-8 -4l-16 4l-8 -4l-9 4l-20 -4q-4 0 -4 4 l-21 -8q-31 4 -106 8l-6 -4q-4 0 -4 4l-19 -4q-4 0 -12 4q-2 0 -2 -4l-90 9q-45 -4 -88 -5q-4 0 -13 -4q-6 4 -14 4q-2 0 -2 -4l-21 4h-6q-10 0 -14 -4l-8 4q-8 0 -27 -8q-6 4 -14 4h-4q-6 0 -17 -36l2 -9q0 -4 -4 -4q0 -4 4 -4l-8 -16l-4 -33l-4 -25q-4 -2 0 -2l-4 -18 l-2 -12q-2 -8 2 -15l-4 -8v-14q0 -4 -4 -4l2 -6l-6 -37q0 -12 4 -21l-9 -12q-8 -100 -18 -160v-8q-2 -8 0 -14q-2 -6 -4 -15q-2 -23 4 -22l-6 -19l-8 -53h82q8 0 14 -4q14 8 41 8h22q4 0 5 -4l8 4h37q2 0 2 -4q23 8 98 8h14q8 0 17 4l18 -8l25 4q4 0 2 -4l20 4h2q20 0 33 -4 q51 4 61 8q6 -4 15 -4l18 4q27 -14 35 -41v-4q0 -4 -16 -10l4 -8q-2 -8 -33 -27q-2 0 -6 4q-41 -2 -41 -6l-19 2h-12q-14 0 -41 -2q-6 2 -10 2q-6 -2 -18 -2v2l-9 -2h-20q-4 0 -4 2q-6 -2 -45 -6l-6 4l-21 -4q-4 0 -10 4q-90 -10 -156 -10q-10 0 -14 -4l-8 4q-8 -4 -13 -4v4 l-6 -4q-4 0 -4 4q-53 -8 -72 -8v-4q-12 -119 -2 -119v-4h-8l-12 -88v-27h-4l4 -6l-4 -31v-18h-4l4 -6q0 -4 -4 -4v-19v-4q0 -4 -4 -4l4 -6q-2 -4 -6 -4l4 -8l-2 -15q-4 -16 -2 -41q-6 -8 -7 -10v-18l-4 -9q0 -4 4 -12q-8 -18 -8 -33l-4 -10q0 -8 2 -14q-4 -8 -6 -17v-6 q0 -8 6 -8l8 4l9 -4q6 4 10 4v-4l8 4q2 0 2 -4l8 4q12 0 13 -4q39 8 84 8q49 0 77 -8q27 4 41 4h37q8 0 15 -4l8 4q8 0 41 -4l32 4l9 -4q4 0 4 4q37 -4 35 -6q20 6 63 6v-4l8 4h41q2 0 2 -4l8 4h23q4 0 4 -4l6 4q8 -4 12 -4t5 4l16 -4h8q14 0 35 4q12 0 31 -31 q-2 -25 -23 -32q-4 -27 -33 -27l-8 4l-18 -6q-25 2 -41 2h-33q-4 0 -2 4l-8 -4q-23 0 -51 4q-68 -4 -109 -4q-4 0 -10 -2q-37 2 -37 6l-27 -4h-127q-4 0 -2 4l-8 -4h-67q-18 0 -56 -2v2q-18 -6 -26 -6l2 4l-11 -4h-2q-10 0 -14 4q-6 -4 -37 -8v4l-8 -4q-23 4 -53 55z M254 1706v4q4 31 53 64q0 4 4 4h27q72 -88 203 -207q12 -29 12 -35q-6 -37 -59 -47q0 4 -5 4q0 -8 -8 -8h-6q-23 0 -33 26q-8 0 -88 78q-74 55 -100 117z" />
<glyph unicode="&#xe9;" horiz-adv-x="948" d="M-96 45l6 12q-2 6 -2 11h2q0 4 -2 4l6 24l25 164q0 8 4 14q-4 18 -2 33h2v41q4 6 6 19v22l6 19v22q0 4 4 4l-2 43l6 17l-2 20h4l-2 8v4q8 66 12 133h5l-3 9q0 4 5 4l-5 6l7 37q0 4 4 4l-2 6q0 4 4 4q-6 16 -6 23l6 8q-4 6 -2 14t6 8q-2 51 0 70q6 6 6 10q-2 12 -6 12 l6 25l6 57q0 8 -2 15q4 6 4 14q2 8 2 14q0 4 2 5q0 29 -2 36l8 23q0 8 -2 14q4 6 7 17v10v14q4 6 4 15q4 16 4 41l6 20q-4 6 -2 10h4q0 2 -4 2q8 45 12 45q0 4 -4 4l6 25l4 25q2 6 -6 6l6 18v14q31 45 39 46l43 14q31 -14 31 -19l27 5q125 4 145 4v-4l6 4q4 0 4 -4l6 4l8 -4 q8 4 13 4v-4q2 0 2 4q8 0 8 -4l23 4q88 -4 139 -4h18l23 4q14 -8 41 -9h51l18 5v-5q8 4 13 5l6 -5q8 4 14 5l8 -5l9 5l6 -5l22 5q37 -12 33 -37q10 0 10 -9q-14 -8 -28 -38q-10 0 -11 -9h-26l-9 -4l-2 8l-8 -4h-37q-4 0 -4 4l-8 -4l-16 4l-8 -4l-9 4l-20 -4q-4 0 -4 4 l-21 -8q-31 4 -106 8l-6 -4q-4 0 -4 4l-19 -4q-4 0 -12 4q-2 0 -2 -4l-90 9q-45 -4 -88 -5q-4 0 -13 -4q-6 4 -14 4q-2 0 -2 -4l-21 4h-6q-10 0 -14 -4l-8 4q-8 0 -27 -8q-6 4 -14 4h-4q-6 0 -17 -36l2 -9q0 -4 -4 -4q0 -4 4 -4l-8 -16l-4 -33l-4 -25q-4 -2 0 -2l-4 -18 l-2 -12q-2 -8 2 -15l-4 -8v-14q0 -4 -4 -4l2 -6l-6 -37q0 -12 4 -21l-9 -12q-8 -100 -18 -160v-8q-2 -8 0 -14q-2 -6 -4 -15q-2 -23 4 -22l-6 -19l-8 -53h82q8 0 14 -4q14 8 41 8h22q4 0 5 -4l8 4h37q2 0 2 -4q23 8 98 8h14q8 0 17 4l18 -8l25 4q4 0 2 -4l20 4h2q20 0 33 -4 q51 4 61 8q6 -4 15 -4l18 4q27 -14 35 -41v-4q0 -4 -16 -10l4 -8q-2 -8 -33 -27q-2 0 -6 4q-41 -2 -41 -6l-19 2h-12q-14 0 -41 -2q-6 2 -10 2q-6 -2 -18 -2v2l-9 -2h-20q-4 0 -4 2q-6 -2 -45 -6l-6 4l-21 -4q-4 0 -10 4q-90 -10 -156 -10q-10 0 -14 -4l-8 4q-8 -4 -13 -4v4 l-6 -4q-4 0 -4 4q-53 -8 -72 -8v-4q-12 -119 -2 -119v-4h-8l-12 -88v-27h-4l4 -6l-4 -31v-18h-4l4 -6q0 -4 -4 -4v-19v-4q0 -4 -4 -4l4 -6q-2 -4 -6 -4l4 -8l-2 -15q-4 -16 -2 -41q-6 -8 -7 -10v-18l-4 -9q0 -4 4 -12q-8 -18 -8 -33l-4 -10q0 -8 2 -14q-4 -8 -6 -17v-6 q0 -8 6 -8l8 4l9 -4q6 4 10 4v-4l8 4q2 0 2 -4l8 4q12 0 13 -4q39 8 84 8q49 0 77 -8q27 4 41 4h37q8 0 15 -4l8 4q8 0 41 -4l32 4l9 -4q4 0 4 4q37 -4 35 -6q20 6 63 6v-4l8 4h41q2 0 2 -4l8 4h23q4 0 4 -4l6 4q8 -4 12 -4t5 4l16 -4h8q14 0 35 4q12 0 31 -31 q-2 -25 -23 -32q-4 -27 -33 -27l-8 4l-18 -6q-25 2 -41 2h-33q-4 0 -2 4l-8 -4q-23 0 -51 4q-68 -4 -109 -4q-4 0 -10 -2q-37 2 -37 6l-27 -4h-127q-4 0 -2 4l-8 -4h-67q-18 0 -56 -2v2q-18 -6 -26 -6l2 4l-11 -4h-2q-10 0 -14 4q-6 -4 -37 -8v4l-8 -4q-23 4 -53 55z M451 1536q0 6 18 35q168 119 262 207h27q4 0 4 -4q39 -33 35 -64v-4q-45 -61 -135 -117q-106 -78 -113 -78q-14 -27 -37 -26h-6q-6 0 -6 8q-4 0 -4 -4q-51 10 -45 47z" />
<glyph unicode="&#xea;" horiz-adv-x="929" d="M-94 45q4 8 4 12q-2 6 -2 11h4q0 4 -4 4l6 24l25 164q0 8 6 14q-6 18 -2 33h4l-4 41q6 6 8 19l-2 22l6 19v22q2 4 4 4v43l4 17v20h4l-4 8v4q10 66 14 133h5l-5 9q0 4 5 4l-2 6l4 37q2 4 6 4l-4 6q0 4 4 4q-6 16 -4 23l4 8q-2 6 -2 14q2 8 6 8q0 51 2 70q4 6 4 10 q-2 12 -6 12l6 25l6 57q2 8 0 15q2 6 4 14t0 14q0 4 4 5q0 29 -4 36l8 23q0 8 -2 14q6 6 7 17v10q4 8 0 14q4 6 6 15q2 16 2 41l6 20q-2 6 -2 10h4q0 2 -4 2q10 45 12 45q2 4 -2 4l8 25l2 25q0 6 -6 6l6 18l-2 14q31 45 39 46l45 14q29 -14 29 -19l27 5q125 4 145 4v-4l6 4 q4 0 4 -4l8 4l6 -4q8 4 13 4v-4q2 0 4 4q6 0 6 -4l23 4q88 -4 139 -4h18l25 4q12 -8 39 -9h53l16 5v-5q8 4 13 5l8 -5q6 4 12 5l8 -5l9 5l8 -5l20 5q37 -12 35 -37q10 0 8 -9q-12 -8 -26 -38q-12 0 -13 -9h-26l-9 -4l-2 8l-8 -4h-37q-4 0 -2 4l-10 -4l-16 4l-8 -4l-7 4 l-22 -4q-4 0 -4 4l-21 -8q-31 4 -104 8l-8 -4q-4 0 -4 4l-19 -4q-4 0 -10 4q-4 0 -4 -4l-88 9q-45 -4 -90 -5q-4 0 -13 -4q-4 4 -12 4q-4 0 -4 -4l-19 4h-8q-8 0 -14 -4l-8 4q-6 0 -27 -8q-6 4 -14 4h-4q-6 0 -17 -36l4 -9q-2 -4 -6 -4q0 -4 4 -4l-6 -16l-4 -33l-6 -25 q0 -2 2 -2l-6 -18l-2 -12q0 -8 2 -15l-4 -8q4 -6 0 -14q0 -4 -4 -4l4 -6l-4 -37q-4 -12 0 -21l-6 -12q-10 -100 -19 -160l-2 -8q0 -8 2 -14q-4 -6 -4 -15q-2 -23 2 -22l-6 -19l-6 -53h82q8 0 12 -4q16 8 43 8h23q4 0 2 -4l10 4h37q2 0 2 -4q23 8 96 8h14q10 0 17 4l20 -8 l23 4q4 0 4 -4l18 4h4q20 0 33 -4q51 4 62 8q4 -4 14 -4l18 4q25 -14 33 -41v-4q0 -4 -14 -10l2 -8q-2 -8 -29 -27q-4 0 -10 4q-37 -2 -37 -6l-20 2h-11q-14 0 -41 -2q-8 2 -12 2q-4 -2 -16 -2v2l-9 -2h-22q-2 0 -2 2q-8 -2 -49 -6l-4 4l-23 -4q-4 0 -6 4q-92 -10 -160 -10 q-8 0 -14 -4l-6 4q-10 -4 -15 -4l2 4l-8 -4q-4 0 -4 4q-51 -8 -69 -8v-4q-12 -119 -3 -119l-2 -4h-8l-12 -88l2 -27h-4l2 -6l-4 -31l2 -18h-4l2 -6q0 -4 -4 -4l2 -19l-2 -4q0 -4 -4 -4l4 -6q0 -4 -4 -4l2 -8l-2 -15q-2 -16 -2 -41q-4 -8 -7 -10l5 -18l-9 -9q0 -4 4 -12 q-8 -18 -8 -33l-4 -10q0 -8 4 -14q-6 -8 -6 -17l-2 -6q0 -8 6 -8l10 4l7 -4q8 4 12 4l-2 -4l8 4q4 0 2 -4l10 4q10 0 11 -4q41 8 86 8q47 0 75 -8q27 4 41 4h37q10 0 15 -4l8 4q8 0 41 -4l32 4l9 -4q4 0 4 4q37 -4 37 -6q20 6 61 6v-4l8 4h41q4 0 2 -4l10 4h23q2 0 2 -4l8 4 q6 -4 10 -4t5 4l16 -4h8q14 0 35 4q12 0 33 -31q-4 -25 -25 -32q-4 -27 -33 -27l-8 4l-16 -6q-27 2 -41 2h-35q-2 0 -2 4l-8 -4q-20 0 -51 4q-68 -4 -109 -4q-4 0 -10 -2q-37 2 -37 6l-27 -4h-125q-4 0 -4 4l-8 -4h-65q-18 0 -56 -2v2q-20 -6 -26 -6v4l-9 -4h-4q-8 0 -14 4 q-6 -4 -35 -8v4l-8 -4q-23 4 -53 55zM295 1501l4 15q37 55 98 174q10 0 37 59q27 14 45 14h4q4 0 4 -2l9 2q59 -39 118 -143q43 -70 43 -78q-2 -8 5 -18l-5 -27q-18 -20 -36 -29q-4 0 -3 5l-10 -5h-6q-4 0 -4 5l-6 -5q-4 0 -4 5l-8 -5q-10 0 -9 19l-8 -4q-35 88 -90 147 q-14 -14 -67 -133q-20 -31 -41 -47l-9 2l-14 -6q-51 6 -47 55z" />
<glyph unicode="&#xeb;" horiz-adv-x="954" d="M-86 45q4 8 4 12q-2 6 0 11h4q0 4 -4 4l6 24l23 164q2 8 8 14q-6 18 -2 33h2l-2 41q6 6 6 19v22l4 19v22q2 4 6 4l-2 43l6 17l-2 20h4l-4 8l4 4q8 66 11 133h4l-4 9q2 4 6 4l-4 6l6 37q0 4 2 4v6q0 4 2 4q-4 16 -4 23l6 8q-2 6 -2 14l2 8v70q6 6 6 10q-2 12 -4 12l6 25 l8 57q0 8 -2 15q4 6 6 14t-2 14q0 4 5 5v36l6 23q0 8 -2 14q4 6 4 17l4 10q0 8 -4 14q6 6 8 15v41l6 20q-2 6 -2 10h4q0 2 -4 2q10 45 14 45q0 4 -4 4l8 25l5 25q0 6 -9 6l9 18l-3 14q31 45 39 46l43 14q31 -14 31 -19l27 5q125 4 145 4v-4l6 4q4 0 4 -4l9 4l6 -4q8 4 12 4 v-4q2 0 2 4q8 0 8 -4l23 4q90 -4 139 -4h21l20 4q16 -8 41 -9h53l19 5v-5q6 4 10 5l8 -5q6 4 14 5l9 -5l6 5l8 -5l22 5q33 -12 31 -37q10 0 10 -9q-14 -8 -26 -38q-12 0 -15 -9h-24l-8 -4l-2 8l-11 -4h-36q-2 0 -2 4l-9 -4l-16 4l-10 -4l-6 4l-23 -4q-4 0 -2 4l-21 -8 q-31 4 -106 8l-8 -4q-4 0 -2 4l-21 -4q-4 0 -10 4q-2 0 -4 -4l-86 9q-47 -4 -90 -5q-4 0 -12 -4q-6 4 -15 4q-4 0 -4 -4l-18 4h-6q-10 0 -17 -4l-6 4q-8 0 -27 -8q-8 4 -16 4h-2q-8 0 -16 -36l2 -9q0 -4 -4 -4q0 -4 4 -4l-7 -16l-6 -33l-6 -25q0 -2 4 -2l-8 -18l-2 -12 q0 -8 2 -15l-4 -8q4 -6 2 -14q-2 -4 -6 -4l4 -6l-4 -37v-21l-4 -12q-12 -100 -21 -160v-8q-2 -8 0 -14q-4 -6 -4 -15q-2 -23 4 -22l-6 -19l-8 -53h82q8 0 14 -4q16 8 41 8h23q4 0 4 -4l8 4h37q4 0 2 -4q23 8 96 8h17q8 0 14 4l22 -8l23 4q2 0 2 -4l20 4h3q20 0 34 -4 q49 4 60 8q6 -4 14 -4l18 4q27 -14 37 -41v-4q-4 -4 -18 -10l2 -8q0 -8 -29 -27q-4 0 -10 4q-37 -2 -39 -6l-16 2h-13q-14 0 -40 -2q-6 2 -11 2q-8 -2 -18 -2v2l-8 -2h-23q-4 0 -2 2q-8 -2 -47 -6l-6 4l-19 -4q-4 0 -12 4q-90 -10 -158 -10q-8 0 -14 -4l-6 4q-8 -4 -12 -4v4 l-9 -4q-4 0 -4 4q-51 -8 -69 -8v-4q-12 -119 -2 -119v-4h-9l-12 -88v-27h-4l4 -6l-4 -31v-18h-4l4 -6q-2 -4 -4 -4v-19v-4q0 -4 -2 -4v-6q0 -4 -4 -4l4 -8l-2 -15q-2 -16 -2 -41q-6 -8 -6 -10l2 -18l-4 -9v-12q-6 -18 -9 -33v-10q-4 -8 0 -14q-4 -8 -6 -17v-6q0 -8 6 -8l9 4 l6 -4q8 4 10 4v-4l8 4q4 0 4 -4l9 4q10 0 10 -4q41 8 86 8q49 0 78 -8q25 4 39 4h36q10 0 17 -4l6 4q8 0 41 -4l33 4l8 -4q4 0 4 4q37 -4 37 -6q20 6 61 6v-4l8 4h41q4 0 4 -4l9 4h20q4 0 4 -4l8 4q6 -4 11 -4q4 0 4 4l18 -4h8q12 0 33 4q12 0 33 -31q-2 -25 -23 -32 q-4 -27 -32 -27l-9 4l-20 -6q-23 2 -39 2h-33q-4 0 -4 4l-8 -4q-20 0 -51 4q-66 -4 -107 -4q-4 0 -12 -2q-37 2 -37 6l-24 -4h-127q-4 0 -4 4l-7 -4h-67q-18 0 -56 -2v2q-20 -6 -26 -6v4l-8 -4h-2q-10 0 -17 4q-6 -4 -35 -8v4l-6 -4q-25 4 -55 55zM266 1550l6 6q-4 6 -2 17 q55 57 92 57h17q57 -16 51 -47q8 0 2 -33h-4l4 -8q-4 -31 -76 -59h-14q-41 0 -74 53q2 6 -2 14zM571 1552q-4 1 0 17q4 41 72 61h29q35 -16 53 -59l-8 -19l-2 -24q-39 -49 -76 -49q-76 10 -68 73z" />
<glyph unicode="&#xec;" horiz-adv-x="294" d="M-115 35l4 24q2 8 -2 15l4 6l11 108q2 4 6 5q0 39 12 108q4 -2 4 2q-8 0 -6 8l8 6q-4 8 -2 13l4 6q-4 6 -2 10l6 8q-4 6 -2 15h4l-2 6l15 69q2 14 0 27q6 14 10 31l4 20q0 8 -2 15l6 8q2 4 -2 4l6 16v19h4l-4 6q2 4 4 4l-2 6l4 23q2 4 7 4q-2 6 -2 10q16 135 20 162v18 l4 6q6 45 2 51q2 4 6 3q6 51 13 73l18 101v20q4 6 6 19v18h4l-4 6q4 4 8 4l-4 8l2 11q10 45 4 71q4 6 7 15v14h4q-6 14 -2 41l2 10q2 6 8 12q-2 10 2 56l6 6v22l41 17l23 -2q18 0 20 -78l-4 -25l4 -10v-4q-2 -8 -6 -14l2 -8q-2 -2 -4 -3l-15 -155l-4 -6v-23v-6q-2 -4 -4 -4 v-6l-6 -37q0 -4 -4 -4l2 -6l-4 -11q0 -4 -2 -4l2 -8l-6 -35q-20 -98 -35 -233h-2v-6l-2 -8q0 -4 -4 -5l2 -8l-4 -30l-4 -25h-2l2 -8q0 -4 -4 -4l2 -7q0 -4 -4 -4l2 -8l-41 -207l-4 -43h-5l2 -8l-10 -47q-2 -10 -2 -31l-4 -8q-14 -135 -18 -213q-4 -6 -4 -8l2 -8 q-12 -25 -33 -35l-29 2q-4 0 -4 4l-6 -4q-14 0 -27 35zM-84 1706v4q4 31 53 64q0 4 4 4h27q70 -88 201 -207q12 -29 10 -35q-4 -37 -57 -47q0 4 -4 4q-2 -8 -9 -8h-8q-20 0 -31 26q-8 0 -86 78q-72 55 -100 117z" />
<glyph unicode="&#xed;" horiz-adv-x="276" d="M-115 35l4 24q2 8 -2 15l4 6l11 108q2 4 6 5q0 39 12 108q4 -2 4 2q-8 0 -6 8l8 6q-4 8 -2 13l4 6q-4 6 -2 10l6 8q-4 6 -2 15h4l-2 6l15 69q2 14 0 27q6 14 10 31l4 20q0 8 -2 15l6 8q2 4 -2 4l6 16v19h4l-4 6q2 4 4 4l-2 6l4 23q2 4 7 4q-2 6 -2 10q16 135 20 162v18 l4 6q6 45 2 51q2 4 6 3q6 51 13 73l18 101v20q4 6 6 19v18h4l-4 6q4 4 8 4l-4 8l2 11q10 45 4 71q4 6 7 15v14h4q-6 14 -2 41l2 10q2 6 8 12q-2 10 2 56l6 6v22l41 17l23 -2q18 0 20 -78l-4 -25l4 -10v-4q-2 -8 -6 -14l2 -8q-2 -2 -4 -3l-15 -155l-4 -6v-23v-6q-2 -4 -4 -4 v-6l-6 -37q0 -4 -4 -4l2 -6l-4 -11q0 -4 -2 -4l2 -8l-6 -35q-20 -98 -35 -233h-2v-6l-2 -8q0 -4 -4 -5l2 -8l-4 -30l-4 -25h-2l2 -8q0 -4 -4 -4l2 -7q0 -4 -4 -4l2 -8l-41 -207l-4 -43h-5l2 -8l-10 -47q-2 -10 -2 -31l-4 -8q-14 -135 -18 -213q-4 -6 -4 -8l2 -8 q-12 -25 -33 -35l-29 2q-4 0 -4 4l-6 -4q-14 0 -27 35zM119 1536q2 6 18 35q168 119 264 207h25q4 0 4 -4q39 -33 37 -64l-2 -4q-43 -61 -133 -117q-106 -78 -113 -78q-14 -27 -37 -26h-8q-6 0 -4 8q-4 0 -4 -4q-51 10 -47 47z" />
<glyph unicode="&#xee;" horiz-adv-x="333" d="M-76 35l6 24q0 8 -2 15l6 6l9 108q2 4 4 5q2 39 14 108q4 -2 4 2q-8 0 -4 8l4 6q-2 8 -2 13l6 6q-4 6 -2 10l4 8q-2 6 2 15h2l-2 6l13 69q4 14 2 27q6 14 8 31l4 20q0 8 -2 15l6 8q0 4 -4 4l6 16v19h4l-2 6q0 4 2 4v6l4 23q2 4 4 4q-2 6 -2 10q20 135 27 162l-2 18l6 6 q2 45 0 51q2 4 4 3q8 51 15 73l16 101l2 20q4 6 6 19v18h2v6q0 4 4 4l-2 8l2 11q10 45 2 71q6 6 6 15l2 14h5q-6 14 -2 41l4 10q0 6 4 12q0 10 4 56l6 6v22l43 17l23 -2q18 0 18 -78l-4 -25l6 -10l-2 -4q-2 -8 -8 -14l4 -8q-2 -2 -4 -3l-15 -155l-4 -6v-23v-6q-2 -4 -6 -4 l4 -6l-8 -37q-2 -4 -4 -4l2 -6l-2 -11q-2 -4 -6 -4l4 -8l-6 -35q-20 -98 -35 -233h-4l4 -6l-4 -8q0 -4 -4 -5l2 -8l-6 -30l-2 -25h-2l2 -8q0 -4 -4 -4v-7q0 -4 -5 -4l5 -8l-41 -207l-5 -43h-4l2 -8l-10 -47q-2 -10 -2 -31l-6 -8q-14 -135 -18 -213q-4 -6 -5 -8l3 -8 q-14 -25 -33 -35l-29 2q-4 0 -2 4l-8 -4q-12 0 -27 35zM6 1501l4 15q35 55 96 174q10 0 37 59q27 14 47 14h5q2 0 2 -2l8 2q59 -39 119 -143q43 -70 43 -78q-2 -8 6 -18l-6 -27q-18 -20 -37 -29q-2 0 -2 5l-9 -5h-8q-4 0 -4 5l-6 -5q-4 0 -4 5l-6 -5q-10 0 -8 19l-11 -4 q-33 88 -90 147q-12 -14 -67 -133q-18 -31 -43 -47l-6 2l-13 -6q-53 6 -47 55z" />
<glyph unicode="&#xef;" horiz-adv-x="325" d="M-66 35l5 24q2 8 0 15l4 6l12 108q0 4 2 5q0 39 16 108q2 -2 2 2q-6 0 -6 8l6 6q-4 8 -2 13l4 6q-2 6 -2 10l5 8v15h4l-2 6l12 69q2 14 4 27q2 14 6 31l2 20q4 8 2 15l4 8q0 4 -4 4l8 16l-2 19h4v6q0 4 5 4l-3 6l5 23q0 4 4 4q-2 6 -2 10q18 135 24 162v18l4 6q4 45 4 51 q0 4 4 3q4 51 11 73l18 101v20q6 6 8 19v18h4l-2 6q0 4 4 4l-2 8l2 11q8 45 3 71q4 6 8 15l-2 14h4q-4 14 0 41l2 10q2 6 6 12q0 10 2 56l6 6v22l45 17l23 -2q16 0 16 -78l-4 -25l6 -10l-2 -4q0 -8 -6 -14v-8q0 -2 -2 -3l-10 -155l-8 -6l2 -23l-2 -6q-2 -4 -5 -4l2 -6 l-8 -37q0 -4 -4 -4l2 -6v-11q-2 -4 -6 -4l4 -8l-8 -35q-18 -98 -35 -233h-4l4 -6l-2 -8q0 -4 -4 -5v-8l-4 -30l-2 -25h-4l2 -8q0 -4 -4 -4l2 -7q0 -4 -4 -4l2 -8l-41 -207l-4 -43h-2v-8l-7 -47q-4 -10 -6 -31l-4 -8q-16 -135 -18 -213q-4 -6 -6 -8l2 -8q-12 -25 -31 -35 l-31 2q-2 0 -2 4l-8 -4q-12 0 -25 35zM-31 1550l4 6q-2 6 0 17q53 57 90 57h15q55 -16 51 -47q8 0 4 -33h-4l2 -8q-4 -31 -74 -59h-14q-39 0 -72 53q0 6 -2 14zM270 1569q6 41 72 61h31q31 -16 51 -59l-8 -19l-2 -24q-37 -49 -74 -49q-78 10 -68 73q-4 1 -2 17z" />
<glyph unicode="&#xf0;" horiz-adv-x="1024" d="M-195 664q8 47 54 55q10 0 26 14l9 -4q14 8 20 8v-8l8 4h12q4 0 5 -4l6 4q8 0 14 -4l8 4q8 0 37 -6l25 160q0 12 8 31l-4 8l6 6l-2 22h4q0 2 -4 2l8 37l4 25q0 4 4 4q2 2 -2 2l23 113q-2 14 0 24l6 15l-4 8q0 2 6 10q0 31 2 49l2 10q0 8 -6 9l6 18l2 6v37q8 49 43 49 q2 16 47 25l17 -4q4 0 4 4l24 -4h43q12 0 33 4l6 -4q8 4 17 4l-3 -4l9 4l14 -4l6 4l6 -4q4 0 6 4q55 -6 56 -11l8 5q2 0 2 -5q2 0 4 5q150 -18 252 -68q178 -125 215 -252q39 -139 29 -215q2 0 0 -6h-2q2 -57 -2 -96l-9 -58q-14 -90 -20 -90q0 -4 2 -4l-6 -24q0 -8 2 -15 q-74 -262 -129 -356q-82 -113 -213 -164q-158 -76 -252 -76v4q-18 -4 -18 -8l-19 4q-49 -8 -61 -8h-11l-10 8q-2 -8 -8 -8h-14q-8 0 -15 4q-4 0 -4 -4l-24 4h-35q-4 0 -4 4l-6 -4h-19q-6 0 -6 8l-8 -4h-6q-4 0 -4 4q-2 0 -5 -4q-55 4 -55 15l-6 -5q-25 0 -18 95q6 6 6 10 l-2 6l4 8v21h6l4 24l-2 19h2q2 14 -6 14l8 10l2 13q0 6 -6 6l4 8l2 10h-6v4h6q6 68 4 82h4q2 39 -6 39l4 6v4h-2v-6q-8 0 -8 6q6 0 12 13l2 2h-8v8h8l4 35h-10l2 12l8 -4h3l-3 6h5q-2 25 -7 25l2 8l3 8q0 2 -3 39q2 14 13 29q-8 0 -6 10l8 35v24l8 19q0 4 -4 4l4 12l-8 -2 h-19q-8 0 -14 2q-6 -2 -10 -2q-10 0 -31 2l-70 -6q-39 23 -38 29h-5zM31 63q0 -10 182 -20q82 6 88 6l4 -4q8 4 17 4q4 0 2 -4q49 0 233 82q109 68 145 156q35 100 41 100l-4 6l64 205l-4 6q2 16 20 96l-2 9l6 20q20 139 -26 317q-18 47 -60 95q-104 119 -190 129 q-41 18 -101 30q-4 0 -6 -4q-57 12 -131 13h-63q-4 0 -2 4l-8 -4h-25l-25 4v-27l-6 -33q0 -8 2 -12q-2 -8 -4 -12l2 -6q0 -4 -4 -5l2 -14l-8 -35q0 -4 2 -4l-4 -18l-6 -35q0 -4 -4 -4l4 -6l-8 -51q0 -4 -4 -5q2 -20 2 -26q-6 -2 -9 -8v-9q-2 -8 2 -14l-12 -31v-22 q0 -4 -4 -10q0 -4 2 -11q-14 -55 -25 -125l3 -8q-4 -6 -7 -14l-4 -37q4 -2 11 -2q8 4 12 4v-4q4 4 57 8l37 -4q6 4 16 4v-4l7 4h26q8 0 19 4q2 -4 10 -4h26l23 4l-4 -4l10 4q12 -10 37 -14l-2 -10q-18 -74 -45 -74l-8 2q-8 -2 -13 -2q-10 6 -20 6h-23l-36 -4v4l-9 -4h-14 q-4 0 -2 4l-8 -4h-94q-2 0 -2 4q-11 -6 -23 -6v-2v-16l-8 -19l8 -2l-6 -6q-2 -12 2 -12l-6 -19l-2 -12v-37h-4q0 -4 4 -4l-8 -16v-56h-5l2 -6q-14 -135 -16 -158h-2q6 -18 4 -28h-4l2 -6q-8 -113 -12 -148l2 -14h-4l2 -6z" />
<glyph unicode="&#xf1;" horiz-adv-x="952" d="M-135 47q27 113 63 215l13 86q0 8 6 14q-2 6 -2 15v4q10 8 18 47q0 4 -2 4l4 19v4q2 8 0 14l15 23q20 141 30 163q-2 20 0 29h4l-4 8l2 4q0 2 4 2l-2 9v4q0 4 4 4l-2 8v2q2 8 9 8q2 2 -2 2q20 109 34 201l11 74q0 8 6 14l-4 8q6 6 6 15l-2 8q14 37 26 119q2 4 6 4 q0 2 -4 2q12 41 19 86l8 51q0 4 4 4l-4 6l4 16q2 16 37 41h8q4 0 2 -4l10 4q96 -20 93 -49q6 0 79 -98q55 -96 136 -215q53 -111 155 -242v4q0 4 -2 4l4 19l-2 14h4v8q20 236 37 351l6 18q-4 6 -2 19l7 45q2 8 -3 16l7 6v23q0 4 4 10q2 20 2 35v6q30 59 57 59q57 -10 51 -51 l-6 -8q0 -23 6 -23l-6 -18l-4 -23v-37h-4l2 -6l-6 -18q0 -4 4 -4l-8 -27l-2 -24q-2 -10 0 -17q-4 -6 -6 -14q0 -8 2 -14l-4 -9q0 -4 4 -4l-11 -24q-12 -174 -16 -197q4 -6 4 -10h-4l4 -8q-4 -4 -6 -4l2 -19l-8 -55v-37h-4q4 -35 -2 -170q-2 -4 -6 -4l2 -19l-7 -41v-36h-4 l2 -9q0 -2 -4 -2l2 -8q0 -4 -4 -4l-4 -135l-6 -8l-2 -88h-4q-2 -4 2 -4l-6 -21q4 -6 4 -10h-4q2 -6 2 -10q-4 -61 -8 -68h-2q2 -6 2 -33h-4q8 -14 4 -22h-4l4 -6l-9 -13l2 -8q-16 -47 -28 -47h-82q-6 2 -12 18q12 27 14 52l2 8q14 111 8 143l8 4q0 4 -2 4l4 19v14h4 q-4 10 0 45l5 8q-4 29 0 62h4l-2 63l6 19q20 147 -4 147q-63 119 -64 123q-49 51 -88 129l-192 299q-55 100 -66 100q-27 -131 -45 -194q-2 -4 2 -4l-8 -37l-6 -45q0 -4 -4 -4l2 -6l-8 -64q-2 -8 0 -14q-23 -84 -33 -160q0 -4 -6 -10q4 -8 2 -17l-2 -20q-2 -4 -7 -4l5 -8 l-3 -11q-16 -119 -38 -178q-2 -4 2 -4l-7 -18l5 -8q-6 -8 -27 -80l8 -4l-8 -19l-6 -51l-10 -45q4 0 2 -4q-8 0 -41 -133v-27l-4 -6v-8l-5 -6q4 -8 5 -13q-35 -45 -66 -45v4l-8 -4h-6q-33 20 -37 37zM199 1538h4l-2 8l4 39q8 14 22 57q51 76 101 99q31 16 45 16q4 0 4 -4l6 4 h18q76 0 191 -168q35 -20 45 -20h10q49 23 51 30q10 23 15 23v6v4q2 4 4 4q-2 8 0 45q4 0 4 5q-6 0 -6 8h4l-4 6l2 4l45 49q6 4 10 4q47 -6 43 -24q4 -8 2 -11q-4 -8 -4 -12q4 0 8 -10v-2q0 -10 -10 -23l2 -18q-14 -111 -133 -178l2 4q-35 -18 -49 -19q-6 4 -15 4 q-8 -4 -10 -4v4l-8 -4q-94 45 -106 82q-10 0 -70 90q-27 27 -72 27q-66 -39 -78 -113q2 -14 0 -32q-2 0 -24 -23h-33l-6 4q0 -4 -4 -4q0 4 -2 4l2 8q-10 16 -8 31z" />
<glyph unicode="&#xf2;" horiz-adv-x="1064" d="M-33 596h2l-2 6l8 49q0 12 -2 19l7 22q16 106 28 180q2 4 -2 5l6 18l4 27q0 4 4 4q0 2 -4 2q47 164 103 246l-4 6q51 109 129 163q57 63 98 66q2 0 25 8v-4q27 14 98 14q6 -4 10 -4q0 6 17 17q4 0 4 -4q14 2 14 8q4 0 10 -4q63 4 96 4h23q59 0 94 -31v4q55 -10 105 -51 q61 -33 110 -178q20 -70 21 -76q-4 -6 -8 -10q8 0 12 -60h-4q6 -35 6 -73h-4l2 -6v-9q-2 -4 -6 -4l4 -8v-6q0 -4 -4 -4v-41h-4l4 -6v-4l-9 -9q8 0 9 -8l-2 -10h-7v-18q0 -4 -4 -5l4 -6l-4 -12q0 -2 -4 -2l4 -8v-4q0 -4 -4 -4l2 -7v-4q-2 -12 -6 -12v-18l-8 -56h-6 q-2 -12 2 -18q-39 -137 -62 -197q0 -2 5 -2q-12 -41 -19 -41q0 -4 4 -4q-57 -150 -92 -207q-57 -84 -86 -106q-123 -109 -229 -137q-29 -12 -80 -17q-14 4 -15 8q-2 0 -2 -4q-211 33 -206 56q-141 115 -166 270q-23 201 -19 297zM55 598q10 -233 37 -350q23 -59 74 -115 q51 -68 137 -67q-2 -4 70 -11q78 0 219 107q76 76 102 137l11 4q-4 6 -3 10q18 45 25 49l-2 9q10 0 47 133q14 0 64 235l10 52q0 4 -2 12q8 25 8 41l6 41q0 4 4 4l-4 29l4 8q2 33 0 39l4 8v22q4 0 4 4q-8 0 -6 7l2 16l4 6q-6 0 -14 105q-2 0 -45 102q-10 2 -14 22 q-41 49 -158 78q-8 0 -8 8l-8 -4q-23 2 -21 7q-4 0 -4 -3l-45 3h-25q-18 -11 -30 -11l-9 4q-168 -43 -170 -55q-14 0 -81 -72q-68 -125 -123 -276l2 -8q-6 -27 -11 -27q0 -2 3 -2q-8 -41 -13 -41q0 -4 4 -4l-8 -18l-6 -60q-2 -8 -6 -14q2 -6 2 -10l-8 -27q0 -4 4 -4l-6 -19 l-13 -84v-20h-4zM336 1706v4q4 31 51 64q2 4 6 4h27q72 -88 203 -207q12 -29 12 -35q-8 -37 -62 -47q2 4 -2 4q-2 -8 -8 -8h-8q-20 0 -29 26q-8 0 -90 78q-74 55 -100 117z" />
</font>
</defs>
</svg>
